<?xml version="1.0" encoding="UTF-8"?>
<svg version="1.1" xmlns="http://www.w3.org/2000/svg" width="640" height="441">
<path d="M0 0 C211.2 0 422.4 0 640 0 C640 145.53 640 291.06 640 441 C428.8 441 217.6 441 0 441 C0 295.47 0 149.94 0 0 Z " fill="#FEFEFE" transform="translate(0,0)"/>
<path d="M0 0 C13.3270664 11.22527608 23.50678566 26.4457358 26 44 C27.10463061 65.58706048 23.91890762 83.92538863 10 101 C9.35546875 101.84433594 8.7109375 102.68867188 8.046875 103.55859375 C-1.91990945 115.44645688 -15.51662524 120.98749772 -30 125 C-30.64630371 125.18030762 -31.29260742 125.36061523 -31.95849609 125.54638672 C-49.32751056 129.40570613 -68.49005439 124.52425359 -83.24804688 115.20214844 C-99.41848593 104.10637894 -110.36620486 87.26659138 -114.33984375 68.13671875 C-117.72397565 48.9478255 -112.98210377 30.27708063 -102.12109375 14.22265625 C-92.35906303 1.42354931 -78.83581558 -9.09246109 -63 -13 C-62.29488281 -13.20238281 -61.58976562 -13.40476563 -60.86328125 -13.61328125 C-39.7800998 -18.87512789 -17.08879072 -13.02572159 0 0 Z " fill="#1B86D5" transform="translate(367,168)"/>
<path d="M0 0 C5.18398982 3.78197588 9.14313952 8.01556002 12.52734375 13.45703125 C12.94113281 14.08738281 13.35492187 14.71773438 13.78125 15.3671875 C18.2346738 23.42059151 17.66920823 33.87608415 15.8671875 42.68359375 C12.75026278 52.26375197 6.33840369 60.49326632 -2.47265625 65.45703125 C-12.47336457 70.0694269 -22.72561555 71.30326148 -33.28515625 67.83203125 C-43.35737849 63.65967174 -51.09865896 56.40172535 -55.66015625 46.48046875 C-59.61753533 36.62507277 -59.75111807 26.90636222 -55.73046875 17.0234375 C-51.04504837 7.4634338 -43.43645864 0.29921507 -33.6484375 -3.81640625 C-22.23450815 -7.62787997 -10.17402282 -6.34871882 0 0 Z " fill="#1B86D4" transform="translate(555.47265625,293.54296875)"/>
<path d="M0 0 C9.83624843 7.15666129 15.02899624 15.59989111 17.49609375 27.4921875 C18.67573708 37.24291023 15.6411765 46.27833712 10.49609375 54.4921875 C4.37396924 62.15152668 -3.77774929 67.70905872 -13.50390625 69.4921875 C-25.87645416 70.40265095 -35.79508207 68.44727622 -45.50390625 60.4921875 C-53.31396093 53.32642304 -57.5949506 45.15121235 -58.14624023 34.54711914 C-58.31419069 25.27897769 -56.90330691 18.26235949 -51.50390625 10.4921875 C-51.03597656 9.80898437 -50.56804688 9.12578125 -50.0859375 8.421875 C-38.04347352 -7.16249015 -16.56843741 -9.97724936 0 0 Z " fill="#2289D6" transform="translate(82.50390625,191.5078125)"/>
<path d="M0 0 C8.39092326 6.10693105 15.30612916 13.81910975 18 24 C19.2106468 35.04513434 18.91122693 45.58127291 11.9765625 54.64453125 C5.42824119 62.2767897 -1.83295687 68.85765996 -12.1730957 70.30395508 C-14.41615678 70.43648712 -16.62830493 70.46830302 -18.875 70.4375 C-19.66583984 70.42847656 -20.45667969 70.41945313 -21.27148438 70.41015625 C-32.26566243 70.08493816 -40.23589735 65.79092165 -48 58 C-55.12201982 48.6888962 -58.33207841 38.68936223 -57 27 C-54.18657248 15.2217526 -48.0325444 6.64024522 -38 0 C-27.17206774 -6.24688399 -10.8775547 -6.25417364 0 0 Z " fill="#1C89D9" transform="translate(554,100)"/>
<path d="M0 0 C0.86625 0.66 1.7325 1.32 2.625 2 C3.45 2.556875 4.275 3.11375 5.125 3.6875 C11.95470813 10.00498002 16.04544822 18.0327632 16.94140625 27.2578125 C17.34850727 39.20819729 14.72121222 48.70230979 6.828125 57.80859375 C-1.08760967 65.68222345 -9.6318533 69.07174865 -20.6875 69.5 C-31.97031873 69.21792953 -40.11142579 65.26070434 -48.1796875 57.46484375 C-55.9199879 48.77422177 -58.8999449 39.91262531 -58.6875 28.34765625 C-57.59871398 16.68403601 -51.28476618 7.90134854 -42.52734375 0.5390625 C-29.4310875 -8.82559261 -13.51756918 -8.01041137 0 0 Z " fill="#1C8ADB" transform="translate(343.375,353)"/>
<path d="M0 0 C8.41554326 5.91187876 15.79618116 14.34445244 17.78515625 24.6796875 C18.75798274 37.05531629 17.04837234 47.98705516 8.828125 57.64453125 C0.38537611 66.05499429 -8.40003622 69.70801668 -20.21484375 70.1171875 C-31.53433526 69.8588078 -40.62575485 64.9176208 -48.47265625 56.87890625 C-55.99728577 47.38032683 -58.1645514 37.50421657 -57.21484375 25.6796875 C-54.72986822 14.71739546 -48.29112387 6.16980432 -39.21484375 -0.3203125 C-26.49981165 -7.23293292 -12.60903529 -7.51649723 0 0 Z " fill="#1D8ADB" transform="translate(342.21484375,28.3203125)"/>
<path d="M0 0 C9.59150895 5.75847099 16.40551786 12.53371225 20.1015625 23.26171875 C22.54078941 33.21376456 21.80783184 43.14071888 17.1015625 52.26171875 C11.81144878 60.7392934 4.57093428 67.11448668 -4.87109375 70.5625 C-15.88572999 73.10652566 -27.14463189 72.19444587 -36.8984375 66.26171875 C-45.58348386 60.04296036 -51.800914 51.86315533 -53.8984375 41.26171875 C-55.02243993 29.00547304 -52.7842623 18.83863465 -44.8984375 9.26171875 C-33.52665899 -2.65157302 -15.32558252 -7.50479556 0 0 Z " fill="#1C87D7" transform="translate(230.8984375,41.73828125)"/>
<path d="M0 0 C4.2274409 3.43808472 7.01276645 7.50470001 9.625 12.25 C10.04007812 13.00023437 10.45515625 13.75046875 10.8828125 14.5234375 C14.78667985 22.74066878 15.04809597 31.85356971 12.7421875 40.59765625 C8.82474009 50.85825527 1.55654193 59.4898616 -8.484375 64.25 C-18.81398428 68.28864423 -29.09070037 68.59408816 -39.375 64.25 C-49.2706884 59.11280403 -56.92612357 50.92787732 -60.375 40.25 C-62.95206779 29.53851416 -61.83649375 19.82819759 -56.375 10.25 C-54.27020179 7.3032825 -51.98794646 4.75212953 -49.375 2.25 C-48.88 1.76917969 -48.385 1.28835938 -47.875 0.79296875 C-33.86115777 -11.81187304 -14.89658277 -10.08124127 0 0 Z " fill="#D4E0E9" transform="translate(238.375,340.75)"/>
<path d="M0 0 C5.18990726 3.77998246 9.14124685 8.01653988 12.53125 13.45703125 C12.94503906 14.07578125 13.35882812 14.69453125 13.78515625 15.33203125 C18.34156023 23.46052894 17.82397816 34.68332965 15.8359375 43.5625 C12.48423531 52.64589459 5.82792991 61.41087853 -2.99609375 65.6796875 C-13.27630077 69.89140227 -23.35099224 71.19361846 -34.09375 67.4921875 C-44.28340114 63.05097442 -51.50504709 55.77798264 -55.7421875 45.53515625 C-58.95088518 36.35759085 -59.04112849 24.52959251 -54.78515625 15.69140625 C-49.08261463 6.01231483 -41.09615709 -1.97095438 -30.0078125 -5.10546875 C-19.20607362 -6.96669145 -9.34316565 -5.83947853 0 0 Z " fill="#1D8ADB" transform="translate(601.46875,191.54296875)"/>
<path d="M0 0 C3.69140095 3.14013313 6.43190181 6.71050386 9.06640625 10.7578125 C9.50210938 11.38816406 9.9378125 12.01851563 10.38671875 12.66796875 C14.69031944 20.23688885 14.36853765 30.37229519 13.06640625 38.7578125 C10.41008623 48.28067594 4.66188096 56.53305207 -3.90234375 61.46875 C-14.08649781 66.73385877 -23.8593795 68.71664554 -35.234375 65.95703125 C-46.70154816 61.62895422 -54.64664331 53.90535084 -59.69921875 42.765625 C-62.90891438 33.57590565 -62.67435628 22.80974036 -58.87255859 13.84936523 C-53.50833338 2.961034 -45.21406414 -3.25983962 -33.93359375 -7.2421875 C-21.52006373 -10.25855928 -10.31215695 -7.34210817 0 0 Z " fill="#1F89D7" transform="translate(456.93359375,339.2421875)"/>
<path d="M0 0 C1.73969403 1.05406427 3.45428281 2.15220225 5.125 3.3125 C6.218125 4.034375 7.31125 4.75625 8.4375 5.5 C16.98068239 14.44053971 20.56940825 23.5553992 20.48413086 35.77368164 C20.21146973 46.39605743 16.9040792 53.50228926 9.484375 61.15234375 C6.24437986 64.11876314 3.08291607 66.41084501 -0.875 68.3125 C-1.514375 68.62960938 -2.15375 68.94671875 -2.8125 69.2734375 C-10.53559532 72.46213973 -20.64688117 72.72452656 -28.6953125 70.55078125 C-30.88499609 69.61181524 -32.85454623 68.57092918 -34.875 67.3125 C-35.90625 66.714375 -36.9375 66.11625 -38 65.5 C-45.79193579 59.5713532 -52.12802676 52.28259983 -53.875 42.3125 C-54.71448621 29.07338954 -53.7092945 19.02627882 -45.00390625 8.421875 C-33.36996611 -3.10533175 -15.07235898 -7.37502848 0 0 Z " fill="#1B89DB" transform="translate(449.875,41.6875)"/>
<path d="M0 0 C5.6828233 3.81019771 9.33367629 8.92563055 12.80078125 14.75 C13.16429687 15.35199219 13.5278125 15.95398438 13.90234375 16.57421875 C17.83748997 24.75711626 17.00738863 37.17298909 14.36328125 45.6875 C10.02034811 55.74964791 1.11302091 63.70760473 -8.921875 67.8828125 C-17.80827138 70.23415934 -29.62959271 70.28452378 -37.96484375 66.203125 C-47.85931834 59.76825691 -55.50615206 51.38356288 -58.19921875 39.75 C-59.38569692 28.98732473 -58.88944543 19.0255233 -52.24609375 10.13671875 C-38.56153329 -6.01201955 -18.76778814 -10.66730409 0 0 Z " fill="#1C89DA" transform="translate(134.19921875,101.25)"/>
<path d="M0 0 C0.83571533 0.00572021 1.67143066 0.01144043 2.5324707 0.01733398 C12.41468425 0.30055481 20.75967607 3.46656472 27.9921875 10.3359375 C36.7788528 20.78188724 38.57379709 30.2683897 38.00048828 43.44873047 C37.59090241 47.91800385 35.98664248 51.62896583 33.8125 55.5 C33.255625 56.53125 32.69875 57.5625 32.125 58.625 C24.91012855 67.59484018 16.49171631 73.64675374 4.83984375 74.94140625 C-7.03749152 75.49944892 -16.30215529 72.48532057 -25.1875 64.5 C-32.23396421 57.56771461 -36.23657479 49.84877603 -36.4296875 39.91674805 C-36.4769246 27.19373118 -33.80407517 19.16554954 -25.1875 9.5 C-17.59387387 3.07863176 -9.87372836 -0.0785286 0 0 Z " fill="#1C89DB" transform="translate(112.1875,285.5)"/>
<path d="M0 0 C4.67039167 3.5006747 7.86173222 7.5355379 10 13 C10.061875 13.886875 10.12375 14.77375 10.1875 15.6875 C10.5896875 16.8321875 10.5896875 16.8321875 11 18 C12.93216383 18.89106849 14.89564199 19.48299678 16.92578125 20.1171875 C20.88428509 21.80197444 23.10535773 25.21071545 25 29 C25.40331428 34.24308569 24.86051133 37.56127553 22 42 C17.56707 46.10046025 14.37517232 47.12076826 8.43041992 47.16113281 C6.71800362 47.17554413 6.71800362 47.17554413 4.97099304 47.19024658 C3.73662003 47.19449646 2.50224701 47.19874634 1.23046875 47.203125 C-0.03842697 47.20882507 -1.30732269 47.21452515 -2.6146698 47.22039795 C-5.30215033 47.22985201 -7.98951909 47.23674671 -10.67700195 47.24023438 C-14.11013066 47.24571164 -17.54286127 47.26972702 -20.97586536 47.29820633 C-24.26122361 47.32138392 -27.5466027 47.32328593 -30.83203125 47.328125 C-32.06033157 47.3404718 -33.2886319 47.3528186 -34.55415344 47.36553955 C-42.1046008 47.34585379 -46.76141573 46.71137288 -52.6875 41.75 C-56.12732796 37.65939378 -57.71806173 33.90308331 -58.5 28.625 C-57.64093878 22.39680619 -54.89428364 17.76212431 -50.3125 13.5 C-45.91146242 11.50707732 -41.78859286 11.18927244 -37 11 C-36.7525 9.9790625 -36.7525 9.9790625 -36.5 8.9375 C-33.68420985 3.42324429 -28.69587031 -0.56234459 -23 -2.9375 C-14.75145762 -5.50015394 -7.57161934 -3.84787213 0 0 Z " fill="#FDFDFE" transform="translate(339,202)"/>
<path d="M0 0 C4.2274409 3.43808472 7.01276645 7.50470001 9.625 12.25 C10.04007812 13.00023437 10.45515625 13.75046875 10.8828125 14.5234375 C14.78667985 22.74066878 15.04809597 31.85356971 12.7421875 40.59765625 C8.82474009 50.85825527 1.55654193 59.4898616 -8.484375 64.25 C-15.61510946 67.03795633 -21.82139582 67.38200473 -29.375 67.25 C-28.78554092 66.97101364 -28.19608185 66.69202728 -27.58876038 66.40458679 C-21.08172924 63.0108445 -15.09878332 57.57746949 -11.375 51.25 C-9.20893766 44.02387831 -9.99869785 36.36874709 -10.4375 28.9375 C-10.49928956 26.93834001 -10.55467517 24.93897137 -10.60351562 22.93945312 C-10.16052351 14.52888886 -10.16052351 14.52888886 -12.375 7.25 C-14.15571246 7.16273777 -15.9398314 7.14300959 -17.72265625 7.15234375 C-18.80224609 7.15556641 -19.88183594 7.15878906 -20.99414062 7.16210938 C-22.69860352 7.17467773 -22.69860352 7.17467773 -24.4375 7.1875 C-26.14776367 7.19426758 -26.14776367 7.19426758 -27.89257812 7.20117188 C-30.72010351 7.21300253 -33.5475264 7.2294859 -36.375 7.25 C-36.375 7.91 -36.375 8.57 -36.375 9.25 C-37.59765625 10.44921875 -37.59765625 10.44921875 -39.4375 11.9375 C-43.90970977 15.74089281 -48.08572764 19.80404832 -52.25 23.9375 C-52.91652588 24.59129639 -53.58305176 25.24509277 -54.26977539 25.91870117 C-55.21518188 26.86193237 -55.21518188 26.86193237 -56.1796875 27.82421875 C-56.74671387 28.38713623 -57.31374023 28.95005371 -57.89794922 29.5300293 C-59.44761436 31.33455672 -60.4054656 33.0864417 -61.375 35.25 C-62.20016818 23.88101619 -60.42211416 14.69424213 -52.9375 5.8125 C-51.77405938 4.60141849 -50.58794229 3.41150054 -49.375 2.25 C-48.88 1.76917969 -48.385 1.28835938 -47.875 0.79296875 C-33.86115777 -11.81187304 -14.89658277 -10.08124127 0 0 Z " fill="#1C8ADB" transform="translate(238.375,340.75)"/>
<path d="M0 0 C2.475 0.495 2.475 0.495 5 1 C5 2.65 5 4.3 5 6 C7.47266765 5.65555119 7.47266765 5.65555119 10 5 C10.33 4.34 10.66 3.68 11 3 C13.475 3.495 13.475 3.495 16 4 C16 6.31 16 8.62 16 11 C17.98 11 19.96 11 22 11 C22.66 12.32 23.32 13.64 24 15 C23.505 15.598125 23.01 16.19625 22.5 16.8125 C20.71723582 18.97029994 20.71723582 18.97029994 21 22 C22.65 22 24.3 22 26 22 C26 23.65 26 25.3 26 27 C24.35 27.33 22.7 27.66 21 28 C21.34444881 30.47266765 21.34444881 30.47266765 22 33 C22.99 33.495 22.99 33.495 24 34 C23.6875 35.9375 23.6875 35.9375 23 38 C20 39 20 39 16 39 C16 40.98 16 42.96 16 45 C14.35 45.66 12.7 46.32 11 47 C10.67 46.01 10.34 45.02 10 44 C8.35 44 6.7 44 5 44 C5 45.65 5 47.3 5 49 C3.02 49 1.04 49 -1 49 C-1.33 47.68 -1.66 46.36 -2 45 C-3.11375 45.2475 -3.11375 45.2475 -4.25 45.5 C-7 46 -7 46 -11 46 C-11.2165625 45.1028125 -11.2165625 45.1028125 -11.4375 44.1875 C-11.8872439 42.43849596 -12.42892341 40.71322977 -13 39 C-14.98 39 -16.96 39 -19 39 C-19.33 37.35 -19.66 35.7 -20 34 C-18.515 33.505 -18.515 33.505 -17 33 C-17.33 31.68 -17.66 30.36 -18 29 C-19.65 28.67 -21.3 28.34 -23 28 C-23 26.02 -23 24.04 -23 22 C-21.35 22 -19.7 22 -18 22 C-17.67 20.35 -17.34 18.7 -17 17 C-17.99 16.67 -18.98 16.34 -20 16 C-19.67 14.35 -19.34 12.7 -19 11 C-16.69 11 -14.38 11 -12 11 C-12 8.69 -12 6.38 -12 4 C-10.125 3.375 -10.125 3.375 -8 3 C-7.34 3.66 -6.68 4.32 -6 5 C-4.68 5 -3.36 5 -2 5 C-1.34 3.35 -0.68 1.7 0 0 Z " fill="#F8FAFC" transform="translate(533,108)"/>
<path d="M0 0 C3.8026029 2.0050088 5.61790841 3.42686262 8 7 C8.125 10.1875 8.125 10.1875 8 13 C7.34 13 6.68 13 6 13 C6 19.93 6 26.86 6 34 C7.32 34.33 8.64 34.66 10 35 C1.11328125 43.88671875 1.11328125 43.88671875 -0.47412109 45.46630859 C-1.90373302 46.90324014 -3.30645617 48.36678315 -4.70703125 49.83203125 C-7 52 -7 52 -10 53 C-19.24598424 52.63016063 -26.08813386 47.63907308 -32.2734375 41.12109375 C-34.80722905 38.00831363 -36.60313185 34.75654938 -38 31 C-38.27457031 30.36707031 -38.54914063 29.73414062 -38.83203125 29.08203125 C-39 27 -39 27 -37.515625 24.58984375 C-31.64345507 17.71535516 -25.50157036 11.28282594 -19 5 C-17.340786 8.318428 -18.42740472 11.39264976 -19 15 C-19.33 15.33 -19.66 15.66 -20 16 C-20.07319621 18.69654854 -20.09242537 21.36691458 -20.0625 24.0625 C-20.05798828 24.82111328 -20.05347656 25.57972656 -20.04882812 26.36132812 C-20.0370068 28.24091871 -20.01907078 30.12046899 -20 32 C-18.02 32.66 -16.04 33.32 -14 34 C-14 27.07 -14 20.14 -14 13 C-14.66 13 -15.32 13 -16 13 C-16.35098791 9.22687995 -16.30640454 7.46488965 -14.1875 4.25 C-9.71213265 -0.35323499 -6.15002346 -0.87107841 0 0 Z " fill="#1670B2" transform="translate(437,58)"/>
<path d="M0 0 C0 7.26 0 14.52 0 22 C5.94 22 11.88 22 18 22 C18 23.65 18 25.3 18 27 C19.32 27 20.64 27 22 27 C22 25.35 22 23.7 22 22 C27.61 22 33.22 22 39 22 C33.93695092 28.06069422 28.57210508 33.78129789 23.0625 39.4375 C22.19431641 40.35982422 21.32613281 41.28214844 20.43164062 42.23242188 C13.99575787 48.80451379 13.99575787 48.80451379 9.1796875 49.75 C0.10542402 47.60963318 -6.68267649 41.46635726 -12 34 C-15.64520722 27.40692954 -17.13780617 21.7806175 -17.0625 14.25 C-17.05347656 13.07953125 -17.04445313 11.9090625 -17.03515625 10.703125 C-17.02355469 9.81109375 -17.01195312 8.9190625 -17 8 C-16.67 8 -16.34 8 -16 8 C-15.67 9.98 -15.34 11.96 -15 14 C-14.58113525 13.57589844 -14.16227051 13.15179688 -13.73071289 12.71484375 C-11.84389041 10.80732151 -9.95325837 8.90362067 -8.0625 7 C-7.40314453 6.33226562 -6.74378906 5.66453125 -6.06445312 4.9765625 C-5.43603516 4.34492188 -4.80761719 3.71328125 -4.16015625 3.0625 C-3.57886963 2.47597656 -2.99758301 1.88945312 -2.39868164 1.28515625 C-1 0 -1 0 0 0 Z " fill="#197AC2" transform="translate(561,210)"/>
<path d="M0 0 C0.33 14.19 0.66 28.38 1 43 C8.59 43.33 16.18 43.66 24 44 C22.02 46.31 20.04 48.62 18 51 C16.6078125 52.7015625 16.6078125 52.7015625 15.1875 54.4375 C12.83442587 56.69328941 11.13435578 57.49747334 7.875 57.75 C-1.00848029 57.09085475 -9.34394239 51.78555048 -15.2421875 45.33203125 C-19.80975469 39.2723921 -24.00212874 32.32633555 -23.77099609 24.51782227 C-21.97058477 18.63826497 -16.45584871 14.53055238 -12.0625 10.4375 C-11.00907266 9.42068262 -9.95761724 8.40181812 -8.90820312 7.38085938 C-1.26174653 0 -1.26174653 0 0 0 Z " fill="#1468A6" transform="translate(201,350)"/>
<path d="M0 0 C1 3 1 3 0 6 C-0.068991 8.06145107 -0.08467727 10.12501401 -0.0625 12.1875 C-0.05347656 13.27417969 -0.04445313 14.36085938 -0.03515625 15.48046875 C-0.02355469 16.31191406 -0.01195313 17.14335937 0 18 C2.28694223 18.50379029 2.28694223 18.50379029 5 18 C6.19961737 16.47266254 7.39731411 14.94352542 8.56689453 13.39306641 C10.6825943 11.33647648 12.95886644 11.18845507 15.82568359 11.11669922 C16.52258301 11.14006348 17.21948242 11.16342773 17.9375 11.1875 C18.65244629 11.19797363 19.36739258 11.20844727 20.10400391 11.21923828 C23.30880018 11.38985546 25.60428885 11.7408795 28.30859375 13.51171875 C29.7896213 15.2734398 30.89759168 16.98651042 32 19 C32.66 19.66 33.32 20.32 34 21 C31.34630367 23.87754815 28.66285823 26.72356651 25.94946289 29.54492188 C24.58340664 30.97806662 23.24164244 32.43424005 21.90039062 33.890625 C14.41095125 41.62879114 14.41095125 41.62879114 9.16015625 41.7890625 C1.09489137 40.77878477 -6.53184735 34.81750685 -12 29 C-14.93217917 24.55443803 -15.56283239 21.28282286 -15 16 C-13.29895781 13.5686828 -11.8134235 11.74304783 -9.75 9.6875 C-9.01330078 8.90149414 -9.01330078 8.90149414 -8.26171875 8.09960938 C-5.73024887 5.46350541 -3.4250288 3.34554703 0 2 C0 1.34 0 0.68 0 0 Z " fill="#1873B6" transform="translate(95,316)"/>
<path d="M0 0 C0.33 0 0.66 0 1 0 C1.12117188 0.62648438 1.24234375 1.25296875 1.3671875 1.8984375 C1.53476562 2.71570313 1.70234375 3.53296875 1.875 4.375 C2.11863281 5.59316406 2.11863281 5.59316406 2.3671875 6.8359375 C2.86658932 9.18673923 2.86658932 9.18673923 5 11 C7.20250992 11.46006346 7.20250992 11.46006346 9.625 11.625 C10.85089844 11.73714844 10.85089844 11.73714844 12.1015625 11.8515625 C12.72804688 11.90054687 13.35453125 11.94953125 14 12 C11.359375 14.96875 11.359375 14.96875 8.125 15.25 C5.33362193 15.02668975 2.72296145 14.64069681 0 14 C-3.22480085 18.36908502 -4.06555763 20.3933458 -5 26 C4.57 26 14.14 26 24 26 C20.02222432 30.64073829 16.08767449 35.04566693 11.75 39.3125 C11.22148437 39.83650391 10.69296875 40.36050781 10.1484375 40.90039062 C8.76761954 42.26894244 7.38399024 43.63465634 6 45 C5.34 45.66 4.68 46.32 4 47 C-3.71493894 47 -9.96683967 43.59436743 -15.6875 38.49609375 C-18.0166638 35.8411243 -20 32.58114551 -20 29 C-20.66 29 -21.32 29 -22 29 C-22.79248047 26.8269043 -22.79248047 26.8269043 -23 24 C-21.10986328 21.44458008 -21.10986328 21.44458008 -18.3203125 18.76953125 C-17.83295624 18.29303635 -17.34559998 17.81654144 -16.84347534 17.3256073 C-15.28417666 15.80649159 -13.7056852 14.30932093 -12.125 12.8125 C-10.55595483 11.30084721 -8.99108453 9.78501787 -7.427948 8.26725769 C-6.00861399 6.8933086 -4.57899428 5.53000895 -3.14892578 4.16723633 C-0.96508094 2.19032882 -0.96508094 2.19032882 0 0 Z " fill="#1773B7" transform="translate(313,374)"/>
<path d="M0 0 C3.42824374 1.71412187 5.02675552 2.78609963 7.6015625 5.40625 C8.25640625 6.06753906 8.91125 6.72882813 9.5859375 7.41015625 C10.59527344 8.44462891 10.59527344 8.44462891 11.625 9.5 C12.305625 10.18964844 12.98625 10.87929687 13.6875 11.58984375 C14.94711545 12.86688471 16.20466586 14.14596817 17.45947266 15.42773438 C18.63280175 16.62523665 19.8145227 17.8145227 21 19 C18.22948943 22.06176592 15.40282178 25.06550169 12.5625 28.0625 C11.3878418 29.3628418 11.3878418 29.3628418 10.18945312 30.68945312 C4.36067088 36.75810296 4.36067088 36.75810296 0.59399414 37.42773438 C-3.86310751 37.03647454 -7.78756563 35.55523237 -11.6875 33.375 C-12.55761719 32.90835938 -13.42773438 32.44171875 -14.32421875 31.9609375 C-17 30 -17 30 -23 23 C-15.41 15.41 -7.82 7.82 0 0 Z " fill="#135A8E" transform="translate(317,61)"/>
<path d="M0 0 C1.65 0.99 3.3 1.98 5 3 C4.67 4.65 4.34 6.3 4 8 C2.35 8 0.7 8 -1 8 C-1 9.98 -1 11.96 -1 14 C0.65 14 2.3 14 4 14 C4.33 15.65 4.66 17.3 5 19 C4.34 19.33 3.68 19.66 3 20 C3 21.65 3 23.3 3 25 C4.98 24.67 6.96 24.34 9 24 C10.41377341 26.63904371 11.37240135 29.07120629 12 32 C12.8353125 31.4740625 12.8353125 31.4740625 13.6875 30.9375 C16.53886783 29.78154007 18.08517222 30.19032562 21 31 C21 32.32 21 33.64 21 35 C22.98 35 24.96 35 27 35 C27 33.35 27 31.7 27 30 C28.65 30 30.3 30 32 30 C32.495 30.99 32.495 30.99 33 32 C33.99 32.66 34.98 33.32 36 34 C33.84200723 36.36216967 31.64440219 38.68353529 29.4375 41 C28.82841797 41.66773438 28.21933594 42.33546875 27.59179688 43.0234375 C24.45666713 46.27468316 22.91685657 47.86706557 18.3359375 48.53125 C8.22561314 46.92117493 -0.71924764 41.73125522 -6.890625 33.46875 C-10.94125814 26.94054513 -13.92876912 20.8375078 -13 13 C-11.16682298 10.31986734 -8.89928565 8.23482619 -6.5 6.0625 C-5.87996094 5.47404297 -5.25992187 4.88558594 -4.62109375 4.27929688 C-3.09611259 2.83643008 -1.55004525 1.41590672 0 0 Z " fill="#1771B4" transform="translate(511,122)"/>
<path d="M0 0 C3.56514876 1.53613553 6.03870356 3.6838452 8.875 6.3125 C12.51040019 9.64674278 16.1782939 12.8822924 20 16 C19.01 16.33 18.02 16.66 17 17 C14.69 14.69 12.38 12.38 10 10 C12.59275413 13.3845759 12.59275413 13.3845759 15.6184082 16.36254883 C17.50290334 18.59603688 17.34554171 19.9952058 17.29296875 22.88671875 C17.2784668 24.2934082 17.2784668 24.2934082 17.26367188 25.72851562 C17.23853516 26.70498047 17.21339844 27.68144531 17.1875 28.6875 C17.16719727 30.16959961 17.16719727 30.16959961 17.14648438 31.68164062 C17.11112661 34.12132617 17.05731962 36.56073163 17 39 C13.37 39 9.74 39 6 39 C6 33.39 6 27.78 6 22 C2.7 22 -0.6 22 -4 22 C-4 27.61 -4 33.22 -4 39 C-7.63 39 -11.26 39 -15 39 C-15.16252678 35.62305467 -15.28113968 32.25397165 -15.375 28.875 C-15.42527344 27.92367187 -15.47554688 26.97234375 -15.52734375 25.9921875 C-15.67307052 18.99730235 -15.67307052 18.99730235 -13.63769531 15.98144531 C-11.9765625 14.3203125 -11.9765625 14.3203125 -9 12 C-13.39453125 16.00390625 -13.39453125 16.00390625 -15 17 C-15.99 16.67 -16.98 16.34 -18 16 C-15.93942825 14.08122455 -13.87662937 12.16494202 -11.8125 10.25 C-11.23435547 9.71117188 -10.65621094 9.17234375 -10.06054688 8.6171875 C-6.80637122 5.60201909 -3.50844332 2.72218201 0 0 Z " fill="#F4F8FA" transform="translate(112,114)"/>
<path d="M0 0 C0.66 0.33 1.32 0.66 2 1 C1.02804688 1.75539063 0.05609375 2.51078125 -0.9453125 3.2890625 C-4.54860774 6.89235774 -4.73804802 10.1138351 -4.88232422 15.06005859 C-4.87990723 16.15398926 -4.87749023 17.24791992 -4.875 18.375 C-4.91625 21.88125 -4.9575 25.3875 -5 29 C3.91 29 12.82 29 22 29 C20.03630362 32.2728273 18.32943426 35.06663834 16 38 C15.59007812 38.59554687 15.18015625 39.19109375 14.7578125 39.8046875 C12.05799488 43.43849608 10.84139843 44.84574362 6.25 45.6875 C-4.72383947 44.56090812 -12.78734558 38.24557673 -19.6953125 29.96875 C-21.55164512 27.16757743 -22.34276237 24.99890029 -22.66015625 21.65234375 C-21.1481088 15.57731289 -14.91246037 10.61340652 -10 7 C-8.35377132 6.28435109 -6.68975594 5.60576156 -5 5 C-2.22847788 2.47943955 -2.22847788 2.47943955 0 0 Z " fill="#166DAD" transform="translate(102,125)"/>
<path d="M0 0 C11.88 0 23.76 0 36 0 C36 6.6 36 13.2 36 20 C24.12 20 12.24 20 0 20 C0 13.4 0 6.8 0 0 Z " fill="#175788" transform="translate(563,210)"/>
<path d="M0 0 C3.5 0.1875 3.5 0.1875 5.5 1.1875 C9.64503661 1.43537017 9.64503661 1.43537017 13.5 0.1875 C16.875 -0.1875 16.875 -0.1875 20.5 0.1875 C25.0977602 4.27439796 27.26700813 10.07123375 27.71875 16.11328125 C27.74691183 18.82737757 27.74704058 21.48430597 27.5 24.1875 C26.5 25.1875 26.5 25.1875 24.25 25.625 C21.5 25.1875 21.5 25.1875 19.328125 22.20703125 C17.04035407 19.33539324 16.58587519 19.20544932 12.6875 18.390625 C11.29166866 18.37482314 9.89515162 18.39116655 8.5 18.4375 C7.80132812 18.41429687 7.10265625 18.39109375 6.3828125 18.3671875 C3.48052451 18.40004359 1.18887677 18.56371832 -1.01660156 20.56079102 C-2.21949699 22.07068005 -3.36309249 23.62731937 -4.5 25.1875 C-7.25 25.625 -7.25 25.625 -9.5 25.1875 C-11.2495249 23.4379751 -10.79609976 21.13218021 -10.875 18.75 C-10.84106766 11.64965819 -8.41682593 0.45090139 0 0 Z " fill="#F1F5F8" transform="translate(104.5,309.8125)"/>
<path d="M0 0 C6.6 0 13.2 0 20 0 C20 9.9 20 19.8 20 30 C13.4 30 6.8 30 0 30 C0 20.1 0 10.2 0 0 Z " fill="#0F4F81" transform="translate(205,355)"/>
<path d="M0 0 C0.78503906 -0.01224609 1.57007813 -0.02449219 2.37890625 -0.03710938 C4.42063726 -0.04236254 6.46192251 0.0652982 8.5 0.1875 C10.5 2.1875 10.5 2.1875 10.74291992 4.05102539 C10.73675659 5.15692017 10.73675659 5.15692017 10.73046875 6.28515625 C10.72853516 7.08630859 10.72660156 7.88746094 10.72460938 8.71289062 C10.70624023 9.96875977 10.70624023 9.96875977 10.6875 11.25 C10.68685547 12.09111328 10.68621094 12.93222656 10.68554688 13.79882812 C10.64023184 20.04726816 10.64023184 20.04726816 9.5 21.1875 C8.09651265 21.28610131 6.68819523 21.31828937 5.28125 21.3203125 C4.00701172 21.32224609 4.00701172 21.32224609 2.70703125 21.32421875 C1.36705078 21.31841797 1.36705078 21.31841797 0 21.3125 C-0.89332031 21.31636719 -1.78664063 21.32023437 -2.70703125 21.32421875 C-3.55652344 21.32292969 -4.40601563 21.32164062 -5.28125 21.3203125 C-6.06564453 21.31918457 -6.85003906 21.31805664 -7.65820312 21.31689453 C-9.5 21.1875 -9.5 21.1875 -10.5 20.1875 C-10.58651611 18.77179877 -10.60704904 17.351905 -10.59765625 15.93359375 C-10.59443359 15.07958984 -10.59121094 14.22558594 -10.58789062 13.34570312 C-10.57951172 12.44787109 -10.57113281 11.55003906 -10.5625 10.625 C-10.55798828 9.72330078 -10.55347656 8.82160156 -10.54882812 7.89257812 C-10.53700225 5.65748686 -10.5205222 3.42252563 -10.5 1.1875 C-7.21646451 -0.45426774 -3.60480362 0.00295961 0 0 Z " fill="#FDFEFE" transform="translate(433.5,357.8125)"/>
<path d="M0 0 C4.49676548 2.13004681 7.02481531 4.42588808 9 9 C9.46931903 11.66452093 9.73041372 14.30413717 10 17 C10.33 17.33 10.66 17.66 11 18 C11.15317991 20.66002811 11.23159875 23.2762188 11.25 25.9375 C11.270625 26.67935547 11.29125 27.42121094 11.3125 28.18554688 C11.328125 30.33984375 11.328125 30.33984375 11 34 C8 36 8 36 4 36 C4 29.07 4 22.14 4 15 C4.66 15 5.32 15 6 15 C5.05420604 9.08046185 5.05420604 9.08046185 1.4375 4.5 C-2.90514248 2.60502874 -6.3358089 2.17387021 -11 3 C-14.11456946 4.59041845 -15.5412737 5.73488116 -16.7421875 9.046875 C-17.25046011 11.01033906 -17.63426182 13.00506447 -18 15 C-17.34 15 -16.68 15 -16 15 C-16 21.93 -16 28.86 -16 36 C-22 35 -22 35 -23 34 C-23.09981214 31.3226862 -23.13879875 28.67695825 -23.125 26 C-23.12886719 25.24976562 -23.13273437 24.49953125 -23.13671875 23.7265625 C-23.12661053 18.12661053 -23.12661053 18.12661053 -22 17 C-21.73078423 15.41982048 -21.48456993 13.83569272 -21.25 12.25 C-20.33405217 7.42922194 -18.95284457 5.08514698 -15 2 C-10.32198701 -1.11867533 -5.47651278 -0.58676923 0 0 Z " fill="#FBFCFD" transform="translate(439,56)"/>
<path d="M0 0 C3.79212133 1.72369151 5.46264517 3.1636009 7 7 C7.72391739 14.61621418 3.83252819 20.72965571 0 27 C-1.98 27 -3.96 27 -6 27 C-13.09783784 14.70553089 -13.09783784 14.70553089 -12.5859375 7.13671875 C-11.92115142 4.71246551 -11.19425364 3.59318399 -9.375 1.875 C-5.71451043 -0.15860532 -4.09503388 -0.69702704 0 0 Z " fill="#104F7F" transform="translate(65,207)"/>
<path d="M0 0 C3.40212299 1.61382757 6.10324519 3.58603766 9 6 C9.66 4.68 10.32 3.36 11 2 C12.32 2.33 13.64 2.66 15 3 C15 6 15 6 13.01220703 8.36010742 C12.10325684 9.26607666 11.19430664 10.1720459 10.2578125 11.10546875 C9.77424286 11.5895369 9.29067322 12.07360504 8.79244995 12.57234192 C7.76870408 13.59374736 6.74126366 14.61146112 5.71044922 15.62573242 C4.12937837 17.18318703 2.5620688 18.75355508 0.99609375 20.32617188 C-6.72096655 28 -6.72096655 28 -9 28 C-9.8466034 26.61217515 -10.67675339 25.21430603 -11.5 23.8125 C-11.9640625 23.03519531 -12.428125 22.25789063 -12.90625 21.45703125 C-14.15160253 18.65943575 -14.4803911 17.02450312 -14 14 C-12.4609375 12.2265625 -12.4609375 12.2265625 -10.375 10.625 C-6.38507913 7.39472599 -3.24378624 3.97363814 0 0 Z " fill="#135C92" transform="translate(301,55)"/>
<path d="M0 0 C0.78133301 0.0002417 1.56266602 0.0004834 2.36767578 0.00073242 C11.43889359 0.26654541 18.18858584 4.0940095 25.25 9.5625 C24.5 11.5 24.5 11.5 23.25 13.5625 C21.37890625 14.3359375 21.37890625 14.3359375 19.25 14.5625 C17.57421875 13.63671875 17.57421875 13.63671875 15.9375 12.25 C9.46223142 7.32167719 2.17224471 6.66175163 -5.75 7.5625 C-11.0402793 9.06659902 -15.44232154 11.13794469 -19.75 14.5625 C-21.07 13.9025 -22.39 13.2425 -23.75 12.5625 C-23.75 11.2425 -23.75 9.9225 -23.75 8.5625 C-16.66392178 2.50980819 -9.27737887 -0.02712684 0 0 Z " fill="#F7FAFC" transform="translate(534.75,307.4375)"/>
<path d="M0 0 C0.639375 0.165 1.27875 0.33 1.9375 0.5 C7.63134491 1.42960733 13.38940676 1.44789503 19 0 C23.18173151 4.46051361 23.34880138 6.39520552 25 13 C15.1 13 5.2 13 -5 13 C-5 6.25 -5 6.25 -2.5 3.125 C-2.0359375 2.52945312 -1.571875 1.93390625 -1.09375 1.3203125 C-0.55234375 0.66675781 -0.55234375 0.66675781 0 0 Z " fill="#F9FBFD" transform="translate(313,387)"/>
<path d="M0 0 C3.45826342 -0.05789006 6.91640293 -0.09355821 10.375 -0.125 C11.35984375 -0.14175781 12.3446875 -0.15851563 13.359375 -0.17578125 C14.77089844 -0.18544922 14.77089844 -0.18544922 16.2109375 -0.1953125 C17.51490479 -0.21102295 17.51490479 -0.21102295 18.84521484 -0.22705078 C21 0 21 0 23 2 C23.18783562 5.07351935 23.25546922 8.05542478 23.23046875 11.12890625 C23.22978142 12.48616066 23.22978142 12.48616066 23.2290802 13.87083435 C23.2260567 15.78491527 23.2181675 17.69899369 23.20581055 19.61303711 C23.18755301 22.55396165 23.18530083 25.49457158 23.18554688 28.43554688 C23.18063186 30.29166941 23.17480362 32.14778979 23.16796875 34.00390625 C23.16685593 34.88929581 23.1657431 35.77468536 23.16459656 36.68690491 C23.11604529 42.88395471 23.11604529 42.88395471 22 44 C20.31391034 44.07205511 18.62499341 44.08386068 16.9375 44.0625 C16.01839844 44.05347656 15.09929687 44.04445313 14.15234375 44.03515625 C13.44207031 44.02355469 12.73179687 44.01195312 12 44 C12.33 42.68 12.66 41.36 13 40 C11.68 40 10.36 40 9 40 C9.33 41.32 9.66 42.64 10 44 C6.37 44 2.74 44 -1 44 C-1 42.02 -1 40.04 -1 38 C6.59 38 14.18 38 22 38 C22 27.11 22 16.22 22 5 C14.41 5 6.82 5 -1 5 C-0.67 3.35 -0.34 1.7 0 0 Z " fill="#2C5B88" transform="translate(204,348)"/>
<path d="M0 0 C1.670625 0.4021875 1.670625 0.4021875 3.375 0.8125 C5.20171197 4.46592394 4.55970722 8.79089159 4.5625 12.8125 C4.57474609 13.740625 4.58699219 14.66875 4.59960938 15.625 C4.60250977 16.9553125 4.60250977 16.9553125 4.60546875 18.3125 C4.60957764 19.1271875 4.61368652 19.941875 4.61791992 20.78125 C4.375 22.8125 4.375 22.8125 2.375 24.8125 C-1.125 25.0625 -1.125 25.0625 -4.625 24.8125 C-7.50095556 21.93654444 -6.91566223 19.60701445 -6.94726562 15.67382812 C-6.94404297 14.75021484 -6.94082031 13.82660156 -6.9375 12.875 C-6.95361328 11.95525391 -6.96972656 11.03550781 -6.98632812 10.08789062 C-6.98697266 9.20423828 -6.98761719 8.32058594 -6.98828125 7.41015625 C-6.99126221 6.60070557 -6.99424316 5.79125488 -6.99731445 4.95727539 C-6.22327062 0.49827533 -4.32465406 -0.223689 0 0 Z " fill="#FBFCFD" transform="translate(215.625,58.1875)"/>
<path d="M0 0 C2.75964853 0.53723607 4.17825785 0.97595291 6.4375 2.6875 C7.80475449 6.24236167 8.03635583 9.37219015 7.375 13.125 C5.9375 15.625 5.9375 15.625 3.375 17.125 C0.2449429 17.72803852 -2.50100818 17.78419094 -5.625 17.125 C-8.65801431 14.6098174 -9.45133819 13.03190056 -10.1875 9.1875 C-9.08697714 3.19576441 -6.25515634 -0.43877932 0 0 Z " fill="#FAFCFD" transform="translate(323.625,368.875)"/>
<path d="M0 0 C0.33 0.66 0.66 1.32 1 2 C1.66 2 2.32 2 3 2 C3.33 1.34 3.66 0.68 4 0 C4 0.66 4 1.32 4 2 C5.3921875 1.7525 5.3921875 1.7525 6.8125 1.5 C10 1 10 1 13 1 C13 1.66 13 2.32 13 3 C13.66 3 14.32 3 15 3 C15.33 2.34 15.66 1.68 16 1 C16.33 1.99 16.66 2.98 17 4 C15.06833984 4.09087891 15.06833984 4.09087891 13.09765625 4.18359375 C11.41925841 4.26798247 9.74087364 4.3526313 8.0625 4.4375 C6.78729492 4.49647461 6.78729492 4.49647461 5.48632812 4.55664062 C4.67744141 4.59853516 3.86855469 4.64042969 3.03515625 4.68359375 C2.2862915 4.72025146 1.53742676 4.75690918 0.76586914 4.79467773 C-1.02461326 4.81771063 -1.02461326 4.81771063 -2 6 C-2.09899523 7.54955559 -2.13079524 9.10353673 -2.1328125 10.65625 C-2.13410156 11.59597656 -2.13539063 12.53570312 -2.13671875 13.50390625 C-2.13285156 14.49261719 -2.12898438 15.48132813 -2.125 16.5 C-2.12886719 17.48871094 -2.13273437 18.47742188 -2.13671875 19.49609375 C-2.13542969 20.43582031 -2.13414062 21.37554687 -2.1328125 22.34375 C-2.13112061 23.64602539 -2.13112061 23.64602539 -2.12939453 24.97460938 C-2.2241537 26.99604154 -2.2241537 26.99604154 -1 28 C0.54955559 28.09899523 2.10353673 28.13079524 3.65625 28.1328125 C4.59597656 28.13410156 5.53570312 28.13539063 6.50390625 28.13671875 C7.98697266 28.13091797 7.98697266 28.13091797 9.5 28.125 C10.48871094 28.12886719 11.47742188 28.13273437 12.49609375 28.13671875 C13.43582031 28.13542969 14.37554687 28.13414062 15.34375 28.1328125 C16.64602539 28.13112061 16.64602539 28.13112061 17.97460938 28.12939453 C19.99604154 28.2241537 19.99604154 28.2241537 21 27 C21.23701239 24.14122091 21.42219182 21.30116703 21.5625 18.4375 C21.60568359 17.63119141 21.64886719 16.82488281 21.69335938 15.99414062 C21.79975262 13.99631195 21.90040888 11.9981793 22 10 C22.66 9.67 23.32 9.34 24 9 C24.66 9.66 25.32 10.32 26 11 C25.34 11 24.68 11 24 11 C24 11.66 24 12.32 24 13 C24.66 13.33 25.32 13.66 26 14 C25.34 14 24.68 14 24 14 C24 14.66 24 15.32 24 16 C24.66 16.33 25.32 16.66 26 17 C25.34 17 24.68 17 24 17 C24 17.66 24 18.32 24 19 C24.66 19.33 25.32 19.66 26 20 C25.34 20 24.68 20 24 20 C24 20.66 24 21.32 24 22 C24.66 22.33 25.32 22.66 26 23 C25.44449305 26.59905908 24.25112752 27.99909799 21.4375 30.25 C20.79683594 30.77078125 20.15617187 31.2915625 19.49609375 31.828125 C19.00238281 32.21484375 18.50867188 32.6015625 18 33 C18 32.34 18 31.68 18 31 C17.34 31 16.68 31 16 31 C15.67 31.99 15.34 32.98 15 34 C15 33.01 15 32.02 15 31 C14.34 31 13.68 31 13 31 C12.67 31.99 12.34 32.98 12 34 C12 33.01 12 32.02 12 31 C11.34 31 10.68 31 10 31 C9.67 31.99 9.34 32.98 9 34 C9 33.01 9 32.02 9 31 C8.34 31 7.68 31 7 31 C6.505 32.485 6.505 32.485 6 34 C6 33.01 6 32.02 6 31 C5.34 31 4.68 31 4 31 C3.505 32.485 3.505 32.485 3 34 C3 33.01 3 32.02 3 31 C2.34 31 1.68 31 1 31 C0.505 32.485 0.505 32.485 0 34 C0 32.68 0 31.36 0 30 C-1.32 29.34 -2.64 28.68 -4 28 C-4 27.34 -4 26.68 -4 26 C-5.32 25.67 -6.64 25.34 -8 25 C-7.01 25 -6.02 25 -5 25 C-5 24.34 -5 23.68 -5 23 C-5.99 22.67 -6.98 22.34 -8 22 C-7.01 22 -6.02 22 -5 22 C-5 21.34 -5 20.68 -5 20 C-5.99 19.67 -6.98 19.34 -8 19 C-7.01 19 -6.02 19 -5 19 C-5 18.34 -5 17.68 -5 17 C-5.99 16.67 -6.98 16.34 -8 16 C-7.01 16 -6.02 16 -5 16 C-5 15.34 -5 14.68 -5 14 C-5.99 13.67 -6.98 13.34 -8 13 C-7.01 13 -6.02 13 -5 13 C-5 12.34 -5 11.68 -5 11 C-5.99 10.67 -6.98 10.34 -8 10 C-7.01 10 -6.02 10 -5 10 C-5 9.34 -5 8.68 -5 8 C-5.66 7.67 -6.32 7.34 -7 7 C-5.47005208 5.76302083 -3.94010417 4.52604167 -2.41015625 3.2890625 C-0.86733563 2.0333609 -0.86733563 2.0333609 0 0 Z " fill="#105890" transform="translate(424,352)"/>
<path d="M0 0 C3.3 0 6.6 0 10 0 C10 5.61 10 11.22 10 17 C13.3 17 16.6 17 20 17 C13.97321429 24.09821429 13.97321429 24.09821429 11 27 C10.34 26.67 9.68 26.34 9 26 C11.97 22.535 11.97 22.535 15 19 C2.13 18.505 2.13 18.505 -11 18 C-11 17.67 -11 17.34 -11 17 C-7.37 17 -3.74 17 0 17 C0 11.39 0 5.78 0 0 Z " fill="#14538C" transform="translate(108,136)"/>
<path d="M0 0 C0.66 0.66 1.32 1.32 2 2 C0.02 2.99 -1.96 3.98 -4 5 C-3.7525 5.9075 -3.505 6.815 -3.25 7.75 C-3 11 -3 11 -4.9375 13.375 C-5.618125 13.91125 -6.29875 14.4475 -7 15 C-8.98 14.34 -10.96 13.68 -13 13 C-13.33 14.32 -13.66 15.64 -14 17 C-17 17 -17 17 -19.6875 14.5 C-20.450625 13.675 -21.21375 12.85 -22 12 C-21.67 11.01 -21.34 10.02 -21 9 C-19.68 9 -18.36 9 -17 9 C-16.79375 8.278125 -16.5875 7.55625 -16.375 6.8125 C-12.70652109 -0.69120686 -7.72605523 -2.33326868 0 0 Z " fill="#F6F9FC" transform="translate(325,44)"/>
<path d="M0 0 C12.87 0 25.74 0 39 0 C39 7.59 39 15.18 39 23 C33.06 23 27.12 23 21 23 C21 24.65 21 26.3 21 28 C22.32 28.33 23.64 28.66 25 29 C21.04 29 17.08 29 13 29 C14.32 28.67 15.64 28.34 17 28 C17 26.35 17 24.7 17 23 C11.39 23 5.78 23 0 23 C0 15.41 0 7.82 0 0 Z M1 1 C1 7.6 1 14.2 1 21 C12.88 21 24.76 21 37 21 C37 14.4 37 7.8 37 1 C25.12 1 13.24 1 1 1 Z " fill="#FFFEFE" transform="translate(562,209)"/>
<path d="M0 0 C2.64 0 5.28 0 8 0 C6.75023244 3.65316671 6.32901247 4.78065836 3 7 C2.505 6.01 2.505 6.01 2 5 C1.48018555 5.28496338 0.96037109 5.56992676 0.42480469 5.86352539 C-12.69117783 13.04832075 -25.8499555 20.14980582 -39.03723145 27.20281982 C-39.91598938 27.67283417 -39.91598938 27.67283417 -40.8125 28.15234375 C-41.39866089 28.46584778 -41.98482178 28.77935181 -42.58874512 29.10235596 C-49.31580764 32.70172287 -56.03332613 36.3187942 -62.75 39.9375 C-64.44721191 40.85184814 -64.44721191 40.85184814 -66.17871094 41.78466797 C-68.78593939 43.18953378 -71.39304926 44.59461894 -74 46 C-73.67 46.99 -73.34 47.98 -73 49 C-75.64 49 -78.28 49 -81 49 C-79.125 44.25 -79.125 44.25 -78 42 C-77.34 42 -76.68 42 -76 42 C-75.67 42.66 -75.34 43.32 -75 44 C-74.25169922 43.58826538 -74.25169922 43.58826538 -73.48828125 43.16821289 C-60.69522484 36.1386351 -47.83741926 29.24053375 -34.93847656 22.40802002 C-22.90670589 16.03311065 -10.92985491 9.56411752 1 3 C0.505 1.515 0.505 1.515 0 0 Z " fill="#4278B8" transform="translate(482,149)"/>
<path d="M0 0 C3.44755063 1.61721466 5.33599345 3.00789643 7.4609375 6.1953125 C5.8109375 7.5153125 4.1609375 8.8353125 2.4609375 10.1953125 C1.8834375 9.7209375 1.3059375 9.2465625 0.7109375 8.7578125 C-3.56646669 5.78739292 -8.42173811 5.46426616 -13.5390625 6.1953125 C-16.11411696 7.30583504 -18.18960252 8.62900585 -20.5390625 10.1953125 C-21.91469104 8.90566074 -23.24672643 7.56841957 -24.5390625 6.1953125 C-24.5390625 5.5353125 -24.5390625 4.8753125 -24.5390625 4.1953125 C-17.02464931 -1.24147224 -9.00053593 -2.85247754 0 0 Z " fill="#F6F9FB" transform="translate(543.5390625,321.8046875)"/>
<path d="M0 0 C2.64 0 5.28 0 8 0 C7.01 0.495 7.01 0.495 6 1 C6 1.66 6 2.32 6 3 C6.67639023 3.10807983 7.35278046 3.21615967 8.04966736 3.32751465 C11.58596793 4.13356286 14.85291661 5.40521866 18.20532227 6.75976562 C18.91163788 7.04115891 19.61795349 7.32255219 20.34567261 7.61247253 C22.67082543 8.53984143 24.99356338 9.47311216 27.31640625 10.40625 C28.93617757 11.05305829 30.55612967 11.69941403 32.17625427 12.34533691 C36.43567446 14.0445304 40.69321198 15.74838627 44.95019531 17.45367432 C51.76690862 20.18402283 58.58556186 22.90949568 65.40589714 25.63078308 C67.78655126 26.58182332 70.16585012 27.53619624 72.5450592 28.49084473 C74.00467891 29.07410305 75.46434732 29.6572395 76.92407227 30.24023438 C77.58443985 30.50623947 78.24480743 30.77224457 78.92518616 31.04631042 C81.91801126 32.23824903 84.84275159 33.33619509 88 34 C88 33.34 88 32.68 88 32 C91.41158256 33.13719419 92.11854601 34.04342944 94 37 C94 37.66 94 38.32 94 39 C91.36 39 88.72 39 86 39 C86.99 38.01 86.99 38.01 88 37 C87.21802246 36.69932617 86.43604492 36.39865234 85.63037109 36.08886719 C70.21361341 30.15537761 54.82604938 24.15984201 39.49987793 17.99584961 C28.38376049 13.52722729 17.21663943 9.20933489 6 5 C6 5.66 6 6.32 6 7 C5.34 7 4.68 7 4 7 C0 2.52941176 0 2.52941176 0 0 Z " fill="#3C74B6" transform="translate(398,258)"/>
<path d="M0 0 C2.94956528 1.36944102 5.52468811 2.87830409 8 5 C8 5.66 8 6.32 8 7 C8.66 7 9.32 7 10 7 C11.65625 8.6796875 11.65625 8.6796875 13.5 10.875 C15.28933258 12.99035504 17.04019124 15.04019124 19 17 C18.625 19.625 18.625 19.625 18 22 C14.87699582 22.32446797 13.44731395 22.32800629 10.87182617 20.43945312 C9.84279175 19.37114258 9.84279175 19.37114258 8.79296875 18.28125 C8.04208984 17.51425781 7.29121094 16.74726562 6.51757812 15.95703125 C5.74865234 15.14621094 4.97972656 14.33539063 4.1875 13.5 C3.00510742 12.28376953 3.00510742 12.28376953 1.79882812 11.04296875 C-0.14581173 9.03940041 -2.07785065 7.02511598 -4 5 C-2.68 3.35 -1.36 1.7 0 0 Z " fill="#F8FAFC" transform="translate(322,56)"/>
<path d="M0 0 C2.64 0 5.28 0 8 0 C5.25 5.875 5.25 5.875 3 7 C3 6.01 3 5.02 3 4 C2.48018555 4.28496338 1.96037109 4.56992676 1.42480469 4.86352539 C-11.69324158 12.04945126 -24.85398915 19.15224172 -38.04354858 26.20597839 C-38.92304672 26.67636284 -38.92304672 26.67636284 -39.8203125 27.15625 C-40.70017319 27.62681572 -40.70017319 27.62681572 -41.59780884 28.10688782 C-49.40879665 32.28625946 -57.20579016 36.49164181 -65.00292969 40.69677734 C-66.02547852 41.2480127 -67.04802734 41.79924805 -68.1015625 42.3671875 C-69.45241943 43.09591064 -69.45241943 43.09591064 -70.83056641 43.83935547 C-72.21079174 44.57777447 -73.59991869 45.29995935 -75 46 C-74.34 46.66 -73.68 47.32 -73 48 C-75.64 48 -78.28 48 -81 48 C-79.68 45.69 -78.36 43.38 -77 41 C-76.67 41.99 -76.34 42.98 -76 44 C-49.96425603 30.06595735 -23.95746418 16.07946448 2 2 C1.01 1.01 1.01 1.01 0 0 Z " fill="#4278B8" transform="translate(242,257)"/>
<path d="M0 0 C-0.33 0.66 -0.66 1.32 -1 2 C25.99049957 12.69083313 52.98373566 23.37441714 80 34 C80 33.34 80 32.68 80 32 C80.66 32 81.32 32 82 32 C83.38938077 33.96147874 84.7260411 35.96166576 86 38 C83.36 38.33 80.72 38.66 78 39 C78 38.01 78 37.02 78 36 C38.4 20.16 38.4 20.16 -2 4 C-2.33 4.66 -2.66 5.32 -3 6 C-3.66 6 -4.32 6 -5 6 C-8 2.53846154 -8 2.53846154 -8 0 C-4.94736336 -0.98120464 -3.05263664 -0.98120464 0 0 Z " fill="#4177B7" transform="translate(160,160)"/>
<path d="M0 0 C8.79196246 -0.44370652 16.53123701 -0.09522096 23.5625 5.6875 C24.7690625 6.8321875 24.7690625 6.8321875 26 8 C25.34 9.32 24.68 10.64 24 12 C20 12 20 12 16.5625 10 C10.97153612 7.06840845 5.15592573 7.18547548 -1 8 C-3.71954432 9.06217892 -5.59784882 10.2918036 -8 12 C-8.66 12 -9.32 12 -10 12 C-8.35 13.65 -6.7 15.3 -5 17 C-4.175 16.34 -3.35 15.68 -2.5 15 C1.18214129 12.56545482 4.69740739 12.28152484 9 13 C11.48334934 13.82152388 13.64936983 14.82468492 16 16 C16 17.32 16 18.64 16 20 C14.02 20.99 14.02 20.99 12 22 C11.67 21.34 11.34 20.68 11 20 C11.99 19.67 12.98 19.34 14 19 C14.33 18.34 14.66 17.68 15 17 C7.51818235 15.77847875 2.56091915 15.02891735 -4 19 C-6.625 19 -6.625 19 -9 18 C-10.8125 15.4375 -10.8125 15.4375 -12 13 C-7.73706346 7.81033813 -1.89833382 5.92965424 4.3125 3.9375 C10.10689449 4.03571008 14.80023382 6.61297284 20 9 C20.99 9.33 21.98 9.66 23 10 C22.505 8.515 22.505 8.515 22 7 C14.48249481 3.2412474 8.23168922 2.85614524 0 3 C0 2.01 0 1.02 0 0 Z " fill="#176AA9" transform="translate(529,314)"/>
<path d="M0 0 C4.99268902 1.47931526 4.99268902 1.47931526 6.375 4 C6.90276637 7.56056467 7.00403915 10.74192169 5.375 14 C2.10044504 15.63727748 -1.11018265 15.75671118 -4.625 15 C-7.35580856 12.61054251 -8.39400145 11.02666021 -9.1875 7.5 C-8.02254303 2.32241345 -5.23369904 0 0 0 Z " fill="#19598B" transform="translate(535.625,125)"/>
<path d="M0 0 C0.93199219 -0.00257813 1.86398437 -0.00515625 2.82421875 -0.0078125 C3.80003906 -0.00007813 4.77585937 0.00765625 5.78125 0.015625 C6.75707031 0.00789063 7.73289062 0.00015625 8.73828125 -0.0078125 C9.67027344 -0.00523437 10.60226562 -0.00265625 11.5625 0 C12.41908203 0.00225586 13.27566406 0.00451172 14.15820312 0.00683594 C16.28125 0.265625 16.28125 0.265625 18.28125 2.265625 C18.54003906 4.38867188 18.54003906 4.38867188 18.546875 6.984375 C18.55074219 8.38236328 18.55074219 8.38236328 18.5546875 9.80859375 C18.54695313 10.78441406 18.53921875 11.76023437 18.53125 12.765625 C18.53898437 13.74144531 18.54671875 14.71726562 18.5546875 15.72265625 C18.55210937 16.65464844 18.54953125 17.58664062 18.546875 18.546875 C18.54461914 19.40345703 18.54236328 20.26003906 18.54003906 21.14257812 C18.28125 23.265625 18.28125 23.265625 16.28125 25.265625 C14.15820312 25.52441406 14.15820312 25.52441406 11.5625 25.53125 C10.63050781 25.53382813 9.69851563 25.53640625 8.73828125 25.5390625 C7.76246094 25.53132813 6.78664063 25.52359375 5.78125 25.515625 C4.80542969 25.52335937 3.82960938 25.53109375 2.82421875 25.5390625 C1.89222656 25.53648437 0.96023438 25.53390625 0 25.53125 C-0.85658203 25.52899414 -1.71316406 25.52673828 -2.59570312 25.52441406 C-4.71875 25.265625 -4.71875 25.265625 -6.71875 23.265625 C-6.97753906 21.14257812 -6.97753906 21.14257812 -6.984375 18.546875 C-6.98695313 17.61488281 -6.98953125 16.68289063 -6.9921875 15.72265625 C-6.98445313 14.74683594 -6.97671875 13.77101563 -6.96875 12.765625 C-6.97648437 11.78980469 -6.98421875 10.81398438 -6.9921875 9.80859375 C-6.98960937 8.87660156 -6.98703125 7.94460938 -6.984375 6.984375 C-6.98211914 6.12779297 -6.97986328 5.27121094 -6.97753906 4.38867188 C-6.43907301 -0.02878174 -3.80003343 0.01000761 0 0 Z M-4.71875 3.265625 C-4.74763514 6.41143923 -4.76550923 9.55721969 -4.78125 12.703125 C-4.78962891 13.60095703 -4.79800781 14.49878906 -4.80664062 15.42382812 C-4.80986328 16.27783203 -4.81308594 17.13183594 -4.81640625 18.01171875 C-4.82164307 18.80247803 -4.82687988 19.5932373 -4.83227539 20.40795898 C-4.92370909 22.28155189 -4.92370909 22.28155189 -3.71875 23.265625 C-2.31526265 23.36422631 -0.90694523 23.39641437 0.5 23.3984375 C1.34949219 23.39972656 2.19898438 23.40101563 3.07421875 23.40234375 C3.96753906 23.39847656 4.86085938 23.39460938 5.78125 23.390625 C7.12123047 23.39642578 7.12123047 23.39642578 8.48828125 23.40234375 C9.76251953 23.40041016 9.76251953 23.40041016 11.0625 23.3984375 C11.84689453 23.39730957 12.63128906 23.39618164 13.43945312 23.39501953 C15.29877988 23.46669942 15.29877988 23.46669942 16.28125 22.265625 C16.40792764 19.27544339 16.46645838 16.31868392 16.46875 13.328125 C16.48711914 12.07225586 16.48711914 12.07225586 16.50585938 10.79101562 C16.50779297 9.98986328 16.50972656 9.18871094 16.51171875 8.36328125 C16.51582764 7.62601807 16.51993652 6.88875488 16.52416992 6.12915039 C16.44179222 4.01965194 16.44179222 4.01965194 14.28125 2.265625 C11.4106034 2.0935029 8.64872658 2.03339425 5.78125 2.078125 C4.60369141 2.0790918 4.60369141 2.0790918 3.40234375 2.08007812 C-0.79217326 2.01337221 -0.79217326 2.01337221 -4.71875 3.265625 Z " fill="#93B5CE" transform="translate(427.71875,355.734375)"/>
<path d="M0 0 C0.66 0.33 1.32 0.66 2 1 C1.67 1.33 1.34 1.66 1 2 C34.66 2 68.32 2 103 2 C102.505 1.01 102.505 1.01 102 0 C103.98 0.66 105.96 1.32 108 2 C108 2.99 108 3.98 108 5 C107.01 5.66 106.02 6.32 105 7 C104.01 6.67 103.02 6.34 102 6 C102.33 5.67 102.66 5.34 103 5 C69.34 5 35.68 5 1 5 C1.33 5.66 1.66 6.32 2 7 C-0.02045442 6.39816251 -2.02111039 5.72693904 -4 5 C-4.33 4.34 -4.66 3.68 -5 3 C-2.625 1.4375 -2.625 1.4375 0 0 Z " fill="#1155A6" transform="translate(417,226)"/>
<path d="M0 0 C0.66 0.33 1.32 0.66 2 1 C1.67 1.33 1.34 1.66 1 2 C34.33 2 67.66 2 102 2 C102 1.34 102 0.68 102 0 C104.91517292 1.07401108 106.77810176 1.77810176 109 4 C107.1875 5.5625 107.1875 5.5625 105 7 C104.01 6.67 103.02 6.34 102 6 C102.66 6 103.32 6 104 6 C104 5.34 104 4.68 104 4 C69.68 4 35.36 4 0 4 C0 4.66 0 5.32 0 6 C0.66 6.33 1.32 6.66 2 7 C-1.26954202 6.43628586 -2.82575883 5.50037734 -5 3 C-2.625 1.4375 -2.625 1.4375 0 0 Z " fill="#175AA7" transform="translate(127,225)"/>
<path d="M0 0 C0.99 0 1.98 0 3 0 C3.36031186 5.06438342 3.51967498 8.90290837 1.3125 13.5625 C-1.20171045 16.21261372 -2.40668306 16.80037128 -6 17 C-6 18.65 -6 20.3 -6 22 C-4.68 22 -3.36 22 -2 22 C-2 22.66 -2 23.32 -2 24 C-5.63 24 -9.26 24 -13 24 C-13 23.34 -13 22.68 -13 22 C-11.68 22 -10.36 22 -9 22 C-9 20.35 -9 18.7 -9 17 C-9.7425 16.95875 -10.485 16.9175 -11.25 16.875 C-14 16 -14 16 -16.3125 13.5 C-18.42155329 9.12566725 -18.38082175 5.76027183 -18 1 C-17.01 1 -16.02 1 -15 1 C-14.96261719 1.68707031 -14.92523438 2.37414062 -14.88671875 3.08203125 C-14.82097656 3.98308594 -14.75523437 4.88414063 -14.6875 5.8125 C-14.62949219 6.70582031 -14.57148438 7.59914063 -14.51171875 8.51953125 C-13.92578626 11.35973838 -13.34066384 12.32497949 -11 14 C-6.4169464 14.57939952 -6.4169464 14.57939952 -2.32421875 12.83203125 C-0.51660094 10.33122667 -0.49234173 8.36980945 -0.3125 5.3125 C-0.24675781 4.31863281 -0.18101562 3.32476562 -0.11328125 2.30078125 C-0.07589844 1.54152344 -0.03851563 0.78226562 0 0 Z " fill="#DAE7F1" transform="translate(222,70)"/>
<path d="M0 0 C0.33 0 0.66 0 1 0 C1.02505615 0.60062256 1.0501123 1.20124512 1.07592773 1.82006836 C1.1915528 4.52611437 1.31442936 7.23178283 1.4375 9.9375 C1.47681641 10.88302734 1.51613281 11.82855469 1.55664062 12.80273438 C1.61948242 14.15141602 1.61948242 14.15141602 1.68359375 15.52734375 C1.72025146 16.35999756 1.75690918 17.19265137 1.79467773 18.05053711 C1.79367103 20.00338858 1.79367103 20.00338858 3 21 C6.45812169 21.33338596 6.45812169 21.33338596 10 21 C11.93395001 18.09907498 12.30131941 17.10325263 12.625 13.8125 C12.74875 12.554375 12.8725 11.29625 13 10 C13.33 10 13.66 10 14 10 C14.61593211 18.96523405 14.61593211 18.96523405 12.4375 22.625 C9.03897329 24.54211763 6.84031465 24.54861638 3 24 C0.5625 22.625 0.5625 22.625 -1 20 C-1.32131194 16.63939316 -1.23114045 13.36437766 -1 10 C-1.99 10 -2.98 10 -4 10 C-3.70887831 16.41923331 -2.54784971 20.62100206 1 26 C-1.97577944 24.97386916 -2.97754061 24.03368909 -4.75 21.375 C-6.27728895 17.25131983 -6.22586715 14.36676486 -6 10 C-6.99 10.99 -7.98 11.98 -9 13 C-9.66 12.67 -10.32 12.34 -11 12 C-10.37351563 11.38511719 -9.74703125 10.77023438 -9.1015625 10.13671875 C-8.28429687 9.32847656 -7.46703125 8.52023438 -6.625 7.6875 C-5.40683594 6.48673828 -5.40683594 6.48673828 -4.1640625 5.26171875 C-1.87395158 2.99990063 -1.87395158 2.99990063 0 0 Z " fill="#185D97" transform="translate(208,61)"/>
<path d="M0 0 C0.98120464 3.05263664 0.98120464 4.94736336 0 8 C-0.99 7.67 -1.98 7.34 -3 7 C-3.39678955 7.53254395 -3.7935791 8.06508789 -4.20239258 8.61376953 C-12.334237 19.5180203 -20.5259339 30.35896897 -29 41 C-28.34 41.66 -27.68 42.32 -27 43 C-29.31 43.99 -31.62 44.98 -34 46 C-33.67 43.36 -33.34 40.72 -33 38 C-32.34 38.66 -31.68 39.32 -31 40 C-23.97691978 31.02850056 -16.9786539 22.03942033 -10.125 12.9375 C-9.60776367 12.25365234 -9.09052734 11.56980469 -8.55761719 10.86523438 C-6.11760544 8.18856409 -6.11760544 8.18856409 -5 5 C-5.66 5 -6.32 5 -7 5 C-7 4.34 -7 3.68 -7 3 C-4.69 2.01 -2.38 1.02 0 0 Z " fill="#3F76B7" transform="translate(280,294)"/>
<path d="M0 0 C0 2.64 0 5.28 0 8 C-0.66 8 -1.32 8 -2 8 C-2.33 7.34 -2.66 6.68 -3 6 C-3.74830078 7.00353516 -3.74830078 7.00353516 -4.51171875 8.02734375 C-8.10066355 12.82763796 -11.70015851 17.61802685 -15.3515625 22.37109375 C-16.21068237 23.48979858 -16.21068237 23.48979858 -17.0871582 24.63110352 C-18.21684426 26.10031882 -19.3481319 27.56830438 -20.48120117 29.03491211 C-23.47940297 32.93481498 -26.32660577 36.87015614 -29 41 C-28.34 41 -27.68 41 -27 41 C-27 41.66 -27 42.32 -27 43 C-29.31 43.66 -31.62 44.32 -34 45 C-34 42.69 -34 40.38 -34 38 C-33.01 37.505 -33.01 37.505 -32 37 C-31.67 37.66 -31.34 38.32 -31 39 C-21.93468961 27.38269908 -12.93138215 15.72058454 -4 4 C-4.99 3.67 -5.98 3.34 -7 3 C-1.125 0 -1.125 0 0 0 Z " fill="#4077B7" transform="translate(410,114)"/>
<path d="M0 0 C2.64 0.66 5.28 1.32 8 2 C7.01 2.33 6.02 2.66 5 3 C5 3.66 5 4.32 5 5 C5.56203125 5.22429687 6.1240625 5.44859375 6.703125 5.6796875 C9.68618424 7.39443924 11.47933018 9.53700055 13.75 12.125 C20.83441142 20.0767121 28.42584944 27.51872245 36 35 C36.495 34.01 36.495 34.01 37 33 C37.66 33 38.32 33 39 33 C39.495 36.96 39.495 36.96 40 41 C37.69 40.34 35.38 39.68 33 39 C33.495 38.01 33.495 38.01 34 37 C30.90528882 32.96185894 27.52694476 29.39533904 23.921875 25.82421875 C23.35043762 25.25419632 22.77900024 24.68417389 22.19024658 24.09687805 C20.37918151 22.291374 18.56465623 20.48939392 16.75 18.6875 C15.51539408 17.45791412 14.28101667 16.22809873 13.046875 14.99804688 C10.03388726 11.99603639 7.01779297 8.99717963 4 6 C3.34 6.66 2.68 7.32 2 8 C1.34 5.36 0.68 2.72 0 0 Z " fill="#316CB1" transform="translate(365,292)"/>
<path d="M0 0 C2.64 0.33 5.28 0.66 8 1 C8 1.66 8 2.32 8 3 C7.01 3.495 7.01 3.495 6 4 C15.9 13.9 25.8 23.8 36 34 C36.99 33.67 37.98 33.34 39 33 C39.495 36.465 39.495 36.465 40 40 C37.69 39.67 35.38 39.34 33 39 C33 38.34 33 37.68 33 37 C33.66 37 34.32 37 35 37 C28.94373536 29.74491663 22.26365431 23.14877838 15.5625 16.5 C14.4379167 15.38044368 13.31356595 14.26065371 12.18945312 13.140625 C9.46230656 10.42438466 6.73204093 7.71131708 4 5 C3.34 5.66 2.68 6.32 2 7 C1.34 4.69 0.68 2.38 0 0 Z " fill="#306BB1" transform="translate(228,119)"/>
<path d="M0 0 C3.56514876 1.53613553 6.03870356 3.6838452 8.875 6.3125 C12.51040019 9.64674278 16.1782939 12.8822924 20 16 C19.01 16.33 18.02 16.66 17 17 C16.55269531 16.51789063 16.10539062 16.03578125 15.64453125 15.5390625 C12.25994239 12.00292488 9.71976909 9.57325636 5 8 C3.1875 6.375 3.1875 6.375 2 5 C-0.48620049 6.06551449 -2.03717151 7.03837059 -3.9375 9 C-6.21047321 11.20409523 -8.09262214 11.83704886 -11 13 C-13.27191416 15.02040748 -13.27191416 15.02040748 -15 17 C-15.99 16.67 -16.98 16.34 -18 16 C-15.93942825 14.08122455 -13.87662937 12.16494202 -11.8125 10.25 C-11.23435547 9.71117188 -10.65621094 9.17234375 -10.06054688 8.6171875 C-6.80637122 5.60201909 -3.50844332 2.72218201 0 0 Z " fill="#8EA8C0" transform="translate(112,114)"/>
<path d="M0 0 C0.66 0 1.32 0 2 0 C5 4.38461538 5 4.38461538 5 7 C4.34 7 3.68 7 3 7 C3 15.58 3 24.16 3 33 C3.66 33 4.32 33 5 33 C3.125 37.75 3.125 37.75 2 40 C1.01 39.67 0.02 39.34 -1 39 C-2.1875 35.9375 -2.1875 35.9375 -3 33 C-2.34 33 -1.68 33 -1 33 C-1 24.42 -1 15.84 -1 7 C-1.66 7 -2.32 7 -3 7 C-1.125 2.25 -1.125 2.25 0 0 Z " fill="#5082BD" transform="translate(322,109)"/>
<path d="M0 0 C2.0625 2.3125 2.0625 2.3125 4 5 C3.67 5.99 3.34 6.98 3 8 C2.67 7.67 2.34 7.34 2 7 C2 15.91 2 24.82 2 34 C2.66 34 3.32 34 4 34 C2.92598892 36.91517292 2.22189824 38.77810176 0 41 C-1.5625 38.625 -1.5625 38.625 -3 36 C-2.67 35.34 -2.34 34.68 -2 34 C-1.90280009 31.99144648 -1.86923467 29.979653 -1.8671875 27.96875 C-1.86589844 26.76605469 -1.86460937 25.56335938 -1.86328125 24.32421875 C-1.86714844 23.06222656 -1.87101562 21.80023438 -1.875 20.5 C-1.87113281 19.23800781 -1.86726563 17.97601563 -1.86328125 16.67578125 C-1.86521484 14.87173828 -1.86521484 14.87173828 -1.8671875 13.03125 C-1.86831543 11.92330078 -1.86944336 10.81535156 -1.87060547 9.67382812 C-1.81848531 7.02681484 -1.81848531 7.02681484 -3 5 C-1.5625 2.375 -1.5625 2.375 0 0 Z " fill="#5A8AC1" transform="translate(323,300)"/>
<path d="M0 0 C0 13.53 0 27.06 0 41 C-0.33 41 -0.66 41 -1 41 C-1.33 29.45 -1.66 17.9 -2 6 C-6.19093221 9.59222761 -10.10213793 12.98063236 -13.9375 16.875 C-14.70964844 17.65617187 -15.48179687 18.43734375 -16.27734375 19.2421875 C-16.84582031 19.82226562 -17.41429687 20.40234375 -18 21 C-18.33 20.01 -18.66 19.02 -19 18 C-16.02484693 14.99599642 -13.04422593 11.99747845 -10.0625 9 C-9.21236328 8.14148438 -8.36222656 7.28296875 -7.48632812 6.3984375 C-6.67744141 5.58632813 -5.86855469 4.77421875 -5.03515625 3.9375 C-4.2862915 3.18339844 -3.53742676 2.42929687 -2.76586914 1.65234375 C-1 0 -1 0 0 0 Z " fill="#0B518B" transform="translate(201,350)"/>
<path d="M0 0 C0.33 0 0.66 0 1 0 C1 7.59 1 15.18 1 23 C-4.94 23 -10.88 23 -17 23 C-17 24.65 -17 26.3 -17 28 C-15.68 28.33 -14.36 28.66 -13 29 C-16.96 29 -20.92 29 -25 29 C-23.68 28.67 -22.36 28.34 -21 28 C-21 26.35 -21 24.7 -21 23 C-26.61 23 -32.22 23 -38 23 C-38 22.67 -38 22.34 -38 22 C-25.19432385 21.16841361 -12.79950362 20.99829972 0 22 C0 14.74 0 7.48 0 0 Z " fill="#D1E3F1" transform="translate(600,209)"/>
<path d="M0 0 C4.49342843 2.1284661 6.95569733 4.45710517 9 9 C9 10.32 9 11.64 9 13 C8.34 13 7.68 13 7 13 C6.67 13.66 6.34 14.32 6 15 C5.79375 13.7625 5.5875 12.525 5.375 11.25 C4.51711981 7.91314187 4.02072054 7.02021516 1.4375 4.5 C-2.87648232 2.61753499 -6.36289696 2.12733485 -11 3 C-13.94900524 4.72376805 -13.94900524 4.72376805 -16 7 C-16.66 7.66 -17.32 8.32 -18 9 C-18.66 9 -19.32 9 -20 9 C-19.09447999 5.74012795 -18.06692589 4.06516468 -15.625 1.6875 C-10.39431435 -0.74747435 -5.67670172 -0.77091011 0 0 Z " fill="#ECF3F9" transform="translate(439,56)"/>
<path d="M0 0 C1.98 0 3.96 0 6 0 C6 4.95 6 9.9 6 15 C4.02 15 2.04 15 0 15 C0 10.05 0 5.1 0 0 Z " fill="#F4F7F9" transform="translate(110,138)"/>
<path d="M0 0 C2.1875 0.5625 2.1875 0.5625 4.1875 2.5625 C4.59375 4.88671875 4.59375 4.88671875 4.1875 7.5625 C2.21875 10.01953125 2.21875 10.01953125 -0.3125 12.375 C-1.1478125 13.16519531 -1.983125 13.95539062 -2.84375 14.76953125 C-3.4934375 15.36121094 -4.143125 15.95289063 -4.8125 16.5625 C-5.8025 16.2325 -6.7925 15.9025 -7.8125 15.5625 C-7.07 14.840625 -6.3275 14.11875 -5.5625 13.375 C-3.11959485 10.87657427 -0.9443953 8.32606798 1.1875 5.5625 C-1.05675432 5.05700706 -1.05675432 5.05700706 -3.8125 5.5625 C-5.54119444 7.00800978 -6.9951277 8.55694635 -8.48046875 10.25 C-9.8125 11.5625 -9.8125 11.5625 -11.8125 11.5625 C-9.52091489 6.46005433 -5.69455103 1.13891021 0 0 Z " fill="#F3F8FB" transform="translate(338.8125,44.4375)"/>
<path d="M0 0 C2.64 0 5.28 0 8 0 C7.01 0.495 7.01 0.495 6 1 C6 1.66 6 2.32 6 3 C6.68860107 3.11335693 7.37720215 3.22671387 8.08666992 3.34350586 C11.42652528 4.09611384 14.43122438 5.23980147 17.61328125 6.50390625 C18.22769577 6.7466478 18.84211029 6.98938934 19.47514343 7.23948669 C21.42251559 8.0098905 23.36751397 8.78609451 25.3125 9.5625 C26.63851895 10.08827647 27.96468936 10.61367113 29.29101562 11.13867188 C32.52910808 12.4213679 35.76509885 13.70927349 39 15 C39 15.66 39 16.32 39 17 C31.73246312 14.63862366 24.58494298 12.013794 17.4375 9.3125 C16.33341797 8.89677734 15.22933594 8.48105469 14.09179688 8.05273438 C11.3939582 7.03666526 8.69671155 6.01905595 6 5 C6 5.66 6 6.32 6 7 C5.34 7 4.68 7 4 7 C0 2.52941176 0 2.52941176 0 0 Z " fill="#447AB8" transform="translate(398,258)"/>
<path d="M0 0 C0.33 0.66 0.66 1.32 1 2 C1.66 2 2.32 2 3 2 C3.33 1.34 3.66 0.68 4 0 C4 0.66 4 1.32 4 2 C5.3921875 1.7525 5.3921875 1.7525 6.8125 1.5 C10 1 10 1 13 1 C13 1.66 13 2.32 13 3 C13.66 3 14.32 3 15 3 C15.33 2.34 15.66 1.68 16 1 C16.33 1.99 16.66 2.98 17 4 C15.06833984 4.09087891 15.06833984 4.09087891 13.09765625 4.18359375 C11.41925841 4.26798247 9.74087364 4.3526313 8.0625 4.4375 C6.78729492 4.49647461 6.78729492 4.49647461 5.48632812 4.55664062 C4.67744141 4.59853516 3.86855469 4.64042969 3.03515625 4.68359375 C2.2862915 4.72025146 1.53742676 4.75690918 0.76586914 4.79467773 C-1.02461326 4.81771063 -1.02461326 4.81771063 -2 6 C-2.23481693 8.18292774 -2.41363323 10.37203174 -2.5625 12.5625 C-2.68818359 14.35880859 -2.68818359 14.35880859 -2.81640625 16.19140625 C-2.87699219 17.11824219 -2.93757813 18.04507812 -3 19 C-3.33 18.34 -3.66 17.68 -4 17 C-6.02463255 16.34786708 -6.02463255 16.34786708 -8 16 C-7.01 16 -6.02 16 -5 16 C-5 15.34 -5 14.68 -5 14 C-5.99 13.67 -6.98 13.34 -8 13 C-7.01 13 -6.02 13 -5 13 C-5 12.34 -5 11.68 -5 11 C-5.99 10.67 -6.98 10.34 -8 10 C-7.01 10 -6.02 10 -5 10 C-5 9.34 -5 8.68 -5 8 C-5.66 7.67 -6.32 7.34 -7 7 C-5.47005208 5.76302083 -3.94010417 4.52604167 -2.41015625 3.2890625 C-0.86733563 2.0333609 -0.86733563 2.0333609 0 0 Z " fill="#0C4F8B" transform="translate(424,352)"/>
<path d="M0 0 C6.40624592 5.26735775 12.18674785 11.09998289 18 17 C18.66 17.66 19.32 18.32 20 19 C17.36 21.64 14.72 24.28 12 27 C11.34 26.67 10.68 26.34 10 26 C11.98 24.02 13.96 22.04 16 20 C14.52278578 16.54798361 12.56205999 14.35038064 9.875 11.75 C9.15054687 11.04359375 8.42609375 10.3371875 7.6796875 9.609375 C7.12539063 9.07828125 6.57109375 8.5471875 6 8 C3.69 10.31 1.38 12.62 -1 15 C-1 10.61031544 1.12805101 9.23094261 4 6 C2.02 6.33 0.04 6.66 -2 7 C-1.2265625 6.1028125 -1.2265625 6.1028125 -0.4375 5.1875 C0.036875 4.465625 0.51125 3.74375 1 3 C0.67 2.01 0.34 1.02 0 0 Z " fill="#0B497B" transform="translate(318,61)"/>
<path d="M0 0 C5.2953712 -0.50432107 7.86704506 0.71242221 12 4 C14.29013653 7.4352048 14.17842973 8.985331 14 13 C13.34 13 12.68 13 12 13 C12 20.26 12 27.52 12 35 C11.34 34.67 10.68 34.34 10 34 C9.94197302 30.56257082 9.90639514 27.12526747 9.875 23.6875 C9.85824219 22.71103516 9.84148437 21.73457031 9.82421875 20.72851562 C9.81777344 19.79072266 9.81132812 18.85292969 9.8046875 17.88671875 C9.79421387 17.02264404 9.78374023 16.15856934 9.77294922 15.26831055 C10 13 10 13 12 10 C11.13082602 7.00204366 11.13082602 7.00204366 9 4 C6.09453062 2.59362918 3.13359225 1.74890884 0 1 C0 0.67 0 0.34 0 0 Z " fill="#0F5286" transform="translate(431,58)"/>
<path d="M0 0 C0.680625 -0.01675781 1.36125 -0.03351563 2.0625 -0.05078125 C4 0.3125 4 0.3125 7 3.3125 C5.02 5.2925 3.04 7.2725 1 9.3125 C-2.7952131 7.82152342 -4.61042731 5.55549151 -7 2.3125 C-4.03082597 0.33305064 -3.34297721 0.01899419 0 0 Z " fill="#F3F8FC" transform="translate(535,333.6875)"/>
<path d="M0 0 C8.79196246 -0.44370652 16.53123701 -0.09522096 23.5625 5.6875 C24.7690625 6.8321875 24.7690625 6.8321875 26 8 C25.34 9.32 24.68 10.64 24 12 C20.13209997 12 18.98680587 11.72629646 15.75 10 C15.04359375 9.62875 14.3371875 9.2575 13.609375 8.875 C13.07828125 8.58625 12.5471875 8.2975 12 8 C13.8359375 7.41015625 13.8359375 7.41015625 16 7 C18.625 8.4375 18.625 8.4375 21 10 C21.66 10 22.32 10 23 10 C22.67 9.01 22.34 8.02 22 7 C14.48249481 3.2412474 8.23168922 2.85614524 0 3 C0 2.01 0 1.02 0 0 Z " fill="#185484" transform="translate(529,314)"/>
<path d="M0 0 C0.99 0.33 1.98 0.66 3 1 C2.21625 1.556875 1.4325 2.11375 0.625 2.6875 C-2.08704858 5.07668565 -2.96133543 6.60073413 -4 10 C-3.34 10.66 -2.68 11.32 -2 12 C-1.77294922 14.15478516 -1.77294922 14.15478516 -1.8046875 16.7890625 C-1.81113281 17.73007813 -1.81757813 18.67109375 -1.82421875 19.640625 C-1.84097656 20.62546875 -1.85773438 21.6103125 -1.875 22.625 C-1.88402344 23.61757812 -1.89304687 24.61015625 -1.90234375 25.6328125 C-1.92595884 28.08878134 -1.95889201 30.54427168 -2 33 C-2.66 33 -3.32 33 -4 33 C-4 26.07 -4 19.14 -4 12 C-4.66 12 -5.32 12 -6 12 C-6.35671933 8.16526716 -6.29771416 6.44657125 -4.125 3.1875 C-2 1 -2 1 0 0 Z " fill="#1067A8" transform="translate(427,59)"/>
<path d="M0 0 C0.33 0 0.66 0 1 0 C1.12117188 0.62648438 1.24234375 1.25296875 1.3671875 1.8984375 C1.53476562 2.71570313 1.70234375 3.53296875 1.875 4.375 C2.11863281 5.59316406 2.11863281 5.59316406 2.3671875 6.8359375 C2.86658932 9.18673923 2.86658932 9.18673923 5 11 C7.20250992 11.46006346 7.20250992 11.46006346 9.625 11.625 C10.44226563 11.69976562 11.25953125 11.77453125 12.1015625 11.8515625 C12.72804688 11.90054687 13.35453125 11.94953125 14 12 C11.88400274 14.37343313 11.35466273 14.95472391 8.0625 15.375 C4.61606674 14.95298776 3.35616766 14.52446535 1 12 C-0.25 8.8125 -0.25 8.8125 -1 6 C-1.45890625 6.40992188 -1.9178125 6.81984375 -2.390625 7.2421875 C-3.00421875 7.78101563 -3.6178125 8.31984375 -4.25 8.875 C-5.15492188 9.67550781 -5.15492188 9.67550781 -6.078125 10.4921875 C-7.97418746 11.9797487 -9.81290005 13.00322436 -12 14 C-10.57757077 12.34049923 -9.15484775 10.68126579 -7.73046875 9.0234375 C-6.5812117 7.67961097 -5.43791326 6.33066453 -4.30078125 4.9765625 C-3.76839844 4.34492188 -3.23601562 3.71328125 -2.6875 3.0625 C-1.95080078 2.18271484 -1.95080078 2.18271484 -1.19921875 1.28515625 C-0.80347656 0.86105469 -0.40773438 0.43695313 0 0 Z " fill="#105589" transform="translate(313,374)"/>
<path d="M0 0 C6.93 0 13.86 0 21 0 C21 1.32 21 2.64 21 4 C14.07 4 7.14 4 0 4 C0 2.68 0 1.36 0 0 Z " fill="#4D789B" transform="translate(204,348)"/>
<path d="M0 0 C0.33 0.99 0.66 1.98 1 3 C-6.26 10.26 -13.52 17.52 -21 25 C-21.66 24.34 -22.32 23.68 -23 23 C-15.41 15.41 -7.82 7.82 0 0 Z " fill="#11598F" transform="translate(317,61)"/>
<path d="M0 0 C5.61 0 11.22 0 17 0 C12.30233025 5.66129431 7.25276628 10.85228904 2 16 C1.34 15.67 0.68 15.34 0 15 C0.85464844 14.15695313 1.70929687 13.31390625 2.58984375 12.4453125 C3.70586047 11.33867407 4.82173872 10.23189598 5.9375 9.125 C6.50146484 8.56941406 7.06542969 8.01382813 7.64648438 7.44140625 C10.69860028 4.5078429 10.69860028 4.5078429 13 1 C9.7 1 6.4 1 3 1 C3 1.66 3 2.32 3 3 C4.32 3.66 5.64 4.32 7 5 C6.34 5.66 5.68 6.32 5 7 C5 6.34 5 5.68 5 5 C3.35 5 1.7 5 0 5 C0 3.35 0 1.7 0 0 Z " fill="#0C5087" transform="translate(583,232)"/>
<path d="M0 0 C20.13 0 40.26 0 61 0 C60.01 0.99 59.02 1.98 58 3 C57.505 2.505 57.505 2.505 57 2 C55.22096643 1.87677242 53.43713797 1.82210981 51.65405273 1.79467773 C50.5129454 1.77473251 49.37183807 1.75478729 48.19615173 1.73423767 C46.33368553 1.70916893 46.33368553 1.70916893 44.43359375 1.68359375 C43.16983414 1.66281265 41.90607452 1.64203156 40.60401917 1.62062073 C37.23881367 1.56616286 33.87359827 1.5159572 30.50830078 1.46777344 C27.07644099 1.41760241 23.64467169 1.36189345 20.21289062 1.30664062 C13.47533239 1.19929809 6.73770664 1.09755675 0 1 C0 0.67 0 0.34 0 0 Z " fill="#00599B" transform="translate(294,249)"/>
<path d="M0 0 C3 0.125 3 0.125 4 1.125 C4.125 4.125 4.125 4.125 4 7.125 C3 8.125 3 8.125 0.0625 8.3125 C-3 8.125 -3 8.125 -5 6.125 C-4.27477017 0.17811542 -4.27477017 0.17811542 0 0 Z " fill="#F4F6F9" transform="translate(535,128.875)"/>
<path d="M0 0 C1 2 1 2 0.8125 5.625 C0.71960663 9.88261296 2.02405868 12.55772525 4.22265625 16.140625 C5.20025264 18.47899626 4.82528183 19.65391581 4 22 C3.20576139 20.43880578 2.41472877 18.87598036 1.625 17.3125 C1.18414062 16.44238281 0.74328125 15.57226562 0.2890625 14.67578125 C-0.9190543 12.16802364 -1.96619922 9.58450196 -3 7 C-5.64 9.64 -8.28 12.28 -11 15 C-11.66 14.67 -12.32 14.34 -13 14 C-12.22914062 13.24074219 -11.45828125 12.48148438 -10.6640625 11.69921875 C-9.65090904 10.69544634 -8.63789552 9.69153268 -7.625 8.6875 C-7.11710937 8.18798828 -6.60921875 7.68847656 -6.0859375 7.17382812 C-3.77145867 4.87457613 -1.81652517 2.72478775 0 0 Z " fill="#0E538A" transform="translate(51,211)"/>
<path d="M0 0 C3.56514876 1.53613553 6.03870356 3.6838452 8.875 6.3125 C12.51040019 9.64674278 16.1782939 12.8822924 20 16 C19.01 16.33 18.02 16.66 17 17 C16.5875 16.57589844 16.175 16.15179688 15.75 15.71484375 C11.35149565 11.24761277 6.76527863 7.0721472 2 3 C1.38640625 3.31710938 0.7728125 3.63421875 0.140625 3.9609375 C-1.90994021 4.95628485 -3.77922017 5.52411861 -6 6 C-4 4 -2 2 0 0 Z " fill="#F0F6FB" transform="translate(112,114)"/>
<path d="M0 0 C3.63 0.33 7.26 0.66 11 1 C11 2.65 11 4.3 11 6 C7.37 6 3.74 6 0 6 C0 4.02 0 2.04 0 0 Z " fill="#105B97" transform="translate(203,386)"/>
<path d="M0 0 C2.29823659 2.29823659 2.29690384 2.94880882 2.5625 6.0625 C2.55913448 9.76736617 2.55913448 9.76736617 4 11 C5.34747084 11.23075082 6.70377565 11.41153063 8.0625 11.5625 C9.361875 11.706875 10.66125 11.85125 12 12 C11.67 12.66 11.34 13.32 11 14 C10.34 14 9.68 14 9 14 C8.67 14.99 8.34 15.98 8 17 C8 16.01 8 15.02 8 14 C7.34 14 6.68 14 6 14 C5.67 14.99 5.34 15.98 5 17 C5 15.68 5 14.36 5 13 C3.68 12.34 2.36 11.68 1 11 C1 10.34 1 9.68 1 9 C-0.32 8.67 -1.64 8.34 -3 8 C-2.01 8 -1.02 8 0 8 C0 7.34 0 6.68 0 6 C-0.99 5.67 -1.98 5.34 -3 5 C-2.01 5 -1.02 5 0 5 C0 4.34 0 3.68 0 3 C-0.99 2.67 -1.98 2.34 -3 2 C-2.01 2 -1.02 2 0 2 C0 1.34 0 0.68 0 0 Z " fill="#0B67AF" transform="translate(419,369)"/>
<path d="M0 0 C2 1 2 1 4 3 C4.70327107 6.55336959 4.6485495 9.77920094 2.9375 13 C-0.02087678 14.52690415 -2.73716599 14.18468872 -6 14 C-5.38125 13.71125 -4.7625 13.4225 -4.125 13.125 C-1.86674235 12.06279958 -1.86674235 12.06279958 0 10 C0.16681109 7.08347826 0.16681109 7.08347826 0 4 C0 2.68 0 1.36 0 0 Z " fill="#0F4979" transform="translate(538,126)"/>
<path d="M0 0 C-1.65 1.65 -3.3 3.3 -5 5 C-5 4.01 -5 3.02 -5 2 C-12.92 2 -20.84 2 -29 2 C-29 1.67 -29 1.34 -29 1 C-19.29821771 0.2390759 -9.73524288 -0.13500337 0 0 Z " fill="#0F5A92" transform="translate(337,400)"/>
<path d="M0 0 C0.66 0.66 1.32 1.32 2 2 C-1.96 3.98 -1.96 3.98 -6 6 C-5.67 6.99 -5.34 7.98 -5 9 C-7.64 9 -10.28 9 -13 9 C-11.125 4.25 -11.125 4.25 -10 2 C-9.34 2 -8.68 2 -8 2 C-7.67 2.66 -7.34 3.32 -7 4 C-4.69 2.68 -2.38 1.36 0 0 Z " fill="#5183BD" transform="translate(414,189)"/>
<path d="M0 0 C3.3 0 6.6 0 10 0 C10 1.65 10 3.3 10 5 C6.7 5 3.4 5 0 5 C0 3.35 0 1.7 0 0 Z " fill="#00417B" transform="translate(216,387)"/>
<path d="M0 0 C0.99 0.33 1.98 0.66 3 1 C1.63491499 4.11728368 0.13080302 6.08663738 -2.4375 8.3125 C-3.03433594 8.84488281 -3.63117188 9.37726563 -4.24609375 9.92578125 C-4.82488281 10.28027344 -5.40367187 10.63476562 -6 11 C-6.99 10.67 -7.98 10.34 -9 10 C-7.8758824 8.70756532 -6.75067408 7.41607925 -5.625 6.125 C-4.99851562 5.40570313 -4.37203125 4.68640625 -3.7265625 3.9453125 C-2.52573166 2.5923402 -1.2791655 1.2791655 0 0 Z " fill="#E9EEF3" transform="translate(319,66)"/>
<path d="M0 0 C0.66 0.33 1.32 0.66 2 1 C2 5.95 2 10.9 2 16 C4.97 16.33 7.94 16.66 11 17 C11 17.33 11 17.66 11 18 C7.04 18 3.08 18 -1 18 C-1.14285714 5.14285714 -1.14285714 5.14285714 0 0 Z " fill="#0C5B9A" transform="translate(565,212)"/>
<path d="M0 0 C2.64 0.66 5.28 1.32 8 2 C7.01 2.33 6.02 2.66 5 3 C5 3.66 5 4.32 5 5 C5.61875 5.268125 6.2375 5.53625 6.875 5.8125 C9 7 9 7 11 10 C8 10 8 10 5.8125 8 C5.214375 7.34 4.61625 6.68 4 6 C3.34 6.66 2.68 7.32 2 8 C1.34 5.36 0.68 2.72 0 0 Z " fill="#4D80BC" transform="translate(365,292)"/>
<path d="M0 0 C1.32 0 2.64 0 4 0 C2.4404735 3.82792868 0.16368164 6.36359864 -3 9 C-5.1640625 8.63671875 -5.1640625 8.63671875 -7 8 C-6.02133662 6.85373678 -5.04205413 5.70800212 -4.0625 4.5625 C-3.51722656 3.92441406 -2.97195313 3.28632812 -2.41015625 2.62890625 C-1.63204305 1.73008851 -0.84063472 0.84063472 0 0 Z " fill="#A5B4C8" transform="translate(336,50)"/>
<path d="M0 0 C0.66 0 1.32 0 2 0 C2.33 0.99 2.66 1.98 3 3 C-5.07744875 11.81548975 -5.07744875 11.81548975 -11 13 C-11.33 11.35 -11.66 9.7 -12 8 C-9.66666667 8 -7.33333333 8 -5 8 C-2.31256494 5.72926391 -2.31256494 5.72926391 0 3 C0 2.01 0 1.02 0 0 Z " fill="#359AE3" transform="translate(449,375)"/>
<path d="M0 0 C1.98 0 3.96 0 6 0 C6.33 1.98 6.66 3.96 7 6 C5.0085944 6.38133299 3.00720923 6.71325582 1 7 C0 6 0 6 -0.0625 2.9375 C-0.041875 1.968125 -0.02125 0.99875 0 0 Z " fill="#6D97BC" transform="translate(59,235)"/>
<path d="M0 0 C0.98120464 3.05263664 0.98120464 4.94736336 0 8 C-0.99 7.67 -1.98 7.34 -3 7 C-3.99 7.99 -4.98 8.98 -6 10 C-5.7525 9.0409375 -5.7525 9.0409375 -5.5 8.0625 C-4.96073333 6.19173179 -4.96073333 6.19173179 -5 5 C-5.66 5 -6.32 5 -7 5 C-7 4.34 -7 3.68 -7 3 C-4.69 2.01 -2.38 1.02 0 0 Z " fill="#4D80BC" transform="translate(280,294)"/>
<path d="M0 0 C0.66 0.33 1.32 0.66 2 1 C-0.31 3.31 -2.62 5.62 -5 8 C-4.01 9.485 -4.01 9.485 -3 11 C-3 11.99 -3 12.98 -3 14 C-5 14 -5 14 -7.625 11.5 C-8.40875 10.675 -9.1925 9.85 -10 9 C-9.67 8.01 -9.34 7.02 -9 6 C-8.4225 5.87625 -7.845 5.7525 -7.25 5.625 C-3.93089319 4.70302589 -2.29110352 2.48202881 0 0 Z " fill="#1E507E" transform="translate(335,49)"/>
<path d="M0 0 C1.485 0.99 1.485 0.99 3 2 C2.34 2 1.68 2 1 2 C1 2.66 1 3.32 1 4 C1.66 4.33 2.32 4.66 3 5 C2.34 5 1.68 5 1 5 C1 5.66 1 6.32 1 7 C1.66 7.33 2.32 7.66 3 8 C2.34 8 1.68 8 1 8 C1 8.66 1 9.32 1 10 C1.66 10.33 2.32 10.66 3 11 C2.01 11.495 2.01 11.495 1 12 C0.34227572 15.02934491 0.34227572 15.02934491 0 18 C-0.33 18 -0.66 18 -1 18 C-1.02684312 15.18743719 -1.04676188 12.37512759 -1.0625 9.5625 C-1.07087891 8.76005859 -1.07925781 7.95761719 -1.08789062 7.13085938 C-1.0965143 5.08704779 -1.0522815 3.04316098 -1 1 C-0.67 0.67 -0.34 0.34 0 0 Z " fill="#094077" transform="translate(447,361)"/>
<path d="M0 0 C0 7.26 0 14.52 0 22 C-0.33 22 -0.66 22 -1 22 C-1.04898438 20.79601562 -1.09796875 19.59203125 -1.1484375 18.3515625 C-1.22346343 16.77601802 -1.29901133 15.20049834 -1.375 13.625 C-1.42140625 12.43390625 -1.42140625 12.43390625 -1.46875 11.21875 C-1.51816421 6.63332625 -1.51816421 6.63332625 -4 3 C-1.125 0 -1.125 0 0 0 Z " fill="#085B9C" transform="translate(561,210)"/>
<path d="M0 0 C1.32 0 2.64 0 4 0 C4 0.99 4 1.98 4 3 C6.64 3.33 9.28 3.66 12 4 C12 4.33 12 4.66 12 5 C5.4 5 -1.2 5 -8 5 C-8 4.67 -8 4.34 -8 4 C-5.36 3.67 -2.72 3.34 0 3 C0 2.01 0 1.02 0 0 Z " fill="#A3BED4" transform="translate(213,388)"/>
<path d="M0 0 C0.99 0 1.98 0 3 0 C3 0.66 3 1.32 3 2 C3.66 2 4.32 2 5 2 C5 2.99 5 3.98 5 5 C4.34 5 3.68 5 3 5 C3 5.66 3 6.32 3 7 C2.01 7 1.02 7 0 7 C0 6.34 0 5.68 0 5 C-0.66 5 -1.32 5 -2 5 C-2 4.01 -2 3.02 -2 2 C-1.34 2 -0.68 2 0 2 C0 1.34 0 0.68 0 0 Z " fill="#97AAC1" transform="translate(121,314)"/>
<path d="M0 0 C2.64 0 5.28 0 8 0 C6.75023244 3.65316671 6.32901247 4.78065836 3 7 C2.67 6.34 2.34 5.68 2 5 C1.34 4.67 0.68 4.34 0 4 C0 2.68 0 1.36 0 0 Z " fill="#4F81BC" transform="translate(482,149)"/>
<path d="M0 0 C0.99 0 1.98 0 3 0 C3.33 3.63 3.66 7.26 4 11 C3.01 11 2.02 11 1 11 C-0.20272819 8.59454362 -0.10071472 7.05003047 -0.0625 4.375 C-0.05347656 3.55773437 -0.04445312 2.74046875 -0.03515625 1.8984375 C-0.02355469 1.27195312 -0.01195312 0.64546875 0 0 Z " fill="#D3E2ED" transform="translate(204,71)"/>
<path d="M0 0 C0.99 0 1.98 0 3 0 C3 3.3 3 6.6 3 10 C2.01 10.33 1.02 10.66 0 11 C0 7.37 0 3.74 0 0 Z " fill="#C8E0F2" transform="translate(222,70)"/>
<path d="M0 0 C0.598125 0.309375 1.19625 0.61875 1.8125 0.9375 C4.08956772 2.10209704 4.08956772 2.10209704 7 3 C7 3.66 7 4.32 7 5 C8.918125 5.4640625 8.918125 5.4640625 10.875 5.9375 C13.10101675 6.47605244 14.94739999 6.9737 17 8 C17 8.66 17 9.32 17 10 C10.33689395 8.24168035 5.1279353 5.6668403 0 1 C0 0.67 0 0.34 0 0 Z " fill="#1785D7" transform="translate(297,411)"/>
<path d="M0 0 C0.99 0.66 1.98 1.32 3 2 C-2.28 2 -7.56 2 -13 2 C-8.35512202 -1.09658532 -5.41995382 -1.23424691 0 0 Z " fill="#1A5D91" transform="translate(540,319)"/>
<path d="M0 0 C0.33 0.99 0.66 1.98 1 3 C2.98 2.34 4.96 1.68 7 1 C5.36587557 2.70840281 4.13093906 3.93453047 2 5 C2.66 5.66 3.32 6.32 4 7 C1.36 7 -1.28 7 -4 7 C-2.68 4.69 -1.36 2.38 0 0 Z " fill="#3770B3" transform="translate(165,298)"/>
<path d="M0 0 C1.32 0.33 2.64 0.66 4 1 C4 4 4 4 2.8125 5.75 C1 7 1 7 -1.6875 6.6875 C-2.450625 6.460625 -3.21375 6.23375 -4 6 C-3.525625 5.566875 -3.05125 5.13375 -2.5625 4.6875 C-0.76313043 2.97690387 -0.76313043 2.97690387 0 0 Z " fill="#0E4F81" transform="translate(312,57)"/>
<path d="M0 0 C3.63 0.33 7.26 0.66 11 1 C8 4 8 4 4.9375 4.25 C2 4 2 4 0 3 C0 2.01 0 1.02 0 0 Z " fill="#1C598A" transform="translate(316,385)"/>
<path d="M0 0 C1.28385175 3.85155526 0.29190137 5.19606819 -1 9 C-1.4416175 11.66410556 -1.72188897 14.31159334 -2 17 C-2.33 17 -2.66 17 -3 17 C-3 13.37 -3 9.74 -3 6 C-3.99 6.495 -3.99 6.495 -5 7 C-4.1875 5.0625 -4.1875 5.0625 -3 3 C-2.01 2.67 -1.02 2.34 0 2 C0 1.34 0 0.68 0 0 Z " fill="#0E62A4" transform="translate(95,316)"/>
<path d="M0 0 C3.41158256 1.13719419 4.11854601 2.04342944 6 5 C6 5.66 6 6.32 6 7 C3.36 7 0.72 7 -2 7 C-1.67 6.401875 -1.34 5.80375 -1 5.1875 C0.20787988 2.94613529 0.20787988 2.94613529 0 0 Z " fill="#4E81BC" transform="translate(486,290)"/>
<path d="M0 0 C2.64 0 5.28 0 8 0 C7.01 0.495 7.01 0.495 6 1 C6 2.98 6 4.96 6 7 C5.34 7 4.68 7 4 7 C0 2.52941176 0 2.52941176 0 0 Z " fill="#5183BD" transform="translate(398,258)"/>
<path d="M0 0 C0.33 2.31 0.66 4.62 1 7 C-1.31 6.67 -3.62 6.34 -6 6 C-6 4 -6 4 -4.125 1.875 C-2 0 -2 0 0 0 Z " fill="#5384BE" transform="translate(267,152)"/>
<path d="M0 0 C1.67542976 0.28604898 3.34385343 0.61781233 5 1 C3.63016497 4.16115776 3.0109362 4.9927092 0 7 C-0.38133299 5.0085944 -0.71325582 3.00720923 -1 1 C-0.67 0.67 -0.34 0.34 0 0 Z " fill="#155385" transform="translate(549,146)"/>
<path d="M0 0 C0.66 0.99 1.32 1.98 2 3 C4.05925139 3.72382467 4.05925139 3.72382467 6 4 C6 4.66 6 5.32 6 6 C2.37 6 -1.26 6 -5 6 C-5 5.34 -5 4.68 -5 4 C-4.0409375 3.8453125 -4.0409375 3.8453125 -3.0625 3.6875 C-2.381875 3.460625 -1.70125 3.23375 -1 3 C-0.67 2.01 -0.34 1.02 0 0 Z " fill="#EFF5F9" transform="translate(214,88)"/>
<path d="M0 0 C0.99 0.33 1.98 0.66 3 1 C2.21625 1.53625 1.4325 2.0725 0.625 2.625 C-2.33426299 5.30242842 -3.04608256 7.18433025 -4 11 C-4.66 11 -5.32 11 -6 11 C-5.75579333 6.76708435 -5.598306 4.62979579 -2.625 1.5 C-1.75875 1.005 -0.8925 0.51 0 0 Z " fill="#11568C" transform="translate(427,59)"/>
<path d="M0 0 C1.32 0 2.64 0 4 0 C4 2.64 4 5.28 4 8 C2.68 8 1.36 8 0 8 C-0.38063221 5.6739143 -0.71269945 3.33944736 -1 1 C-0.67 0.67 -0.34 0.34 0 0 Z " fill="#609ECC" transform="translate(415,369)"/>
<path d="M0 0 C0.66 0 1.32 0 2 0 C2.33 2.64 2.66 5.28 3 8 C0.69 7.34 -1.62 6.68 -4 6 C-3.67 5.34 -3.34 4.68 -3 4 C-2.34 4.33 -1.68 4.66 -1 5 C-0.67 3.35 -0.34 1.7 0 0 Z " fill="#4C7FBC" transform="translate(402,325)"/>
<path d="M0 0 C1.2065625 0.0309375 1.2065625 0.0309375 2.4375 0.0625 C2.7675 0.7225 3.0975 1.3825 3.4375 2.0625 C3.1075 2.7225 2.7775 3.3825 2.4375 4.0625 C-0.625 4.6875 -0.625 4.6875 -3.5625 5.0625 C-3.5625 0.08689024 -3.5625 0.08689024 0 0 Z " fill="#2C5D86" transform="translate(534.5625,124.9375)"/>
<path d="M0 0 C2.64 0.33 5.28 0.66 8 1 C8 1.66 8 2.32 8 3 C7.01 3 6.02 3 5 3 C4.34 4.32 3.68 5.64 3 7 C0.64046906 4.64046906 0.50858587 3.22104383 0 0 Z " fill="#487CBA" transform="translate(228,119)"/>
<path d="M0 0 C0.33 1.65 0.66 3.3 1 5 C-1.375 5.625 -1.375 5.625 -4 6 C-4.66 5.34 -5.32 4.68 -6 4 C-2.25 0 -2.25 0 0 0 Z " fill="#19507E" transform="translate(521,114)"/>
<path d="M0 0 C0.66 0 1.32 0 2 0 C5 4.38461538 5 4.38461538 5 7 C4.34 7 3.68 7 3 7 C3 6.34 3 5.68 3 5 C1.02 5.66 -0.96 6.32 -3 7 C-1.125 2.25 -1.125 2.25 0 0 Z " fill="#497DBA" transform="translate(322,109)"/>
<path d="M0 0 C2.31 0 4.62 0 7 0 C7 0.66 7 1.32 7 2 C7.66 2 8.32 2 9 2 C9.33 1.34 9.66 0.68 10 0 C10.33 0.99 10.66 1.98 11 3 C6.71 3 2.42 3 -2 3 C-1.34 2.67 -0.68 2.34 0 2 C0 1.34 0 0.68 0 0 Z " fill="#0C3C71" transform="translate(430,353)"/>
<path d="M0 0 C-0.99 0.33 -1.98 0.66 -3 1 C-3 2.65 -3 4.3 -3 6 C-3.66 6 -4.32 6 -5 6 C-8 2.53846154 -8 2.53846154 -8 0 C-4.94736336 -0.98120464 -3.05263664 -0.98120464 0 0 Z " fill="#4A7EBA" transform="translate(160,160)"/>
<path d="M0 0 C0.598125 0.185625 1.19625 0.37125 1.8125 0.5625 C4.16408762 1.22093687 4.16408762 1.22093687 7 0 C5.92598892 2.91517292 5.22189824 4.77810176 3 7 C0 2.25 0 2.25 0 0 Z " fill="#477BB9" transform="translate(320,334)"/>
<path d="M0 0 C2.0625 2.3125 2.0625 2.3125 4 5 C3.67 5.99 3.34 6.98 3 8 C2.38125 7.649375 1.7625 7.29875 1.125 6.9375 C0.073125 6.4734375 0.073125 6.4734375 -1 6 C-1.99 6.495 -1.99 6.495 -3 7 C-1.125 1.125 -1.125 1.125 0 0 Z " fill="#477BB9" transform="translate(323,300)"/>
<path d="M0 0 C1.98 0.66 3.96 1.32 6 2 C6 2.99 6 3.98 6 5 C5.01 5.66 4.02 6.32 3 7 C2.01 6.67 1.02 6.34 0 6 C0.185625 5.38125 0.37125 4.7625 0.5625 4.125 C1.23686176 1.95839822 1.23686176 1.95839822 0 0 Z " fill="#4278B8" transform="translate(519,226)"/>
<path d="M0 0 C6.27 0 12.54 0 19 0 C18.01 0.99 17.02 1.98 16 3 C15.67 2.67 15.34 2.34 15 2 C12.47403741 1.76346477 9.96892793 1.57826308 7.4375 1.4375 C6.72658203 1.39431641 6.01566406 1.35113281 5.28320312 1.30664062 C3.52238088 1.20028223 1.7612168 1.09961154 0 1 C0 0.67 0 0.34 0 0 Z " fill="#034376" transform="translate(336,249)"/>
<path d="M0 0 C2.91517292 1.07401108 4.77810176 1.77810176 7 4 C5.1875 5.5625 5.1875 5.5625 3 7 C2.01 6.67 1.02 6.34 0 6 C0.66 6 1.32 6 2 6 C2 4.68 2 3.36 2 2 C1.34 2 0.68 2 0 2 C0 1.34 0 0.68 0 0 Z " fill="#4379B8" transform="translate(229,225)"/>
<path d="M0 0 C0.66 0.33 1.32 0.66 2 1 C1.34 2.65 0.68 4.3 0 6 C0.66 6.33 1.32 6.66 2 7 C-1.26954202 6.43628586 -2.82575883 5.50037734 -5 3 C-2.625 1.4375 -2.625 1.4375 0 0 Z " fill="#4279B8" transform="translate(127,225)"/>
<path d="M0 0 C0.66 0.33 1.32 0.66 2 1 C1.814375 1.61875 1.62875 2.2375 1.4375 2.875 C0.76313824 5.04160178 0.76313824 5.04160178 2 7 C-0.02045442 6.39816251 -2.02111039 5.72693904 -4 5 C-4.33 4.34 -4.66 3.68 -5 3 C-2.625 1.4375 -2.625 1.4375 0 0 Z " fill="#4076B7" transform="translate(417,226)"/>
<path d="M0 0 C1.32 0.33 2.64 0.66 4 1 C4 1.66 4 2.32 4 3 C4.66 3 5.32 3 6 3 C5.67 4.32 5.34 5.64 5 7 C4.01 6.67 3.02 6.34 2 6 C0.8125 2.9375 0.8125 2.9375 0 0 Z " fill="#4C7FBB" transform="translate(319,142)"/>
<path d="M0 0 C0.99 0.33 1.98 0.66 3 1 C0.6875 3.5 0.6875 3.5 -2 6 C-2.99 6 -3.98 6 -5 6 C-5 5.34 -5 4.68 -5 4 C-2.6875 1.8125 -2.6875 1.8125 0 0 Z " fill="#E9F0F6" transform="translate(221,81)"/>
<path d="M0 0 C2.31 0 4.62 0 7 0 C7 0.99 7 1.98 7 3 C4.69 3 2.38 3 0 3 C0 2.01 0 1.02 0 0 Z " fill="#165A8C" transform="translate(218,388)"/>
<path d="M0 0 C0.99 0.33 1.98 0.66 3 1 C3 1.66 3 2.32 3 3 C4.32 3.66 5.64 4.32 7 5 C6.34 5.66 5.68 6.32 5 7 C5 6.34 5 5.68 5 5 C3.35 5 1.7 5 0 5 C0 3.35 0 1.7 0 0 Z " fill="#1D6194" transform="translate(583,232)"/>
<path d="M0 0 C0.99 1.485 0.99 1.485 2 3 C4.58380177 3.25030977 4.58380177 3.25030977 7 3 C7 3.66 7 4.32 7 5 C4.69 5.66 2.38 6.32 0 7 C0 4.69 0 2.38 0 0 Z " fill="#5082BD" transform="translate(376,152)"/>
<path d="M0 0 C0.99 0.33 1.98 0.66 3 1 C1.824375 1.928125 1.824375 1.928125 0.625 2.875 C-1.96837647 4.89858661 -1.96837647 4.89858661 -4 7 C-4.33 5.68 -4.66 4.36 -5 3 C-2.6875 1.4375 -2.6875 1.4375 0 0 Z " fill="#114C7D" transform="translate(325,46)"/>
<path d="M0 0 C1.4552777 2.9105554 0.63516661 4.95849052 0.0625 8.125 C-0.13214844 9.22070312 -0.32679688 10.31640625 -0.52734375 11.4453125 C-0.68332031 12.28835937 -0.83929688 13.13140625 -1 14 C-1.33 14 -1.66 14 -2 14 C-2 11.36 -2 8.72 -2 6 C-2.66 5.67 -3.32 5.34 -4 5 C-2.68 3.35 -1.36 1.7 0 0 Z " fill="#0965AE" transform="translate(282,222)"/>
<path d="M0 0 C1.65 0 3.3 0 5 0 C5.33 0.99 5.66 1.98 6 3 C4.35 3.66 2.7 4.32 1 5 C0.67 3.35 0.34 1.7 0 0 Z " fill="#659EC7" transform="translate(437,383)"/>
<path d="M0 0 C0.99 0.33 1.98 0.66 3 1 C-0.465 3.97 -0.465 3.97 -4 7 C-4 4 -4 4 -2 1.8125 C-1.34 1.214375 -0.68 0.61625 0 0 Z " fill="#278FDE" transform="translate(408,340)"/>
<path d="M0 0 C0.33 0 0.66 0 1 0 C1 1.65 1 3.3 1 5 C2.65 4.67 4.3 4.34 6 4 C5 6 5 6 1.9375 7.125 C0.968125 7.41375 -0.00125 7.7025 -1 8 C-0.67 5.36 -0.34 2.72 0 0 Z " fill="#3F76B6" transform="translate(247,332)"/>
<path d="M0 0 C6.0546875 -0.1953125 6.0546875 -0.1953125 8 0 C8.66 0.66 9.32 1.32 10 2 C6.30581799 3.231394 3.7943739 2.64432764 0 2 C0 1.34 0 0.68 0 0 Z " fill="#206AA2" transform="translate(530,327)"/>
<path d="M0 0 C1.98 0 3.96 0 6 0 C5.67 0.66 5.34 1.32 5 2 C4.34 2 3.68 2 3 2 C2.67 2.99 2.34 3.98 2 5 C2 4.01 2 3.02 2 2 C1.34 2 0.68 2 0 2 C-0.33 2.99 -0.66 3.98 -1 5 C-0.67 3.35 -0.34 1.7 0 0 Z " fill="#0A5CA2" transform="translate(431,381)"/>
<path d="M0 0 C2 2 2 2 2.125 5.125 C2.08375 6.07375 2.0425 7.0225 2 8 C1.67 7.34 1.34 6.68 1 6 C-1.02463255 5.34786708 -1.02463255 5.34786708 -3 5 C-2.01 5 -1.02 5 0 5 C0 4.34 0 3.68 0 3 C-0.99 2.67 -1.98 2.34 -3 2 C-2.01 2 -1.02 2 0 2 C0 1.34 0 0.68 0 0 Z " fill="#08599D" transform="translate(419,363)"/>
<path d="M0 0 C0.66 0 1.32 0 2 0 C2 0.66 2 1.32 2 2 C2.66 2 3.32 2 4 2 C4 2.66 4 3.32 4 4 C3.34 4 2.68 4 2 4 C2 4.66 2 5.32 2 6 C1.34 6 0.68 6 0 6 C0 5.34 0 4.68 0 4 C-0.66 3.67 -1.32 3.34 -2 3 C-1.34 3 -0.68 3 0 3 C0 2.01 0 1.02 0 0 Z " fill="#356A96" transform="translate(102,314)"/>
<path d="M0 0 C0.98120464 3.05263664 0.98120464 4.94736336 0 8 C-0.66 8 -1.32 8 -2 8 C-2 5.69 -2 3.38 -2 1 C-1.34 0.67 -0.68 0.34 0 0 Z " fill="#5686BF" transform="translate(280,294)"/>
<path d="M0 0 C0.99 0.33 1.98 0.66 3 1 C-0.465 3.97 -0.465 3.97 -4 7 C-3.04065919 3.16263678 -2.76390737 2.40339772 0 0 Z " fill="#208CDC" transform="translate(37,195)"/>
<path d="M0 0 C-1.39332574 3.36720387 -2.9789286 4.9859524 -6 7 C-6 4 -6 4 -4.125 1.8125 C-2 0 -2 0 0 0 Z " fill="#2B92DF" transform="translate(512,104)"/>
<path d="M0 0 C3.96 0 7.92 0 12 0 C10.68 1.32 9.36 2.64 8 4 C8 3.01 8 2.02 8 1 C5.36 1 2.72 1 0 1 C0 0.67 0 0.34 0 0 Z " fill="#0865AB" transform="translate(208,94)"/>
<path d="M0 0 C1.65 0 3.3 0 5 0 C5 0.66 5 1.32 5 2 C4.34 2 3.68 2 3 2 C2.67 2.99 2.34 3.98 2 5 C2 4.01 2 3.02 2 2 C1.34 2 0.68 2 0 2 C-0.33 2.99 -0.66 3.98 -1 5 C-0.67 3.35 -0.34 1.7 0 0 Z " fill="#085497" transform="translate(437,381)"/>
<path d="M0 0 C0.268125 0.639375 0.53625 1.27875 0.8125 1.9375 C1.88667752 4.33131686 1.88667752 4.33131686 5 5 C2.69 5 0.38 5 -2 5 C-1.34 3.35 -0.68 1.7 0 0 Z " fill="#447AB9" transform="translate(403,193)"/>
</svg>
