<?xml version="1.0" encoding="UTF-8"?>
<svg version="1.1" xmlns="http://www.w3.org/2000/svg" width="1024" height="1024">
<path d="M0 0 C337.92 0 675.84 0 1024 0 C1024 337.92 1024 675.84 1024 1024 C686.08 1024 348.16 1024 0 1024 C0 686.08 0 348.16 0 0 Z " fill="#E0E0DF" transform="translate(0,0)"/>
<path d="M0 0 C5.14742452 3.61414913 9.63446554 7.50790851 14.01953125 12.01171875 C16.46091717 14.46273539 19.04632259 16.69861272 21.66796875 18.953125 C24.66270063 21.58166688 27.57975602 24.28926718 30.5 27 C33.96270951 30.21176007 37.4264917 33.4110352 41 36.5 C45.16566161 40.10082614 49.18600048 43.85390974 53.22265625 47.59765625 C56.11381617 50.27415929 59.01898132 52.92318724 62 55.5 C66.11204293 59.05683038 70.0876962 62.75583684 74.07543945 66.45043945 C79.00664258 71.01610385 83.99306529 75.51752326 89 80 C94.40337858 84.84470939 99.78364423 89.71209075 105.125 94.625 C108.36217216 97.60218281 111.61137729 100.55952856 114.9375 103.4375 C119.069109 107.01937309 123.06929927 110.73837958 127.07958984 114.45458984 C131.17424371 118.2463742 135.30833007 121.99087784 139.46484375 125.71484375 C142.3691338 128.33273232 145.24763557 130.97760913 148.125 133.625 C151.44909234 136.68073294 154.7855049 139.71836312 158.1875 142.6875 C158.76075925 143.2021689 159.3340185 143.71683781 159.92464924 144.24710274 C161.97659378 146.04617873 161.97659378 146.04617873 164.30291271 147.54145622 C168.15396119 150.33879332 170.61165539 152.49674099 171.82670021 157.20010757 C172.136264 161.19301756 172.16094952 165.13427566 172.08520508 169.13330078 C172.08921977 170.66168668 172.09714262 172.19006652 172.10865784 173.71841431 C172.12825764 177.85128285 172.09196202 181.98193052 172.04427171 186.11450052 C172.00274397 190.44648467 172.00934125 194.7784194 172.00968933 199.11056519 C172.00319709 206.38219418 171.9622693 213.65297379 171.89868164 220.92431641 C171.82544781 229.3246768 171.79736946 237.72420217 171.795533 246.12486279 C171.79328243 255.08065427 171.76052174 264.03613603 171.71751952 272.99181509 C171.70704171 275.5677419 171.70197605 278.14363346 171.69800758 280.71957779 C171.690083 284.76970454 171.66150072 288.81919015 171.61707115 292.86907578 C171.60381868 294.35329468 171.59725529 295.83759099 171.59794617 297.3218689 C171.5976687 299.35131376 171.57026077 301.38070041 171.5415802 303.40994263 C171.533578 304.54441896 171.52557581 305.6788953 171.51733112 306.84774971 C170.87278976 310.77512933 169.50541382 312.93274909 167 316 C163.78887817 318.06827729 161.21187016 318.25258237 157.43330574 318.26006222 C156.29345478 318.26712781 155.15360382 318.2741934 153.97921193 318.2814731 C152.72650687 318.27905802 151.47380181 318.27664293 150.18313599 318.27415466 C148.83927197 318.27860657 147.49541057 318.28392046 146.15155303 318.29002339 C142.45524085 318.3042193 138.75901269 318.30586638 135.06267715 318.30542648 C131.07757432 318.30707326 127.09250625 318.32013709 123.10742188 318.33161926 C114.39265828 318.35447801 105.67791903 318.36239062 96.96312952 318.36744571 C91.52301196 318.37070132 86.08290149 318.37722292 80.64278793 318.3844471 C65.58418823 318.40401315 50.52559512 318.42041767 35.46698189 318.42332363 C34.50319048 318.4235112 33.53939906 318.42369877 32.54640185 318.42389202 C30.59252286 318.42425828 28.63864387 318.42462198 26.68476488 318.42498314 C25.71484227 318.42516595 24.74491967 318.42534876 23.74560547 318.42553711 C22.77450092 318.42571766 21.80339637 318.42589821 20.80286442 318.42608423 C5.06111882 318.42962724 -10.68049009 318.45665755 -26.42218827 318.494035 C-42.57926852 318.5320922 -58.7362809 318.55148091 -74.89340699 318.55178314 C-83.96700961 318.55236825 -93.04044914 318.56089475 -102.11400986 318.58978081 C-109.83887016 318.61425999 -117.56350788 318.62160103 -125.28839646 318.60653328 C-129.23049919 318.59935041 -133.17216208 318.60028048 -137.11421585 318.62294388 C-140.72295753 318.64349251 -144.33092008 318.64097323 -147.93965293 318.62006903 C-149.86370476 318.61490649 -151.78777394 318.63438527 -153.71172512 318.65473074 C-163.0513333 318.56347183 -163.0513333 318.56347183 -166.75442696 315.58657932 C-170.07836403 311.75787871 -170.13474029 309.86719621 -170.18754578 304.85972595 C-170.20337204 303.54896088 -170.2191983 302.2381958 -170.23550415 300.88771057 C-170.24791467 299.42636254 -170.26014616 297.96501298 -170.2722168 296.50366211 C-170.28829894 294.97118833 -170.30467873 293.43871765 -170.32133484 291.90625 C-170.46611099 277.90175314 -170.54111116 263.89636404 -170.60025311 249.89127254 C-170.64480727 239.54052 -170.72190778 229.1910941 -170.84183758 218.84093469 C-170.92333433 211.56185767 -170.96640564 204.28314349 -170.98155528 197.00362974 C-170.99170916 192.6570957 -171.01889915 188.31223192 -171.08786583 183.96619987 C-171.15211435 179.87224533 -171.16861237 175.78079579 -171.14937019 171.686409 C-171.15051939 170.18878033 -171.16863669 168.69104749 -171.205513 167.19387245 C-171.46877365 155.9180221 -171.46877365 155.9180221 -167.83048439 151.16690254 C-165.32337979 148.88719944 -162.77980614 146.93175705 -160 145 C-158.71518788 143.91213088 -157.44117472 142.81111073 -156.1875 141.6875 C-155.23423828 140.85798828 -155.23423828 140.85798828 -154.26171875 140.01171875 C-150.7192456 136.86081431 -147.25416936 133.62682856 -143.77807617 130.40307617 C-140.88670849 127.72628745 -137.98128052 125.0770391 -135 122.5 C-130.88795707 118.94316962 -126.9123038 115.24416316 -122.92456055 111.54956055 C-117.21111809 106.25964241 -111.41878782 101.06009533 -105.6171875 95.8671875 C-100.83293277 91.57520335 -96.0896492 87.24307341 -91.375 82.875 C-87.35347188 79.14943601 -83.2948814 75.485024 -79.1484375 71.8984375 C-75.68728169 68.84003436 -72.31256215 65.68850876 -68.92456055 62.54956055 C-63.99335742 57.98389615 -59.00693471 53.48247674 -54 49 C-48.64060582 44.19472735 -43.30128222 39.36935088 -38 34.5 C-31.90004921 28.89705348 -25.74438953 23.3578719 -19.578125 17.828125 C-13.01075708 11.93004298 -6.49849626 5.97370361 0 0 Z " fill="#072E45" transform="translate(508,356)"/>
<path d="M0 0 C3.13648094 1.82075377 5.4641577 4.43143715 8 7 C9.78977439 8.69234289 11.59453076 10.36780823 13.40039062 12.04296875 C15.38226198 13.88173762 17.35564383 15.7292919 19.328125 17.578125 C23.00731985 21.01680047 26.74281912 24.38855154 30.49609375 27.74609375 C42.16759787 38.25226829 53.58784667 49.04423492 65.0390625 59.7890625 C66.03413818 60.72129639 66.03413818 60.72129639 67.04931641 61.67236328 C68.30536418 62.84918101 69.56033376 64.02715114 70.81396484 65.20654297 C74.78079351 68.92080616 78.84610401 72.49633393 83 76 C83.01458252 74.98574951 83.02916504 73.97149902 83.04418945 72.92651367 C83.10216253 69.16345971 83.17939459 65.40100479 83.26245117 61.63842773 C83.29570536 60.00994591 83.32373584 58.38134869 83.34643555 56.75268555 C83.37997357 54.41144639 83.43228585 52.07126514 83.48828125 49.73046875 C83.49467117 49.00224411 83.5010611 48.27401947 83.50764465 47.52372742 C83.65374574 42.50109851 83.65374574 42.50109851 85.16921997 40.3079071 C87.73992597 38.47139776 89.58100683 38.61906329 92.72485352 38.61181641 C93.8993959 38.60235992 95.07393829 38.59290344 96.28407288 38.5831604 C97.55286789 38.58923309 98.8216629 38.59530579 100.12890625 38.6015625 C102.07977394 38.59725723 102.07977394 38.59725723 104.0700531 38.59286499 C106.82146907 38.58844375 109.57259265 38.59486682 112.32397461 38.60888672 C115.85396568 38.6259959 119.38327337 38.61612607 122.91323948 38.59816933 C126.27685025 38.58473691 129.64027604 38.59413402 133.00390625 38.6015625 C134.91013512 38.59245346 134.91013512 38.59245346 136.85487366 38.5831604 C138.02626389 38.59261688 139.19765411 38.60207336 140.40454102 38.61181641 C141.43917984 38.61420319 142.47381866 38.61658997 143.53981018 38.61904907 C144.35167282 38.74476288 145.16353546 38.87047668 146 39 C148.62547106 42.9382066 148.23268607 46.24780012 148.16015625 50.81079102 C148.15413895 51.7120018 148.14812164 52.61321259 148.141922 53.54173279 C148.12871786 55.50116898 148.1115801 57.46058166 148.09100342 59.4199543 C148.05243133 63.59329497 148.05026565 67.76639351 148.04620361 71.93988705 C148.03846855 79.710106 148.0170727 87.4795086 147.92822266 95.24926758 C147.86782054 100.65432592 147.85647677 106.057602 147.87692261 111.46293449 C147.87564988 113.51737397 147.8564762 115.57188715 147.81863403 117.62597847 C147.16168116 129.09248158 147.16168116 129.09248158 151.16772461 139.42965698 C153.65141546 141.94569407 156.10915965 143.97712236 159 146 C160.28302164 147.11107958 161.55661815 148.23333317 162.8125 149.375 C163.45445312 149.92542969 164.09640625 150.47585938 164.7578125 151.04296875 C167.61680705 153.53836295 170.40322591 156.10954439 173.1875 158.6875 C173.74211914 159.20094971 174.29673828 159.71439941 174.86816406 160.2434082 C176.00904461 161.30034272 177.14966695 162.357556 178.29003906 163.41503906 C181.04416395 165.96783444 183.8032191 168.51528032 186.5625 171.0625 C187.10310059 171.56185059 187.64370117 172.06120117 188.20068359 172.57568359 C191.72809424 175.83216201 195.26803022 179.07457896 198.8125 182.3125 C204.34001009 187.37083152 209.80062626 192.49816057 215.25537109 197.63476562 C219.59325895 201.71029397 223.98193728 205.70174115 228.49609375 209.58203125 C230.53105467 211.50070869 230.9670392 212.8441425 231.546875 215.5859375 C230.67966816 220.99978594 227.0365939 223.8515085 223.25 227.625 C222.52039063 228.37523437 221.79078125 229.12546875 221.0390625 229.8984375 C219.04072809 231.9476386 217.02570461 233.97789619 215 236 C214.33709961 236.71591309 213.67419922 237.43182617 212.99121094 238.16943359 C210.56507301 240.39983847 208.40632379 241.10687559 205.12109375 241.3359375 C200.67702039 240.63208794 198.03792245 237.07876847 195 234 C192.8926251 232.02243996 190.75651392 230.07647282 188.625 228.125 C187.49299757 227.0773543 186.36148364 226.0291805 185.23046875 224.98046875 C181.69725909 221.71289835 178.11949057 218.49648667 174.53515625 215.28515625 C171.63086706 212.66726846 168.75231028 210.0224487 165.875 207.375 C162.6161575 204.37813385 159.34500263 201.4008529 156 198.5 C152.12182987 195.13677362 148.34472189 191.66664329 144.56689453 188.19189453 C139.74415109 183.75776372 134.8765888 179.3748176 130 175 C128.33307353 173.50028872 126.66640851 172.00028679 125 170.5 C123.7625 169.38625 123.7625 169.38625 122.5 168.25 C115 161.5 115 161.5 112.48828125 159.23828125 C110.86223726 157.77560745 109.23469538 156.31459667 107.60546875 154.85546875 C102.82412583 150.56848115 98.08560415 146.23932571 93.375 141.875 C89.35616976 138.15193533 85.30110416 134.48909003 81.15625 130.90625 C78.22759587 128.31714998 75.36603327 125.65803766 72.5 123 C68.41431269 119.21115843 64.29606631 115.47828053 60.08203125 111.83203125 C56.86508207 109.00135739 53.7202932 106.09232984 50.56665039 103.19165039 C45.74396118 98.75763061 40.87650331 94.37474091 36 90 C34.33307353 88.50028872 32.66640851 87.00028679 31 85.5 C30.175 84.7575 29.35 84.015 28.5 83.25 C26 81 23.5 78.75 21 76.5 C20.17628906 75.75878906 19.35257813 75.01757812 18.50390625 74.25390625 C16.82370149 72.74145985 15.14402049 71.22843141 13.46484375 69.71484375 C11.79892747 68.21371672 10.12972529 66.71622715 8.45703125 65.22265625 C6.78720551 63.71211436 5.13926405 62.1770986 3.51171875 60.62109375 C2.72410156 59.87988281 1.93648437 59.13867188 1.125 58.375 C0.42632813 57.70210938 -0.27234375 57.02921875 -0.9921875 56.3359375 C-2.86614326 54.77703139 -2.86614326 54.77703139 -4.89990234 55.22070312 C-7.38431004 56.14260842 -8.70723164 57.29366419 -10.609375 59.1328125 C-11.28226563 59.77476562 -11.95515625 60.41671875 -12.6484375 61.078125 C-13.68871094 62.09132813 -13.68871094 62.09132813 -14.75 63.125 C-16.11849123 64.44145734 -17.48828177 65.75656537 -18.859375 67.0703125 C-19.54322266 67.72612305 -20.22707031 68.38193359 -20.93164062 69.05761719 C-23.58391918 71.5483547 -26.3211904 73.93043436 -29.07128906 76.31201172 C-32.11163169 78.9728888 -35.05315901 81.73652912 -38 84.5 C-42.23281159 88.45118294 -46.49344409 92.34703458 -50.87890625 96.12890625 C-53.79798162 98.70392854 -56.64623338 101.35301636 -59.5 104 C-62.9412695 107.19191626 -66.38248206 110.37177485 -69.9375 113.4375 C-74.35557499 117.25524208 -78.59836328 121.25916334 -82.86694336 125.24194336 C-86.45826139 128.58668035 -90.09525328 131.85797697 -93.8125 135.0625 C-97.56370573 138.38499651 -101.20586641 141.82583459 -104.86938477 145.24438477 C-107.85325007 148.02354163 -110.84532311 150.7783632 -113.9375 153.4375 C-117.89510592 156.84805024 -121.68984969 160.42691336 -125.5 164 C-129.91358042 168.13870471 -134.34508488 172.23018135 -138.9296875 176.1796875 C-143.47497832 180.17611301 -147.88010836 184.33180202 -152.31982422 188.44482422 C-158.77075236 194.41582281 -165.23179231 200.36755333 -171.875 206.125 C-175.15663458 209.02055993 -178.3659062 211.99480098 -181.5847168 214.9597168 C-184.29435539 217.45111802 -187.02251601 219.91153339 -189.8125 222.3125 C-194.64444996 226.48787927 -199.2614675 230.90026706 -203.89770508 235.2902832 C-204.52700928 235.88284912 -205.15631348 236.47541504 -205.8046875 237.0859375 C-206.37171387 237.6226709 -206.93874023 238.1594043 -207.52294922 238.71240234 C-209.55521254 240.4839985 -210.95810175 240.99201938 -213.625 241.5 C-218.8474172 240.72630856 -221.33576798 237.64062988 -225 234 C-226.11056719 232.91525206 -227.2212531 231.83062566 -228.33203125 230.74609375 C-239.98165264 219.27972844 -239.98165264 219.27972844 -240.046875 214.73046875 C-238.64026485 209.71810795 -236.11957209 207.62751256 -232.25 204.3125 C-231.57404785 203.70873535 -230.8980957 203.1049707 -230.20166016 202.48291016 C-228.81155899 201.24129485 -227.41585648 200.00592253 -226.01464844 198.77685547 C-223.08650907 196.19433022 -220.23272165 193.53483192 -217.375 190.875 C-216.3104885 189.89258659 -215.24538533 188.91081389 -214.1796875 187.9296875 C-211.49431642 185.45584103 -208.81078252 182.98001538 -206.12817383 180.50317383 C-205.04745627 179.50542634 -203.96656584 178.50786605 -202.88549805 177.51049805 C-200.11208147 174.95161377 -197.34116267 172.39010174 -194.57421875 169.82421875 C-194.00703125 169.29892578 -193.43984375 168.77363281 -192.85546875 168.23242188 C-191.79084157 167.24633277 -190.72696183 166.25943567 -189.6640625 165.27148438 C-186.85376631 162.67030944 -184.00478051 160.12404176 -181.11328125 157.61328125 C-176.97773652 154.0097661 -172.98179008 150.27181287 -169 146.5 C-165.06197209 142.76964153 -161.11312616 139.07107554 -157.015625 135.515625 C-152.81908474 131.8717998 -148.78055202 128.07557712 -144.75 124.25 C-138.83886504 118.66283329 -132.89449954 113.11994569 -126.88671875 107.63671875 C-123.76898744 104.78899394 -120.66401848 101.92785289 -117.5625 99.0625 C-116.75184082 98.31371582 -116.75184082 98.31371582 -115.92480469 97.54980469 C-114.83018522 96.53863447 -113.73562157 95.52740383 -112.64111328 94.51611328 C-109.92822414 92.00985896 -107.21405141 89.50499554 -104.5 87 C-103.41666043 86.00000676 -102.33332709 85.00000676 -101.25 84 C-94.75 78 -94.75 78 -93.12548828 76.50048828 C-92.04047744 75.49891474 -90.95551662 74.497287 -89.87060547 73.49560547 C-87.18834243 71.01923728 -84.50526066 68.54376936 -81.8203125 66.0703125 C-75.96371293 60.67284307 -70.12801408 55.25423261 -64.3125 49.8125 C-59.4780578 45.29003592 -54.60205986 40.82357854 -49.6640625 36.4140625 C-46.19779219 33.27307268 -42.78771804 30.07395347 -39.375 26.875 C-35.01647961 22.79109965 -30.64213177 18.7503255 -26.109375 14.859375 C-22.4669231 11.6486211 -18.93126127 8.31941846 -15.39013672 4.99755859 C-10.32618897 0.27898329 -6.9285949 -1.28223996 0 0 Z " fill="#082D45" transform="translate(513,281)"/>
<path d="M0 0 C1.32503069 1.21994827 2.62888882 2.46278609 3.93066406 3.70751953 C6.04497474 5.78185789 6.04497474 5.78185789 8.99707031 7.63330078 C9.64754989 11.61695677 9.94491207 14.10857831 7.78564453 17.58203125 C6.09714042 19.53868234 4.32009667 21.30371681 2.43457031 23.07080078 C1.52094727 24.00569336 1.52094727 24.00569336 0.58886719 24.95947266 C-2.38718089 27.85364004 -4.57586105 29.48639294 -8.54589844 30.85205078 C-13.10588683 30.56350914 -15.46233605 28.61027311 -18.75292969 25.69580078 C-19.98881891 24.66714609 -21.2258084 23.63981197 -22.46386719 22.61376953 C-23.06682617 22.10378418 -23.66978516 21.59379883 -24.29101562 21.06835938 C-45.99845904 2.87150364 -72.48259969 -7.00463001 -100.00292969 -12.36669922 C-100.96215332 -12.56030029 -101.92137695 -12.75390137 -102.90966797 -12.95336914 C-113.14100634 -14.78995267 -123.39029469 -14.80868467 -133.75292969 -14.80419922 C-134.70557709 -14.80460205 -135.65822449 -14.80500488 -136.63973999 -14.80541992 C-151.94752348 -14.76816103 -166.25889718 -13.83426591 -181.00292969 -9.36669922 C-181.93218262 -9.08793945 -182.86143555 -8.80917969 -183.81884766 -8.52197266 C-208.26304851 -0.92234678 -230.68746267 11.84667171 -249.60839844 29.08642578 C-252.00292969 30.63330078 -252.00292969 30.63330078 -254.78027344 31.34423828 C-259.94362489 30.20517166 -262.77965152 26.72370193 -266.37792969 23.00830078 C-267.11398437 22.29544922 -267.85003906 21.58259766 -268.60839844 20.84814453 C-273.83893616 15.5593819 -273.83893616 15.5593819 -274.60058594 11.25830078 C-273.76460049 7.58652155 -271.77013194 5.96565697 -269.00292969 3.63330078 C-268.44089844 3.09447266 -267.87886719 2.55564453 -267.29980469 2.00048828 C-249.40906655 -14.8337102 -227.79133936 -26.63165062 -205.00292969 -35.36669922 C-204.36323242 -35.61258789 -203.72353516 -35.85847656 -203.06445312 -36.11181641 C-136.8416304 -61.02979747 -52.91012981 -47.47279089 0 0 Z " fill="#828D92" transform="translate(641.0029296875,154.36669921875)"/>
<path d="M0 0 C11.05071165 8.76319752 18.31714921 21.07101882 20.56640625 35.03515625 C21.87405011 50.74504433 18.03365023 65.57040431 7.87890625 77.84765625 C0.03534674 86.09459882 -12.0430198 93.35453042 -23.65673828 94.19628906 C-26.29081993 94.24219201 -28.92414554 94.27043866 -31.55859375 94.28515625 C-32.45835937 94.30578125 -33.358125 94.32640625 -34.28515625 94.34765625 C-48.46312522 94.42913883 -60.64272989 88.6773903 -70.81640625 78.96484375 C-81.29174401 67.2387194 -85.13912904 53.35307584 -84.78515625 37.74609375 C-83.43549189 23.49963659 -76.74113674 11.71751389 -66.43359375 2.03515625 C-47.38775782 -12.92738952 -20.01573828 -13.72258039 0 0 Z " fill="#092D44" transform="translate(487.43359375,841.96484375)"/>
<path d="M0 0 C8.25 0 16.5 0 25 0 C32.12830425 7.42202897 32.12830425 7.42202897 33.609375 10.83789062 C33.94259766 11.57370361 34.27582031 12.3095166 34.61914062 13.06762695 C34.95107422 13.80843506 35.28300781 14.54924316 35.625 15.3125 C36.35802452 16.76572598 37.10019206 18.21437725 37.8515625 19.65820312 C39.29469561 22.45234009 40.68628792 25.26354399 42.04394531 28.10009766 C44.2618076 32.64773017 46.92436356 36.79619461 49.76318359 40.98510742 C51 43 51 43 51 45 C51.66 45 52.32 45 53 45 C53.24234375 44.15308594 53.4846875 43.30617188 53.734375 42.43359375 C55.41292025 37.87976264 57.92113126 34.06234329 60.58935547 30.046875 C63.39249954 25.76255154 65.76574618 21.48452283 67.9296875 16.83984375 C68.72391113 15.26674438 68.72391113 15.26674438 69.53417969 13.66186523 C71.15366857 10.54062195 71.15366857 10.54062195 72.41894531 7.36743164 C73.9453125 4.46875 73.9453125 4.46875 79 0 C86.92 0 94.84 0 103 0 C103 33.33 103 66.66 103 101 C95.74 101 88.48 101 81 101 C80.67 80.21 80.34 59.42 80 38 C73.04646993 49.00975595 66.10187178 60.01077179 59.29882812 71.11132812 C58.77611328 71.96017578 58.25339844 72.80902344 57.71484375 73.68359375 C57.26230225 74.42150146 56.80976074 75.15940918 56.34350586 75.91967773 C54.9755841 78.03780627 53.62403109 80.06919841 52 82 C51.34 82 50.68 82 50 82 C48.58642578 80.02246094 48.58642578 80.02246094 46.9453125 77.234375 C46.32914062 76.19667969 45.71296875 75.15898438 45.078125 74.08984375 C44.43359375 72.98769531 43.7890625 71.88554688 43.125 70.75 C41.87785903 68.64047431 40.63045387 66.53110478 39.3828125 64.421875 C37.93648438 61.97265625 36.49015625 59.5234375 35 57 C31.04 50.4 27.08 43.8 23 37 C22.67 58.12 22.34 79.24 22 101 C14.74 101 7.48 101 0 101 C0 67.67 0 34.34 0 0 Z " fill="#082E46" transform="translate(358,708)"/>
<path d="M0 0 C8.848125 -0.0825 17.69625 -0.165 26.8125 -0.25 C30.96936401 -0.30462402 30.96936401 -0.30462402 35.21020508 -0.36035156 C37.43830595 -0.37204804 39.66641546 -0.38223759 41.89453125 -0.390625 C43.59144104 -0.4213208 43.59144104 -0.4213208 45.32263184 -0.45263672 C55.94537246 -0.45724079 65.56127592 2.09648473 73.55078125 9.421875 C79.91533859 16.05491242 82.20242614 23.94383541 82.5 33 C82.17548859 42.88678101 79.10746087 51.93215508 72 59 C70.29785229 60.13107798 68.55821411 61.20736231 66.7890625 62.23046875 C65.8913916 62.75406982 64.9937207 63.2776709 64.06884766 63.81713867 C63.38612793 64.20748291 62.7034082 64.59782715 62 65 C64.1855658 68.6053428 66.37381861 72.20904786 68.5625 75.8125 C69.47612305 77.31973633 69.47612305 77.31973633 70.40820312 78.85742188 C74.08789999 84.9123728 77.84268209 90.90285077 81.73022461 96.8269043 C83 99 83 99 83 101 C61.74079984 103.35141465 61.74079984 103.35141465 56.09375 99.80175781 C53.07796955 96.49068219 51.47186961 92.4122779 49.87939453 88.27294922 C45.83930419 77.74574501 45.83930419 77.74574501 39 69 C33.34188323 66.74647695 28.04412933 67.56827648 22 68 C22 78.89 22 89.78 22 101 C14.74 101 7.48 101 0 101 C0 67.67 0 34.34 0 0 Z " fill="#082C43" transform="translate(591,708)"/>
<path d="M0 0 C7.92 0 15.84 0 24 0 C27.55862312 5.33793467 30.96340745 10.49458271 34.1640625 16.01171875 C34.52341888 16.62843948 34.88277527 17.24516022 35.25302124 17.88056946 C36.37968129 19.81467687 37.50268196 21.75087032 38.625 23.6875 C39.7547995 25.63463732 40.88546978 27.58124923 42.0184021 29.52656555 C43.04118572 31.28303137 44.06097073 33.04124227 45.08056641 34.79956055 C46.96479634 37.94130185 48.9427966 40.97024326 51 44 C54.06018264 41.31965267 55.94697273 37.99790913 57.984375 34.53125 C58.36305725 33.8957019 58.7417395 33.26015381 59.13189697 32.60534668 C60.34214772 30.57270223 61.54638956 28.53658222 62.75 26.5 C63.54382322 25.16119283 64.33808995 23.82264852 65.1328125 22.484375 C65.52078003 21.82888672 65.90874756 21.17339844 66.30847168 20.49804688 C67.09222127 19.18715998 67.88629279 17.88238931 68.69055176 16.58398438 C70.52870276 13.60181997 72.06032322 10.84880361 73.36523438 7.578125 C74.703125 4.53125 74.703125 4.53125 79 0 C86.26 0 93.52 0 101 0 C101 33 101 66 101 100 C91.1 100.495 91.1 100.495 81 101 C81 79.88 81 58.76 81 37 C80.34 37 79.68 37 79 37 C78.90195068 37.54624023 78.80390137 38.09248047 78.70288086 38.65527344 C77.81423985 41.61967367 76.38957837 43.88715577 74.75390625 46.515625 C74.08568848 47.59537598 73.4174707 48.67512695 72.72900391 49.78759766 C72.00711456 50.94190607 71.28494151 52.09603709 70.5625 53.25 C69.83215357 54.42343767 69.10217433 55.59710396 68.37255859 56.77099609 C66.92385782 59.10050984 65.47222435 61.42816214 64.01904297 63.75488281 C62.25821594 66.58498111 60.51570297 69.42476873 58.78515625 72.2734375 C58.3274585 73.02206055 57.86976074 73.77068359 57.39819336 74.54199219 C56.56717786 75.90157498 55.74093799 77.26409164 54.92016602 78.62988281 C54.00080161 80.1212735 53.00847444 81.56736034 52 83 C51.34 83 50.68 83 50 83 C48.73345874 81.19889936 47.56430481 79.32916625 46.4375 77.4375 C46.08671387 76.85395752 45.73592773 76.27041504 45.37451172 75.66918945 C44.24275073 73.78350461 43.12106115 71.89206192 42 70 C35.78542417 59.58773794 29.42859895 49.28575832 23 39 C22.67 59.46 22.34 79.92 22 101 C14.74 101 7.48 101 0 101 C0 67.67 0 34.34 0 0 Z " fill="#082D44" transform="translate(523,834)"/>
<path d="M0 0 C1.15298836 -0.00855011 1.15298836 -0.00855011 2.32926941 -0.01727295 C3.95379281 -0.02667554 5.57833487 -0.03323795 7.20288086 -0.03710938 C9.62324988 -0.04669784 12.04272452 -0.07771621 14.46289062 -0.109375 C50.03792929 -0.35205167 84.36846356 13.17285128 110.6953125 37.12109375 C111.85546875 39.203125 111.85546875 39.203125 111.9609375 42.48046875 C110.48138069 47.46286324 107.91435507 50.03039874 104.23046875 53.578125 C103.62589844 54.20589844 103.02132812 54.83367187 102.3984375 55.48046875 C99.41745222 58.42331776 97.3089061 60.05131775 93.28515625 61.3984375 C88.93267371 61.15057403 86.75076821 59.47795855 83.60546875 56.703125 C82.46215275 55.76645011 81.31628517 54.83288161 80.16796875 53.90234375 C79.6059375 53.44005371 79.04390625 52.97776367 78.46484375 52.50146484 C55.45764079 33.94073891 24.23228665 30.17310229 -4.296875 32.4765625 C-25.80859941 35.13728921 -49.13131514 44.43544943 -64.44921875 60.171875 C-67.28690902 61.89802761 -68.87107858 61.78628165 -72.14453125 61.203125 C-75.02085729 59.20489902 -77.42780671 56.80454197 -79.89453125 54.328125 C-80.90193359 53.35166016 -80.90193359 53.35166016 -81.9296875 52.35546875 C-83.68248474 50.65184819 -85.41813595 48.93343123 -87.14453125 47.203125 C-87.80453125 46.543125 -88.46453125 45.883125 -89.14453125 45.203125 C-89.58819486 42.14789603 -89.48806863 40.70888836 -87.73828125 38.1328125 C-80.57054554 31.09880321 -72.54266506 25.64012945 -64.14453125 20.203125 C-63.16742188 19.55214844 -62.1903125 18.90117187 -61.18359375 18.23046875 C-43.636826 7.19460766 -20.70481675 0.12276934 0 0 Z " fill="#828D92" transform="translate(497.14453125,164.796875)"/>
<path d="M0 0 C7.92 0 15.84 0 24 0 C30.83269 16.33690023 37.51844797 32.71999727 43.97436523 49.20947266 C46.91926793 56.72864699 49.8875169 64.23744657 52.8984375 71.73046875 C53.22133759 72.53452148 53.54423767 73.33857422 53.87692261 74.16699219 C55.44624424 78.07317558 57.01876899 81.97803431 58.59521484 85.88134766 C59.16252465 87.29195609 59.7297492 88.70259883 60.296875 90.11328125 C60.55665131 90.75339645 60.81642761 91.39351166 61.08407593 92.05302429 C62.28154475 95.03811016 63.2166526 97.8666104 64 101 C56.41 101 48.82 101 41 101 C38.36 94.4 35.72 87.8 33 81 C19.14 80.67 5.28 80.34 -9 80 C-9.33 81.65 -9.66 83.3 -10 85 C-10.96061204 87.60893497 -11.94959023 90.17847798 -13 92.75 C-13.40992188 93.77673828 -13.40992188 93.77673828 -13.828125 94.82421875 C-15.86399502 99.86399502 -15.86399502 99.86399502 -17 101 C-18.63472882 101.08700342 -20.27314055 101.10701063 -21.91015625 101.09765625 C-22.89951172 101.09443359 -23.88886719 101.09121094 -24.90820312 101.08789062 C-25.94912109 101.07951172 -26.99003906 101.07113281 -28.0625 101.0625 C-29.10728516 101.05798828 -30.15207031 101.05347656 -31.22851562 101.04882812 C-33.8190666 101.03699913 -36.40950559 101.02051689 -39 101 C-38.36841167 95.64224456 -36.62607733 91.09108662 -34.61352539 86.13647461 C-34.26546341 85.26580856 -33.91740143 84.39514252 -33.55879211 83.49809265 C-32.41078899 80.63051613 -31.25427982 77.76645286 -30.09765625 74.90234375 C-29.29622025 72.90528672 -28.49531959 70.90801478 -27.69493103 68.91053772 C-25.58850974 63.65782991 -23.47485994 58.40806042 -21.35968018 53.15887451 C-19.21004933 47.8205521 -17.06721161 42.47950497 -14.92382812 37.13867188 C-11.46122708 28.51293163 -7.99440494 19.88890258 -4.52233887 11.26696777 C-4.21812515 10.51149155 -3.91391144 9.75601532 -3.60047913 8.97764587 C-3.33814515 8.3263568 -3.07581118 7.67506773 -2.80552769 7.00404263 C-1.8675512 4.6704855 -0.93405226 2.33513064 0 0 Z " fill="#082C43" transform="translate(514,708)"/>
<path d="M0 0 C7.26 0 14.52 0 22 0 C22 13.2 22 26.4 22 40 C35.2 40 48.4 40 62 40 C62 26.8 62 13.6 62 0 C69.26 0 76.52 0 84 0 C84 33.33 84 66.66 84 101 C76.74 101 69.48 101 62 101 C62 87.47 62 73.94 62 60 C48.8 60 35.6 60 22 60 C22 73.53 22 87.06 22 101 C14.74 101 7.48 101 0 101 C0 67.67 0 34.34 0 0 Z " fill="#082F47" transform="translate(303,834)"/>
<path d="M0 0 C23.1 0 46.2 0 70 0 C70 6.6 70 13.2 70 20 C54.16 20 38.32 20 22 20 C22 26.93 22 33.86 22 41 C35.86 41 49.72 41 64 41 C64 47.6 64 54.2 64 61 C50.14 61 36.28 61 22 61 C22 67.6 22 74.2 22 81 C38.17 81 54.34 81 71 81 C71 87.6 71 94.2 71 101 C47.57 101 24.14 101 0 101 C0 67.67 0 34.34 0 0 Z " fill="#082C44" transform="translate(647,834)"/>
<path d="M0 0 C4.22470624 2.48439785 8.03662059 5.30809997 11.68359375 8.578125 C10.19840576 12.62113675 8.25481377 16.18958756 6.05859375 19.890625 C5.42695313 20.95925781 4.7953125 22.02789063 4.14453125 23.12890625 C3.42136719 24.34126953 3.42136719 24.34126953 2.68359375 25.578125 C1.98234375 25.16820312 1.28109375 24.75828125 0.55859375 24.3359375 C-8.96828626 18.92529097 -17.18758 16.15056522 -28.31640625 17.578125 C-32.01983167 19.35570443 -32.01983167 19.35570443 -34.31640625 22.578125 C-35.01758095 28.07974563 -35.01758095 28.07974563 -32.59765625 32.7109375 C-26.84482855 37.41958757 -18.81644266 38.73569427 -11.75390625 40.515625 C-0.58494196 43.45243896 7.77531208 47.18145743 13.77734375 57.44921875 C17.3187007 65.33529604 16.62312973 73.97436512 13.62109375 81.890625 C10.10431299 89.44775219 5.43338648 94.12822567 -2.03125 97.75390625 C-8.79157024 100.19224398 -14.92966423 100.93855017 -22.06640625 100.890625 C-22.94748047 100.88498535 -23.82855469 100.8793457 -24.73632812 100.87353516 C-36.70705688 100.65144779 -49.63365153 97.82650067 -58.66015625 89.38671875 C-59.48 88.49146484 -59.48 88.49146484 -60.31640625 87.578125 C-58.83278341 81.31393969 -55.07478469 76.66298995 -51.31640625 71.578125 C-46.5281306 72.49894724 -42.47825197 74.97396523 -38.19140625 77.203125 C-33.14938983 79.61452416 -28.48012939 79.8192497 -22.94140625 79.890625 C-22.19890625 79.91962891 -21.45640625 79.94863281 -20.69140625 79.97851562 C-15.48556039 80.03830007 -12.31058465 79.230123 -8.31640625 75.578125 C-7.37898052 73.16195361 -7.37898052 73.16195361 -7.56640625 70.578125 C-7.5509375 69.7325 -7.53546875 68.886875 -7.51953125 68.015625 C-8.45586251 65.15155291 -9.66860069 64.02627668 -12.24316406 62.50292969 C-17.81628853 60.01694341 -23.93841123 58.84837765 -29.84375 57.3984375 C-40.95606798 54.50306876 -50.33564428 49.96777349 -56.34375 39.84765625 C-59.54368799 32.93166124 -59.51777652 24.19355879 -57.625 16.921875 C-56.69229779 14.64280349 -55.63707361 12.65464601 -54.31640625 10.578125 C-53.92710937 9.95421875 -53.5378125 9.3303125 -53.13671875 8.6875 C-42.02074999 -6.44074151 -15.78375281 -7.29448337 0 0 Z " fill="#092C44" transform="translate(325.31640625,709.421875)"/>
<path d="M0 0 C6.90302837 5.85299026 6.90302837 5.85299026 7.35083008 9.10180664 C6.72368446 14.12972804 2.42839975 17.11748892 -1.0390625 20.5390625 C-2.16731445 21.72145508 -2.16731445 21.72145508 -3.31835938 22.92773438 C-8.90401786 28.51339286 -8.90401786 28.51339286 -13.73046875 29.47265625 C-17.4277152 28.62286796 -19.07960946 27.53385251 -21.8515625 24.9765625 C-33.89014789 14.65256351 -47.74983983 13.77316516 -62.9765625 14.7265625 C-72.80523016 15.90395498 -80.62402634 22.50137467 -88.18359375 28.46875 C-89.9765625 29.7265625 -89.9765625 29.7265625 -92.7890625 30.3515625 C-97.64380314 29.39965257 -99.81986455 26.36943302 -102.9765625 22.7265625 C-103.60175781 22.02015625 -104.22695313 21.31375 -104.87109375 20.5859375 C-106.05557266 19.23937201 -107.23221601 17.88584579 -108.3984375 16.5234375 C-109.9058135 14.69067403 -109.9058135 14.69067403 -111.7421875 13.3671875 C-112.9765625 11.7265625 -112.9765625 11.7265625 -112.98046875 8.84375 C-110.48924264 1.10834753 -100.97348602 -3.94894809 -94.07055664 -7.62329102 C-63.71106975 -22.94350318 -27.35281285 -20.89151847 0 0 Z " fill="#818C91" transform="translate(561.9765625,239.2734375)"/>
<path d="M0 0 C26.73 0 53.46 0 81 0 C81 6.6 81 13.2 81 20 C71.43 20 61.86 20 52 20 C52 46.73 52 73.46 52 101 C44.74 101 37.48 101 30 101 C30 74.27 30 47.54 30 20 C20.1 20 10.2 20 0 20 C0 13.4 0 6.8 0 0 Z " fill="#072A41" transform="translate(683,708)"/>
<path d="M0 0 C18.15 0 36.3 0 55 0 C55.061875 12.7771875 55.061875 12.7771875 55.125 25.8125 C55.14320801 28.49995361 55.16141602 31.18740723 55.18017578 33.95629883 C55.18601588 36.08154093 55.19111258 38.20678527 55.1953125 40.33203125 C55.20554443 41.43945679 55.21577637 42.54688232 55.22631836 43.68786621 C55.22656006 44.74324585 55.22680176 45.79862549 55.22705078 46.88598633 C55.231492 47.80309891 55.23593323 48.72021149 55.24050903 49.66511536 C55 52 55 52 53 55 C50.74740601 55.36076355 50.74740601 55.36076355 47.90771484 55.34057617 C46.83191162 55.34021362 45.7561084 55.33985107 44.64770508 55.33947754 C43.51357178 55.32412964 42.37943848 55.30878174 41.2109375 55.29296875 C40.17106689 55.28994751 39.13119629 55.28692627 38.05981445 55.28381348 C34.16477575 55.26808368 30.2698782 55.22619992 26.375 55.1875 C13.319375 55.0946875 13.319375 55.0946875 0 55 C0 36.85 0 18.7 0 0 Z " fill="#838F94" transform="translate(517,564)"/>
<path d="M0 0 C8.53875 -0.04125 17.0775 -0.0825 25.875 -0.125 C29.91983643 -0.15231201 29.91983643 -0.15231201 34.04638672 -0.18017578 C36.17415162 -0.18601479 38.30191874 -0.19111174 40.4296875 -0.1953125 C42.09849976 -0.2106604 42.09849976 -0.2106604 43.80102539 -0.22631836 C44.85652588 -0.22656006 45.91202637 -0.22680176 46.99951172 -0.22705078 C47.91884491 -0.231492 48.8381781 -0.23593323 49.78536987 -0.24050903 C52 0 52 0 54 2 C54.24050903 4.29055786 54.24050903 4.29055786 54.22705078 7.18408203 C54.22680908 8.28018799 54.22656738 9.37629395 54.22631836 10.50561523 C54.21097046 12.23920288 54.21097046 12.23920288 54.1953125 14.0078125 C54.19329834 15.06734131 54.19128418 16.12687012 54.18920898 17.21850586 C54.17872206 21.1873811 54.15079963 25.15619477 54.125 29.125 C54.08375 37.99375 54.0425 46.8625 54 56 C36.18 56 18.36 56 0 56 C0 37.52 0 19.04 0 0 Z " fill="#849095" transform="translate(517,493)"/>
<path d="M0 0 C1.37899979 0.00666183 1.37899979 0.00666183 2.78585815 0.01345825 C4.36910889 0.0138208 4.36910889 0.0138208 5.98434448 0.01419067 C7.09688599 0.02442261 8.20942749 0.03465454 9.35568237 0.04519653 C10.37589478 0.04721069 11.39610718 0.04922485 12.44723511 0.05130005 C16.26832558 0.06178587 20.08935212 0.08970832 23.91036987 0.11550903 C32.44911987 0.15675903 40.98786987 0.19800903 49.78536987 0.24050903 C49.78536987 18.72050903 49.78536987 37.20050903 49.78536987 56.24050903 C31.96536987 56.24050903 14.14536987 56.24050903 -4.21463013 56.24050903 C-4.25588013 47.37175903 -4.29713013 38.50300903 -4.33963013 29.36550903 C-4.35783813 26.56453735 -4.37604614 23.76356567 -4.39480591 20.87771606 C-4.40064483 18.66791984 -4.40574181 16.45812148 -4.40994263 14.24832153 C-4.42017456 13.09259644 -4.43040649 11.93687134 -4.44094849 10.74612427 C-4.44119019 9.65001831 -4.44143188 8.55391235 -4.44168091 7.42459106 C-4.44612213 6.46972809 -4.45056335 5.51486511 -4.45513916 4.53106689 C-4.12125939 1.35126563 -3.19424963 0.3468958 0 0 Z " fill="#889397" transform="translate(450.2146301269531,492.7594909667969)"/>
<path d="M0 0 C1.05948853 0.01244751 1.05948853 0.01244751 2.14038086 0.02514648 C9.97207206 0.27795582 15.16965661 2.36037259 20.9375 7.5625 C28.32153526 15.51321704 30.57921473 24.43404646 30.4609375 34.984375 C29.60285933 45.82067641 24.37580502 52.74331927 16.5625 59.8125 C9.32718617 64.76297789 0.62351656 64.25210018 -7.8125 63.4375 C-14.51786083 61.85150148 -19.62796424 56.71688103 -23.8125 51.4375 C-29.18657622 42.00576392 -30.46646203 31.7475557 -27.6875 21.1875 C-24.7570858 12.61638241 -18.80123204 6.41196831 -11.11328125 1.828125 C-7.3225412 0.23107949 -4.04685269 -0.06113361 0 0 Z " fill="#E0E1E0" transform="translate(454.8125,852.5625)"/>
<path d="M0 0 C17.82 0 35.64 0 54 0 C54 18.15 54 36.3 54 55 C45.46125 55.04125 36.9225 55.0825 28.125 55.125 C24.08016357 55.15231201 24.08016357 55.15231201 19.95361328 55.18017578 C17.82584838 55.18601479 15.69808126 55.19111174 13.5703125 55.1953125 C12.457771 55.20554443 11.34522949 55.21577637 10.19897461 55.22631836 C8.61572388 55.22668091 8.61572388 55.22668091 7.00048828 55.22705078 C6.08115509 55.231492 5.1618219 55.23593323 4.21463013 55.24050903 C2 55 2 55 0 53 C-0.24050903 50.74740601 -0.24050903 50.74740601 -0.22705078 47.90771484 C-0.22680908 46.83191162 -0.22656738 45.7561084 -0.22631836 44.64770508 C-0.21608643 43.51357178 -0.20585449 42.37943848 -0.1953125 41.2109375 C-0.19329834 40.17106689 -0.19128418 39.13119629 -0.18920898 38.05981445 C-0.1787226 34.16483161 -0.15080016 30.26991151 -0.125 26.375 C-0.063125 13.319375 -0.063125 13.319375 0 0 Z " fill="#879297" transform="translate(446,564)"/>
<path d="M0 0 C4.02133991 -0.11526133 8.03843653 -0.21463387 12.06054688 -0.2746582 C13.42630503 -0.2996928 14.79193067 -0.33373218 16.15722656 -0.37719727 C28.97276474 -0.77475958 28.97276474 -0.77475958 32.84375 2.375 C36.38799439 6.6897323 37.52656166 10.20207712 37.38671875 15.87109375 C36.67478916 19.79030209 34.63065809 23.05089383 32 26 C28.51488146 28.25745221 25.57746557 28.23252241 21.484375 28.1953125 C20.35741211 28.19031738 19.23044922 28.18532227 18.06933594 28.18017578 C16.64395508 28.16196777 15.21857422 28.14375977 13.75 28.125 C9.2125 28.08375 4.675 28.0425 0 28 C0 18.76 0 9.52 0 0 Z " fill="#E1E2E1" transform="translate(613,728)"/>
<path d="M0 0 C8.53875 -0.04125 17.0775 -0.0825 25.875 -0.125 C29.91983643 -0.15231201 29.91983643 -0.15231201 34.04638672 -0.18017578 C36.17415162 -0.18601479 38.30191874 -0.19111174 40.4296875 -0.1953125 C42.09849976 -0.2106604 42.09849976 -0.2106604 43.80102539 -0.22631836 C44.85652588 -0.22656006 45.91202637 -0.22680176 46.99951172 -0.22705078 C47.91884491 -0.231492 48.8381781 -0.23593323 49.78536987 -0.24050903 C52 0 52 0 54 2 C54.24050903 4.29055786 54.24050903 4.29055786 54.22705078 7.18408203 C54.22680908 8.28018799 54.22656738 9.37629395 54.22631836 10.50561523 C54.21097046 12.23920288 54.21097046 12.23920288 54.1953125 14.0078125 C54.19329834 15.06734131 54.19128418 16.12687012 54.18920898 17.21850586 C54.17872206 21.1873811 54.15079963 25.15619477 54.125 29.125 C54.08375 37.99375 54.0425 46.8625 54 56 C36.18 56 18.36 56 0 56 C0 37.52 0 19.04 0 0 Z M1 1 C1 18.49 1 35.98 1 54 C9.58 54 18.16 54 27 54 C27.33 52.68 27.66 51.36 28 50 C28.37125 49.0925 28.7425 48.185 29.125 47.25 C30.2462359 43.08540953 29.63711403 40.24742685 29 36 C30 34 30 34 33 33 C33 32.34 33 31.68 33 31 C33.66 31 34.32 31 35 31 C35.66 32.32 36.32 33.64 37 35 C37.66 35 38.32 35 39 35 C39 34.34 39 33.68 39 33 C39.66 32.67 40.32 32.34 41 32 C40.505 31.01 40.505 31.01 40 30 C40.66 29.67 41.32 29.34 42 29 C41.01 29 40.02 29 39 29 C39 28.34 39 27.68 39 27 C39.9075 27.165 40.815 27.33 41.75 27.5 C45.11087503 28.10137146 45.11087503 28.10137146 49 28 C49.495 29.98 49.495 29.98 50 32 C50.66 31.67 51.32 31.34 52 31 C52 32.65 52 34.3 52 36 C52.33 36 52.66 36 53 36 C53 24.78 53 13.56 53 2 C50.53838983 0.76919491 48.93503007 0.87956023 46.18310547 0.88647461 C45.16821045 0.88659546 44.15331543 0.88671631 43.10766602 0.88684082 C42.03830811 0.89195679 40.9689502 0.89707275 39.8671875 0.90234375 C38.8862915 0.90335083 37.90539551 0.90435791 36.89477539 0.90539551 C33.22150508 0.91063777 29.5482514 0.92459898 25.875 0.9375 C13.561875 0.9684375 13.561875 0.9684375 1 1 Z " fill="#919A9D" transform="translate(517,493)"/>
<path d="M0 0 C7.26 0 14.52 0 22 0 C22 12.87 22 25.74 22 39 C21.34 39 20.68 39 20 39 C20 26.79 20 14.58 20 2 C13.73 2 7.46 2 1 2 C1 34.01 1 66.02 1 99 C7.27 99 13.54 99 20 99 C19.98839844 96.19628906 19.97679687 93.39257812 19.96484375 90.50390625 C19.95705367 87.80004998 19.95097663 85.09619494 19.94506836 82.39233398 C19.94002756 80.5075627 19.93319502 78.62279535 19.92456055 76.73803711 C19.91248383 74.03498364 19.90676932 71.33198169 19.90234375 68.62890625 C19.89718246 67.78099014 19.89202118 66.93307404 19.88670349 66.0594635 C19.88650805 64.03928932 19.93793789 62.01922066 20 60 C21 59 21 59 24.96899414 58.88647461 C26.74105607 58.8866338 28.5131226 58.89233215 30.28515625 58.90234375 C31.21597519 58.9037587 32.14679413 58.90517365 33.1058197 58.90663147 C36.09141191 58.91224828 39.07693029 58.9248036 42.0625 58.9375 C44.08137913 58.94251284 46.10025943 58.94707612 48.11914062 58.95117188 C53.07945572 58.96222317 58.03971532 58.97949905 63 59 C64.63945963 62.27891925 64.12030178 65.90613534 64.09765625 69.5078125 C64.0962413 70.34843231 64.09482635 71.18905212 64.09336853 72.05514526 C64.08776237 74.74513275 64.07520886 77.43503759 64.0625 80.125 C64.05748579 81.94661338 64.05292275 83.76822807 64.04882812 85.58984375 C64.038641 90.05995344 64.01906685 94.52988399 64 99 C70.27 99 76.54 99 83 99 C83 66.99 83 34.98 83 2 C76.73 2 70.46 2 64 2 C64.01160156 4.73152344 64.02320313 7.46304688 64.03515625 10.27734375 C64.04294642 12.91170129 64.04902341 15.54605757 64.05493164 18.18041992 C64.05997231 20.01668875 64.06680477 21.85295354 64.07543945 23.68920898 C64.08751672 26.32276401 64.09323081 28.95626616 64.09765625 31.58984375 C64.10281754 32.41588608 64.10797882 33.24192841 64.11329651 34.09300232 C64.11349205 36.06236368 64.06204152 38.03161614 64 40 C63 41 63 41 59.12280273 41.11352539 C57.39305833 41.11336621 55.66330919 41.10766849 53.93359375 41.09765625 C53.02497086 41.0962413 52.11634796 41.09482635 51.18019104 41.09336853 C48.26592779 41.08775193 45.35174019 41.07519665 42.4375 41.0625 C40.46679798 41.05748714 38.49609476 41.05292386 36.52539062 41.04882812 C31.68356441 41.03777711 26.84179505 41.02050138 22 41 C22 40.67 22 40.34 22 40 C35.2 40 48.4 40 62 40 C62 26.8 62 13.6 62 0 C69.26 0 76.52 0 84 0 C84 33.33 84 66.66 84 101 C76.74 101 69.48 101 62 101 C62 87.47 62 73.94 62 60 C48.8 60 35.6 60 22 60 C22 73.53 22 87.06 22 101 C14.74 101 7.48 101 0 101 C0 67.67 0 34.34 0 0 Z " fill="#08172C" transform="translate(303,834)"/>
<path d="M0 0 C1.15641747 0.00303635 1.15641747 0.00303635 2.3361969 0.00613403 C3.14428299 0.00438171 3.95236908 0.00262939 4.78494263 0.00082397 C7.46936662 -0.0035952 10.1537253 -0.00065633 12.83815002 0.00271606 C14.69520582 0.00204304 16.55226153 0.00107303 18.40931702 -0.00018311 C22.30666439 -0.00166017 26.20398889 0.00049474 30.10133362 0.00515747 C35.10874502 0.01085476 40.11610283 0.0075758 45.12351227 0.00158501 C48.95979723 -0.00202038 52.7960694 -0.00088212 56.63235474 0.0017128 C58.47922777 0.00238213 60.32610194 0.00155344 62.17297363 -0.00076675 C64.74954835 -0.00329292 67.32603503 0.00054679 69.90260315 0.00613403 C70.67354813 0.0041098 71.4444931 0.00208557 72.23880005 0 C77.50513747 0.02126601 77.50513747 0.02126601 78.61940002 1.13552856 C78.71839526 2.68508415 78.75019527 4.23906529 78.75221252 5.79177856 C78.75350159 6.73150513 78.75479065 7.67123169 78.75611877 8.63943481 C78.75225159 9.62814575 78.7483844 10.61685669 78.74440002 11.63552856 C78.74826721 12.6242395 78.7521344 13.61295044 78.75611877 14.63162231 C78.75482971 15.57134888 78.75354065 16.51107544 78.75221252 17.47927856 C78.75108459 18.34746216 78.74995667 19.21564575 78.74879456 20.11013794 C78.61940002 22.13552856 78.61940002 22.13552856 77.61940002 23.13552856 C68.04940002 23.13552856 58.47940002 23.13552856 48.61940002 23.13552856 C48.61940002 49.86552856 48.61940002 76.59552856 48.61940002 104.13552856 C40.69940002 104.13552856 32.77940002 104.13552856 24.61940002 104.13552856 C22.89952797 102.41565651 23.49965215 100.22675828 23.49497986 97.9342041 C23.49857513 97.1897403 23.50217041 96.44527649 23.50587463 95.67825317 C23.50572861 94.8978215 23.50558258 94.11738983 23.50543213 93.31330872 C23.50613144 90.72146877 23.51392466 88.12969978 23.52174377 85.53787231 C23.52360789 83.74568216 23.52503182 81.9534915 23.52603149 80.16130066 C23.52985719 75.43482059 23.53968791 70.70837105 23.55073547 65.98190308 C23.56094849 61.16267307 23.56552888 56.34343814 23.5705719 51.52420044 C23.58131013 42.06129637 23.59838716 32.598415 23.61940002 23.13552856 C22.30951111 23.14338379 22.30951111 23.14338379 20.97315979 23.15139771 C17.7435073 23.16840607 14.51387757 23.18096226 11.28419495 23.19046021 C9.88444774 23.19549936 8.48470582 23.20233073 7.0849762 23.21096802 C5.07694226 23.22305176 3.06887045 23.22822663 1.06080627 23.23318481 C-0.14889832 23.23842163 -1.35860291 23.24365845 -2.60496521 23.24905396 C-5.38059998 23.13552856 -5.38059998 23.13552856 -6.38059998 22.13552856 C-6.47959521 20.58597298 -6.51139522 19.03199184 -6.51341248 17.47927856 C-6.51470154 16.539552 -6.5159906 15.59982544 -6.51731873 14.63162231 C-6.51345154 13.64291138 -6.50958435 12.65420044 -6.50559998 11.63552856 C-6.50946716 10.64681763 -6.51333435 9.65810669 -6.51731873 8.63943481 C-6.51602966 7.69970825 -6.5147406 6.75998169 -6.51341248 5.79177856 C-6.51228455 4.92359497 -6.51115662 4.05541138 -6.50999451 3.16091919 C-6.24444508 -0.99568084 -3.53050815 0.01425655 0 0 Z M-4.38059998 2.13552856 C-4.38059998 8.73552856 -4.38059998 15.33552856 -4.38059998 22.13552856 C5.51940002 22.13552856 15.41940002 22.13552856 25.61940002 22.13552856 C25.61940002 48.86552856 25.61940002 75.59552856 25.61940002 103.13552856 C32.87940002 103.13552856 40.13940002 103.13552856 47.61940002 103.13552856 C47.61940002 76.40552856 47.61940002 49.67552856 47.61940002 22.13552856 C57.18940002 22.13552856 66.75940002 22.13552856 76.61940002 22.13552856 C76.61940002 15.53552856 76.61940002 8.93552856 76.61940002 2.13552856 C49.88940002 2.13552856 23.15940002 2.13552856 -4.38059998 2.13552856 Z " fill="#F6F6F6" transform="translate(687.3805999755859,705.8644714355469)"/>
<path d="M0 0 C0.66 0 1.32 0 2 0 C3.85356088 4.68054459 5.70491657 9.36195287 7.55419922 14.04418945 C8.18412116 15.63818141 8.81465392 17.23193211 9.44580078 18.82543945 C10.35087747 21.11086466 11.2537815 23.39713758 12.15625 25.68359375 C12.44060913 26.40026718 12.72496826 27.11694061 13.01794434 27.85533142 C15 32.88612829 15 32.88612829 15 34 C6.09 34 -2.82 34 -12 34 C-11.14669682 29.73348412 -10.04329713 26.2049247 -8.49609375 22.16796875 C-8.13198143 21.2130529 -8.13198143 21.2130529 -7.76051331 20.23884583 C-6.98986692 18.22029578 -6.21377563 16.20389099 -5.4375 14.1875 C-4.91174748 12.81328944 -4.38635303 11.43894183 -3.86132812 10.06445312 C-2.57835902 6.70803931 -1.2905006 3.35352636 0 0 Z " fill="#DFE1DF" transform="translate(525,735)"/>
<path d="M0 0 C1.02486511 -0.00315216 2.04973022 -0.00630432 3.10565186 -0.009552 C4.22224182 -0.00752777 5.33883179 -0.00550354 6.48925781 -0.00341797 C7.63017883 -0.00437469 8.77109985 -0.00533142 9.94659424 -0.00631714 C12.36771703 -0.00699938 14.78884163 -0.00514207 17.20996094 -0.00097656 C20.912477 0.0043515 24.61487065 -0.00090995 28.31738281 -0.00732422 C30.66634141 -0.00666306 33.01529994 -0.00538112 35.36425781 -0.00341797 C37.02699738 -0.00645432 37.02699738 -0.00645432 38.72332764 -0.009552 C39.76080139 -0.00639984 40.79827515 -0.00324768 41.8671875 0 C42.77684265 0.00079559 43.6864978 0.00159119 44.62371826 0.00241089 C47.2356375 0.13153286 49.64529529 0.55124792 52.19238281 1.12939453 C52.19238281 1.45939453 52.19238281 1.78939453 52.19238281 2.12939453 C33.71238281 2.12939453 15.23238281 2.12939453 -3.80761719 2.12939453 C-3.80761719 35.45939453 -3.80761719 68.78939453 -3.80761719 103.12939453 C3.45238281 103.12939453 10.71238281 103.12939453 18.19238281 103.12939453 C18.19238281 92.23939453 18.19238281 81.34939453 18.19238281 70.12939453 C33.91440983 69.16927074 33.91440983 69.16927074 37.46972656 71.84033203 C38.79155652 73.96292274 39.69060642 75.6795451 40.19238281 78.12939453 C39.86238281 78.78939453 39.53238281 79.44939453 39.19238281 80.12939453 C38.99386719 79.56349609 38.79535156 78.99759766 38.59082031 78.41455078 C37.36667655 75.75600955 36.34543692 74.14256094 34.19238281 72.12939453 C30.74783452 71.42102545 30.74783452 71.42102545 26.98144531 71.37548828 C25.71252441 71.3193335 24.44360352 71.26317871 23.13623047 71.20532227 C21.67902588 71.16773804 21.67902588 71.16773804 20.19238281 71.12939453 C20.20023804 72.57560181 20.20023804 72.57560181 20.20825195 74.05102539 C20.22630399 77.61612017 20.23781555 81.18121089 20.24731445 84.74633789 C20.25235421 86.29159219 20.25918601 87.8368417 20.26782227 89.38208008 C20.27990357 91.59864482 20.28561454 93.81514672 20.29003906 96.03173828 C20.29520035 96.72653793 20.30036163 97.42133759 20.30567932 98.13719177 C20.30587558 99.80168783 20.2542741 101.46604952 20.19238281 103.12939453 C18.47670489 104.84507245 16.21865547 104.25955278 13.87988281 104.26220703 C12.80480469 104.26349609 11.72972656 104.26478516 10.62207031 104.26611328 C9.49027344 104.26224609 8.35847656 104.25837891 7.19238281 104.25439453 C6.06058594 104.25826172 4.92878906 104.26212891 3.76269531 104.26611328 C2.68761719 104.26482422 1.61253906 104.26353516 0.50488281 104.26220703 C-0.48898437 104.2610791 -1.48285156 104.25995117 -2.50683594 104.25878906 C-4.80761719 104.12939453 -4.80761719 104.12939453 -5.80761719 103.12939453 C-5.90831498 99.96863109 -5.94375742 96.82967426 -5.93701172 93.66845703 C-5.93876404 92.6750531 -5.94051636 91.68164917 -5.94232178 90.65814209 C-5.94674229 87.35687541 -5.9438016 84.05566181 -5.94042969 80.75439453 C-5.94110267 78.47135406 -5.94207265 76.18831366 -5.94332886 73.90527344 C-5.9448061 69.11343709 -5.94265042 64.32161935 -5.93798828 59.52978516 C-5.93229098 53.37222818 -5.93556985 47.21471479 -5.94156075 41.05715942 C-5.94516564 36.34073556 -5.9440281 31.62432212 -5.94143295 26.90789795 C-5.94076349 24.63677973 -5.94159279 22.36566059 -5.94391251 20.09454346 C-5.94643786 16.92644731 -5.94260009 13.75842281 -5.93701172 10.59033203 C-5.93903595 9.64172302 -5.94106018 8.69311401 -5.94314575 7.71575928 C-5.91781003 0.00519395 -5.91781003 0.00519395 0 0 Z " fill="#EFF1F0" transform="translate(594.8076171875,705.87060546875)"/>
<path d="M0 0 C8.25 0 16.5 0 25 0 C24.67 0.66 24.34 1.32 24 2 C16.74 1.67 9.48 1.34 2 1 C2 33.34 2 65.68 2 99 C8.27 99 14.54 99 21 99 C21 78.21 21 57.42 21 36 C21.33 36 21.66 36 22 36 C22 57.45 22 78.9 22 101 C14.74 101 7.48 101 0 101 C0 67.67 0 34.34 0 0 Z " fill="#091B2F" transform="translate(358,708)"/>
<path d="M0 0 C7.92 0 15.84 0 24 0 C24 33.33 24 66.66 24 101 C16.74 101 9.48 101 2 101 C2 79.55 2 58.1 2 36 C2.33 36 2.66 36 3 36 C3 56.79 3 77.58 3 99 C9.27 99 15.54 99 22 99 C22 66.66 22 34.32 22 1 C14.74 1 7.48 1 0 1 C0 0.67 0 0.34 0 0 Z " fill="#081A2D" transform="translate(437,708)"/>
<path d="M0 0 C0.66 0 1.32 0 2 0 C2 32.67 2 65.34 2 99 C8.27 99 14.54 99 21 99 C21 78.87 21 58.74 21 38 C21.33 38 21.66 38 22 38 C22 58.79 22 79.58 22 101 C14.74 101 7.48 101 0 101 C0 67.67 0 34.34 0 0 Z " fill="#1D2B3E" transform="translate(523,834)"/>
<path d="M0 0 C1.15641747 0.00303635 1.15641747 0.00303635 2.3361969 0.00613403 C3.14428299 0.00438171 3.95236908 0.00262939 4.78494263 0.00082397 C7.46936662 -0.0035952 10.1537253 -0.00065633 12.83815002 0.00271606 C14.69520582 0.00204304 16.55226153 0.00107303 18.40931702 -0.00018311 C22.30666439 -0.00166017 26.20398889 0.00049474 30.10133362 0.00515747 C35.10874502 0.01085476 40.11610283 0.0075758 45.12351227 0.00158501 C48.95979723 -0.00202038 52.7960694 -0.00088212 56.63235474 0.0017128 C58.47922777 0.00238213 60.32610194 0.00155344 62.17297363 -0.00076675 C64.74954835 -0.00329292 67.32603503 0.00054679 69.90260315 0.00613403 C70.67354813 0.0041098 71.4444931 0.00208557 72.23880005 0 C77.50513747 0.02126601 77.50513747 0.02126601 78.61940002 1.13552856 C78.70625605 2.69725601 78.72642222 4.26282201 78.71705627 5.82693481 C78.71222229 7.24329224 78.71222229 7.24329224 78.70729065 8.68826294 C78.69472229 10.17809692 78.69472229 10.17809692 78.68190002 11.69802856 C78.67738831 12.69511841 78.67287659 13.69220825 78.66822815 14.71951294 C78.65640009 17.19157705 78.63991852 19.66352374 78.61940002 22.13552856 C77.95940002 22.46552856 77.29940002 22.79552856 76.61940002 23.13552856 C76.61940002 16.20552856 76.61940002 9.27552856 76.61940002 2.13552856 C49.88940002 2.13552856 23.15940002 2.13552856 -4.38059998 2.13552856 C-4.38059998 8.73552856 -4.38059998 15.33552856 -4.38059998 22.13552856 C5.51940002 22.13552856 15.41940002 22.13552856 25.61940002 22.13552856 C25.61940002 22.46552856 25.61940002 22.79552856 25.61940002 23.13552856 C21.2228383 23.1601836 16.82631282 23.17836699 12.42970276 23.19046021 C10.93295084 23.19549977 9.43620387 23.20233144 7.93946838 23.21096802 C5.79240195 23.22305015 3.6454004 23.22876048 1.49830627 23.23318481 C-0.4419342 23.24104004 -0.4419342 23.24104004 -2.42137146 23.24905396 C-5.38059998 23.13552856 -5.38059998 23.13552856 -6.38059998 22.13552856 C-6.47959521 20.58597298 -6.51139522 19.03199184 -6.51341248 17.47927856 C-6.51470154 16.539552 -6.5159906 15.59982544 -6.51731873 14.63162231 C-6.51345154 13.64291138 -6.50958435 12.65420044 -6.50559998 11.63552856 C-6.50946716 10.64681763 -6.51333435 9.65810669 -6.51731873 8.63943481 C-6.51602966 7.69970825 -6.5147406 6.75998169 -6.51341248 5.79177856 C-6.51228455 4.92359497 -6.51115662 4.05541138 -6.50999451 3.16091919 C-6.24444508 -0.99568084 -3.53050815 0.01425655 0 0 Z " fill="#ECEEEC" transform="translate(687.3805999755859,705.8644714355469)"/>
<path d="M0 0 C0.33 0 0.66 0 1 0 C1 33.99 1 67.98 1 103 C-6.92 103 -14.84 103 -23 103 C-24.75838741 101.24161259 -24.1979648 98.74038043 -24.25292969 96.3503418 C-24.28255798 95.14206223 -24.31218628 93.93378265 -24.3427124 92.68888855 C-24.36883606 91.37229752 -24.39495972 90.05570648 -24.421875 88.69921875 C-24.43573494 88.03214212 -24.44959488 87.3650655 -24.46387482 86.67777443 C-24.53720863 83.14602781 -24.60475614 79.61422584 -24.66748047 76.08227539 C-24.73332681 72.43343439 -24.81793984 68.78528688 -24.9070549 65.13695049 C-24.97222069 62.33268411 -25.02366842 59.52828536 -25.07138824 56.72367287 C-25.10889325 54.72489282 -25.16088969 52.72640174 -25.21307373 50.72795105 C-25.23009338 49.510215 -25.24711304 48.29247894 -25.26464844 47.0378418 C-25.28605896 45.966082 -25.30746948 44.8943222 -25.32952881 43.79008484 C-25 41 -25 41 -22 37 C-22 58.45 -22 79.9 -22 102 C-14.74 102 -7.48 102 0 102 C0 68.34 0 34.68 0 0 Z " fill="#F8F9F9" transform="translate(461,707)"/>
<path d="M0 0 C0.33 0 0.66 0 1 0 C1 17.49 1 34.98 1 53 C15.52 52.67 30.04 52.34 45 52 C46.32 48.04 47.64 44.08 49 40 C48.34 40 47.68 40 47 40 C46.01 39.505 46.01 39.505 45 39 C46.50663783 35.98672434 49.03166411 35.38943382 52 34 C52 36.64 52 39.28 52 42 C51.34 42 50.68 42 50 42 C50 42.66 50 43.32 50 44 C50.66 44 51.32 44 52 44 C52.33 29.48 52.66 14.96 53 0 C53.33 0 53.66 0 54 0 C54.02526648 7.52969652 54.04283141 15.0593822 54.05493164 22.58911133 C54.0599737 25.15291757 54.06680714 27.71672091 54.07543945 30.28051758 C54.08751064 33.95655021 54.09322942 37.63254498 54.09765625 41.30859375 C54.10281754 42.46274277 54.10797882 43.61689178 54.11329651 44.80601501 C54.11337204 45.86703934 54.11344757 46.92806366 54.11352539 48.02124023 C54.115746 48.96055893 54.11796661 49.89987762 54.12025452 50.86766052 C54 53 54 53 53 54 C51.34261557 54.09346915 49.68125356 54.11744977 48.02124023 54.11352539 C46.94531616 54.11340454 45.86939209 54.11328369 44.76086426 54.11315918 C43.05199036 54.10548523 43.05199036 54.10548523 41.30859375 54.09765625 C39.74727722 54.09614563 39.74727722 54.09614563 38.15441895 54.09460449 C34.24876816 54.08935401 30.34313303 54.07539289 26.4375 54.0625 C17.713125 54.041875 8.98875 54.02125 0 54 C0 36.18 0 18.36 0 0 Z " fill="#A4AAAA" transform="translate(517,565)"/>
<path d="M0 0 C7.26 0 14.52 0 22 0 C22 24.09 22 48.18 22 73 C21.67 73 21.34 73 21 73 C21 49.57 21 26.14 21 2 C14.73 2 8.46 2 2 2 C2.01160156 4.73152344 2.02320313 7.46304688 2.03515625 10.27734375 C2.04294642 12.91170129 2.04902341 15.54605757 2.05493164 18.18041992 C2.05997231 20.01668875 2.06680477 21.85295354 2.07543945 23.68920898 C2.08751672 26.32276401 2.09323081 28.95626616 2.09765625 31.58984375 C2.10281754 32.41588608 2.10797882 33.24192841 2.11329651 34.09300232 C2.11349205 36.06236368 2.06204152 38.03161614 2 40 C1 41 1 41 -2.87719727 41.11352539 C-4.60694167 41.11336621 -6.33669081 41.10766849 -8.06640625 41.09765625 C-8.97502914 41.0962413 -9.88365204 41.09482635 -10.81980896 41.09336853 C-13.73407221 41.08775193 -16.64825981 41.07519665 -19.5625 41.0625 C-21.53320202 41.05748714 -23.50390524 41.05292386 -25.47460938 41.04882812 C-30.31643559 41.03777711 -35.15820495 41.02050138 -40 41 C-40 40.67 -40 40.34 -40 40 C-26.8 40 -13.6 40 0 40 C0 26.8 0 13.6 0 0 Z " fill="#000C1E" transform="translate(365,834)"/>
<path d="M0 0 C7.26 0 14.52 0 22 0 C22 12.87 22 25.74 22 39 C21.34 39 20.68 39 20 39 C20 26.79 20 14.58 20 2 C13.73 2 7.46 2 1 2 C1 23.12 1 44.24 1 66 C0.67 66 0.34 66 0 66 C0 44.22 0 22.44 0 0 Z " fill="#000F25" transform="translate(303,834)"/>
<path d="M0 0 C0.66 0 1.32 0 2 0 C2 6.6 2 13.2 2 20 C-13.84 20 -29.68 20 -46 20 C-46 19.34 -46 18.68 -46 18 C-30.82 18 -15.64 18 0 18 C0 12.06 0 6.12 0 0 Z " fill="#0A2139" transform="translate(715,834)"/>
<path d="M0 0 C3.43015461 2.80649013 3.4009765 4.20292951 5 9 C-3.91 9 -12.82 9 -22 9 C-22 8.34 -22 7.68 -22 7 C-14.08 7 -6.16 7 2 7 C1.34 4.69 0.68 2.38 0 0 Z " fill="#F7F8F7" transform="translate(535,760)"/>
<path d="M0 0 C0.99 0.495 0.99 0.495 2 1 C2 1.66 2 2.32 2 3 C9.92 2.67 17.84 2.34 26 2 C26.33 2.99 26.66 3.98 27 5 C18.75 5 10.5 5 2 5 C1.34 3.35 0.68 1.7 0 0 Z " fill="#041E35" transform="translate(647,804)"/>
<path d="M0 0 C2.76390737 2.40339772 3.04065919 3.16263678 4 7 C-3.59 7 -11.18 7 -19 7 C-19 6.34 -19 5.68 -19 5 C-9.1 4.505 -9.1 4.505 1 4 C0.67 2.68 0.34 1.36 0 0 Z " fill="#071E35" transform="translate(574,802)"/>
<path d="M0 0 C0.33 0.99 0.66 1.98 1 3 C1.66 3.33 2.32 3.66 3 4 C1.625 5.5 1.625 5.5 0 7 C-0.66 7 -1.32 7 -2 7 C-1.04578192 8.14926266 -0.08647955 9.29430541 0.875 10.4375 C1.67550781 11.39462891 1.67550781 11.39462891 2.4921875 12.37109375 C3.9222757 14.10805004 3.9222757 14.10805004 6 15 C5.67 15.66 5.34 16.32 5 17 C3.72486237 15.92173635 2.45507431 14.83714481 1.1875 13.75 C0.47980469 13.14671875 -0.22789062 12.5434375 -0.95703125 11.921875 C-2.91889671 10.07629602 -4.45669625 8.20054668 -6 6 C-4.625 4.5 -4.625 4.5 -3 3 C-2.34 3 -1.68 3 -1 3 C-0.67 2.01 -0.34 1.02 0 0 Z " fill="#7B878C" transform="translate(416,205)"/>
<path d="M0 0 C0.66 0 1.32 0 2 0 C2.86772029 2.07772471 3.71873619 4.16243177 4.5625 6.25 C5.03816406 7.41015625 5.51382813 8.5703125 6.00390625 9.765625 C7 13 7 13 6 17 C4.35 13.37 2.7 9.74 1 6 C0.01 6.495 0.01 6.495 -1 7 C-1.65555119 9.52733235 -1.65555119 9.52733235 -2 12 C-3.12377697 8.69564916 -2.89554742 6.9493138 -1.5625 3.75 C-1.27503906 3.04359375 -0.98757813 2.3371875 -0.69140625 1.609375 C-0.46324219 1.07828125 -0.23507812 0.5471875 0 0 Z " fill="#E7EBEA" transform="translate(525,735)"/>
<path d="M0 0 C0.33 0 0.66 0 1 0 C1.02578125 0.88300781 1.0515625 1.76601563 1.078125 2.67578125 C1.42443068 10.0032947 2.32524587 16.0480655 5.2578125 22.79296875 C6 25 6 25 5 28 C2 22.25 2 22.25 2 20 C1.34 20 0.68 20 0 20 C0 13.4 0 6.8 0 0 Z " fill="#061427" transform="translate(425,877)"/>
<path d="M0 0 C1 2 1 2 0.25 4.8125 C-0.93275326 7.8285208 -2.08069275 10.38974215 -4 13 C-4.99 13 -5.98 13 -7 13 C-5.35821735 8.22390502 -2.73453298 4.20617096 0 0 Z " fill="#E7E9E8" transform="translate(601,874)"/>
<path d="M0 0 C2.41266681 0.96506672 3.79026781 1.72353484 5.375 3.8125 C6.24688625 6.86410186 5.48239521 8.24698033 4 11 C2.5 12.6875 2.5 12.6875 1 14 C0.34 14.66 -0.32 15.32 -1 16 C-0.56121274 12.9284892 -0.03943941 11.05988948 1.6875 8.4375 C2.120625 7.633125 2.55375 6.82875 3 6 C2.3498008 3.78265886 2.3498008 3.78265886 1 2 C0.67 1.34 0.34 0.68 0 0 Z " fill="#EDEEED" transform="translate(333,714)"/>
<path d="M0 0 C1.65 0 3.3 0 5 0 C3.68 0.33 2.36 0.66 1 1 C1.185625 2.27875 1.37125 3.5575 1.5625 4.875 C2.125 8.75 2.125 8.75 1 11 C1.66 11 2.32 11 3 11 C2.01 14.465 2.01 14.465 1 18 C0.67 18 0.34 18 0 18 C0 12.06 0 6.12 0 0 Z " fill="#7C8A8E" transform="translate(518,494)"/>
<path d="M0 0 C7.59 0 15.18 0 23 0 C20 2 20 2 17 2 C16.34 2.66 15.68 3.32 15 4 C15 3.34 15 2.68 15 2 C10.05 1.67 5.1 1.34 0 1 C0 0.67 0 0.34 0 0 Z " fill="#7E8B8F" transform="translate(525,494)"/>
<path d="M0 0 C2.63978826 3.18595135 5.10498388 6.30970546 7 10 C6.67 10.66 6.34 11.32 6 12 C5.34 11.01 4.68 10.02 4 9 C3.01 9.66 2.02 10.32 1 11 C0.67 7.37 0.34 3.74 0 0 Z " fill="#E9EBEA" transform="translate(545,871)"/>
<path d="M0 0 C0.66 0.33 1.32 0.66 2 1 C2.10183594 1.61359375 2.20367187 2.2271875 2.30859375 2.859375 C3.32690094 6.0121001 5.22489997 6.66956454 8.0625 8.25 C8.98160156 8.77078125 9.90070313 9.2915625 10.84765625 9.828125 C11.55792969 10.21484375 12.26820313 10.6015625 13 11 C10 12 10 12 7.80859375 10.92578125 C7.02613281 10.39339844 6.24367188 9.86101563 5.4375 9.3125 C4.65246094 8.79300781 3.86742187 8.27351562 3.05859375 7.73828125 C0.91145306 5.92523076 -0.08934779 4.64574104 -1 2 C-0.67 1.34 -0.34 0.68 0 0 Z " fill="#09172B" transform="translate(266,793)"/>
<path d="M0 0 C2.35371788 2.35371788 4.43532537 4.88347875 6.5625 7.44140625 C7.93659212 9.11591342 7.93659212 9.11591342 10 10 C9.67 10.66 9.34 11.32 9 12 C7.72486237 10.92173635 6.45507431 9.83714481 5.1875 8.75 C4.47980469 8.14671875 3.77210938 7.5434375 3.04296875 6.921875 C1.08110329 5.07629602 -0.45669625 3.20054668 -2 1 C-1.34 0.67 -0.68 0.34 0 0 Z " fill="#0B1B2F" transform="translate(685,490)"/>
<path d="M0 0 C-0.639375 0.309375 -1.27875 0.61875 -1.9375 0.9375 C-3.93610821 1.8345163 -3.93610821 1.8345163 -5 3 C-6.84891946 3.23363881 -8.70488031 3.41303635 -10.5625 3.5625 C-12.08037109 3.68818359 -12.08037109 3.68818359 -13.62890625 3.81640625 C-14.41136719 3.87699219 -15.19382812 3.93757812 -16 4 C-11.93477827 -0.06522173 -5.49940708 -0.27497035 0 0 Z " fill="#758287" transform="translate(484,167)"/>
<path d="M0 0 C0.66 0.99 1.32 1.98 2 3 C1.13375 3.804375 1.13375 3.804375 0.25 4.625 C-2.2147481 7.22667855 -4.0791012 9.98144474 -6 13 C-6.33 12.34 -6.66 11.68 -7 11 C-5.56640625 8.3984375 -5.56640625 8.3984375 -3.5625 5.375 C-2.90378906 4.37210938 -2.24507813 3.36921875 -1.56640625 2.3359375 C-1.04949219 1.56507813 -0.53257812 0.79421875 0 0 Z " fill="#07182C" transform="translate(436,710)"/>
<path d="M0 0 C0 4.35251187 -2.06165511 5.92809398 -5 9 C-7.171875 9.6796875 -7.171875 9.6796875 -9 10 C-8.06409496 8.8944811 -7.12620142 7.79064547 -6.1875 6.6875 C-5.66542969 6.07261719 -5.14335938 5.45773438 -4.60546875 4.82421875 C-3.12827531 3.14575321 -1.59960869 1.56117966 0 0 Z " fill="#EFEFED" transform="translate(608,210)"/>
<path d="M0 0 C2.0625 1.4375 2.0625 1.4375 4 4 C4.05823431 7.07583023 3.59222907 9.98735648 3 13 C0.89172945 9.83759418 0.66182535 8.49342531 0.375 4.8125 C0.30023437 3.91144531 0.22546875 3.01039063 0.1484375 2.08203125 C0.09945312 1.39496094 0.05046875 0.70789063 0 0 Z " fill="#14374E" transform="translate(669,730)"/>
<path d="M0 0 C3.0916909 2.52956528 3.90931332 5.22454612 5 9 C2.03 8.505 2.03 8.505 -1 8 C-0.01 7.67 0.98 7.34 2 7 C1.34 4.69 0.68 2.38 0 0 Z " fill="#F0F2F2" transform="translate(535,760)"/>
<path d="M0 0 C0.66 0.33 1.32 0.66 2 1 C0.95125002 3.62187494 0.35068687 4.79371361 -2.125 6.25 C-2.74375 6.4975 -3.3625 6.745 -4 7 C-2.92598892 4.08482708 -2.22189824 2.22189824 0 0 Z " fill="#092035" transform="translate(275,715)"/>
<path d="M0 0 C0.66 0.33 1.32 0.66 2 1 C0.515 3.475 0.515 3.475 -1 6 C-2.65 5.67 -4.3 5.34 -6 5 C-2.25 1.125 -2.25 1.125 0 0 Z " fill="#758288" transform="translate(433,185)"/>
<path d="M0 0 C-1.32 1.32 -2.64 2.64 -4 4 C-4.99 3.67 -5.98 3.34 -7 3 C-6.67 2.01 -6.34 1.02 -6 0 C-3.42525708 -0.99667468 -2.51072708 -1.25536354 0 0 Z " fill="#79858A" transform="translate(397,178)"/>
</svg>
